<svg width="261" height="183" viewBox="0 0 261 183" fill="none" xmlns="http://www.w3.org/2000/svg">
<path d="M151.997 125.349C151.324 158.723 49.8887 180 32.6169 180C16.1503 180 -1.01179 160.696 0.0465829 135.234C0.151186 132.718 0.674425 130.244 1.09316 127.76C3.34569 114.4 5.54939 82.1907 12.9129 70.1952C22.3076 54.8908 44.5428 80.1163 62.3121 82.7116C98.333 87.9725 152.487 100.996 151.997 125.349Z" fill="#9AF99A"/>
<path d="M111.129 97.5475C111.696 104.331 110.126 111.34 107.936 117.786C99.194 143.511 58.2788 154.23 42.0404 154.23C24.7005 154.343 4.3625 64.3554 6.56625 35.4551C7.58679 2.71861 22.6196 13.5181 37.3949 20.2183C40.4413 21.5998 43.4583 22.9912 46.242 24.8459C64.3299 36.8975 108.918 71.0787 111.129 97.5475Z" fill="#9AF99A"/>
<path d="M142.91 51.8377V51.8377C142.91 85.9398 120.581 143.573 93.6648 122.634C79.4932 111.609 67.3349 99.2143 67.3349 92.7944C65.8499 79.4235 87.1171 56.2582 104.866 38.7789C115.376 28.4286 133.934 21.457 140.072 34.8698C142.066 39.2252 143.063 44.8284 142.91 51.8377Z" fill="#9AF99A"/>
<path d="M105.587 52.6653C105.587 58.603 97.9494 70.0719 87.3869 70.0719C76.8243 70.0719 64.5601 56.0431 64.5601 50.1054C64.5601 44.1678 76.8243 51.6413 87.3869 51.6413C97.9494 51.6413 105.587 46.7276 105.587 52.6653Z" fill="#9AF99A"/>
<path d="M60 13L74.7309 17.2854C74.8628 17.3237 74.9176 17.4804 74.8385 17.5927L72.6923 20.6364M60 13L72.6923 20.6364M60 13L68.5109 24.8017C68.5848 24.9042 68.734 24.9133 68.8199 24.8206L71.1779 22.2727M60 13L71.1779 22.2727M72.6923 20.6364L71.1779 22.2727" stroke="#0AE500"/>
<path d="M35 83.1846C35 87.6578 33.1651 89.9961 28.627 89.9961C24.0889 89.9961 23 90.2887 23 85.8154C23 81.3422 24.8349 79.0039 29.373 79.0039C33.9111 79.0039 35 78.7113 35 83.1846Z" fill="#1A341A"/>
<path d="M103.153 55.9497C101.718 50.7384 101.533 45.153 98.6083 40.8122L89.2799 56.6941C91.0874 60.0063 91.3263 61.488 86.6488 61.6572L85.9312 66.6203C88.3257 64.4826 90.9622 65.9013 95.2596 67.613C98.79 69.9179 100.513 71.338 102.196 74.5613L109.85 64.3869L103.153 55.9497Z" fill="#E9B184"/>
<path d="M122.917 95.6545L100.105 74.3504L109.629 62.7491L152.594 91.225C162.722 96.703 161.618 106.623 154.366 111.053C147.114 115.482 127.293 122.35 109.629 125.818C106.75 126.24 105.642 126.662 105.642 130.458L107.414 157.879C96.5619 163.153 79.5085 175.387 63.784 180.238L63.1196 180.66C42.3012 188.254 15.6694 177.53 0 146.067V145.645L14.3957 106.201L15.503 104.725C18.8251 101.35 36.2869 95.2248 49.8312 89.9594C53.4305 103.304 71.757 102.615 74.8576 91.225H75.522L122.917 95.6545Z" fill="#00B0F0"/>
<path d="M74.6362 92.7321C69.7638 103.701 53.5963 104.755 49.6098 91.4665L54.0392 69.9514V68.6858C48.6532 65.581 50.1611 56.2502 52.9319 53.9677C54.4905 52.6837 56.4488 52.5621 57.8043 54.7643L58.6902 42.9215L83.0521 38.9138L87.0386 59.4048C85.8115 75.5847 79.9515 87.0369 76.1865 87.0369L75.522 88.0916L74.6362 92.7321Z" fill="#E9B184"/>
<path d="M75.522 88.0916L74.6362 92.7321C69.7638 103.701 53.5963 104.755 49.6098 91.4665L54.0392 69.9514V68.6858C48.6532 65.581 50.1611 56.2502 52.9319 53.9677C54.4905 52.6837 56.4488 52.5621 57.8043 54.7643M75.522 88.0916L76.1865 87.0369C79.9515 87.0369 85.8115 75.5847 87.0386 59.4048L83.0521 38.9138L58.6902 42.9215L57.8043 54.7643M75.522 88.0916H74.6362C67.5568 86.2761 63.6935 84.6732 57.8043 76.2794M57.8043 54.7643L57.5828 61.5141" stroke="#E9B184"/>
<path d="M75.965 87.6391C69.3782 86.4546 63.2922 85.4932 59.576 77.0925" stroke="#A40031"/>
<path d="M57.4417 61.1805C59.0827 63.8319 60.0937 62.7687 61.8712 61.6024V56.54V55.6963C61.8593 54.4368 62.8229 53.6481 66.0791 52.1104C66.648 45.4527 67.6295 41.9857 68.7368 43.4622L69.8442 48.8276C81.9861 65.2792 95.7564 60.007 97.7497 46.2964V41.5638C97.5484 32.4166 80.0319 22.369 64.0859 34.814L63.2 35.4468C54.5893 38.6208 52.2198 42.338 52.7908 52.7432V53.6341C54.3495 52.3501 56.3077 52.2285 57.6632 54.4307L57.4417 61.1805Z" fill="#510000" stroke="#570000"/>
<path d="M177.463 103C177.463 103.453 177.383 103.887 177.223 104.3C177.063 104.713 176.836 105.113 176.543 105.5C176.249 105.887 175.903 106.267 175.503 106.64C175.116 107 174.689 107.353 174.223 107.7C173.729 108.073 173.156 108.433 172.503 108.78C171.849 109.127 171.189 109.433 170.523 109.7C169.869 109.98 169.249 110.2 168.663 110.36C168.076 110.52 167.603 110.6 167.243 110.6C167.003 110.6 166.829 110.567 166.723 110.5C166.603 110.447 166.543 110.313 166.543 110.1C166.543 109.953 166.596 109.78 166.703 109.58C166.809 109.38 166.916 109.28 167.023 109.28C167.129 109.28 167.209 109.313 167.263 109.38C167.303 109.447 167.323 109.52 167.323 109.6C167.323 109.64 167.323 109.673 167.323 109.7C167.309 109.727 167.303 109.747 167.303 109.76V109.8C167.809 109.747 168.489 109.587 169.343 109.32C170.183 109.067 171.189 108.62 172.363 107.98C172.869 107.7 173.369 107.373 173.863 107C174.356 106.613 174.796 106.207 175.183 105.78C175.583 105.34 175.903 104.887 176.143 104.42C176.383 103.94 176.503 103.473 176.503 103.02C176.503 102.7 176.336 102.373 176.003 102.04C175.683 101.693 175.269 101.373 174.763 101.08C174.269 100.773 173.729 100.513 173.143 100.3C172.556 100.073 172.009 99.92 171.503 99.84C171.516 99.9067 171.536 100.073 171.563 100.34C171.589 100.593 171.629 100.893 171.683 101.24C171.736 101.587 171.796 101.96 171.863 102.36C171.943 102.747 172.029 103.107 172.123 103.44C172.229 103.813 172.296 104.093 172.323 104.28C172.363 104.453 172.389 104.6 172.403 104.72C172.416 104.853 172.436 105.027 172.463 105.24C172.503 105.44 172.529 105.653 172.543 105.88C172.569 106.093 172.589 106.3 172.603 106.5C172.629 106.687 172.643 106.833 172.643 106.94C172.643 107.06 172.616 107.187 172.563 107.32C172.523 107.453 172.469 107.52 172.403 107.52C172.243 107.52 172.129 107.467 172.063 107.36C172.009 107.24 171.956 107.047 171.903 106.78C171.863 106.5 171.809 106.14 171.743 105.7C171.676 105.26 171.549 104.72 171.363 104.08C171.096 103.187 170.909 102.347 170.803 101.56C170.696 100.76 170.629 100.127 170.603 99.66C170.603 99.66 170.569 99.66 170.503 99.66C170.449 99.6467 170.369 99.64 170.263 99.64C170.169 99.64 170.056 99.64 169.923 99.64C169.803 99.6267 169.689 99.62 169.583 99.62C169.356 99.62 169.149 99.6667 168.963 99.76C168.776 99.84 168.623 99.9333 168.503 100.04C168.369 100.147 168.263 100.247 168.183 100.34C168.089 100.42 168.029 100.46 168.003 100.46C167.909 100.46 167.783 100.44 167.623 100.4C167.449 100.347 167.363 100.253 167.363 100.12C167.363 99.9467 167.449 99.7733 167.623 99.6C167.783 99.4133 167.983 99.2533 168.223 99.12C168.463 98.9733 168.723 98.86 169.003 98.78C169.283 98.6867 169.543 98.64 169.783 98.64C170.183 98.64 170.649 98.6933 171.183 98.8C171.716 98.9067 172.263 99.0533 172.823 99.24C173.396 99.4267 173.956 99.6533 174.503 99.92C175.063 100.187 175.563 100.48 176.003 100.8C176.443 101.12 176.796 101.467 177.063 101.84C177.329 102.213 177.463 102.6 177.463 103ZM180.328 99.8C180.328 99.8267 180.281 99.88 180.188 99.96C180.094 100.04 179.981 100.127 179.848 100.22C179.728 100.3 179.601 100.373 179.468 100.44C179.334 100.507 179.228 100.54 179.148 100.54C179.094 100.54 179.021 100.54 178.928 100.54C178.848 100.527 178.761 100.5 178.668 100.46C178.588 100.42 178.514 100.367 178.448 100.3C178.381 100.22 178.348 100.12 178.348 100C178.348 99.8133 178.414 99.64 178.548 99.48C178.681 99.3067 178.854 99.22 179.068 99.22C179.108 99.22 179.194 99.24 179.328 99.28C179.474 99.3067 179.621 99.3467 179.768 99.4C179.914 99.4533 180.041 99.5133 180.148 99.58C180.268 99.6467 180.328 99.72 180.328 99.8ZM180.988 107.28C180.988 107.373 180.914 107.453 180.768 107.52C180.634 107.587 180.534 107.62 180.468 107.62C180.334 107.62 180.214 107.533 180.108 107.36C180.001 107.187 179.908 106.987 179.828 106.76C179.748 106.533 179.681 106.32 179.628 106.12C179.574 105.907 179.534 105.76 179.508 105.68C179.468 105.547 179.414 105.387 179.348 105.2C179.281 105.013 179.214 104.833 179.148 104.66C179.094 104.487 179.048 104.333 179.008 104.2C178.968 104.067 178.948 103.993 178.948 103.98C178.948 103.793 178.981 103.62 179.048 103.46C179.128 103.3 179.221 103.22 179.328 103.22C179.448 103.22 179.574 103.313 179.708 103.5C179.841 103.687 179.968 103.927 180.088 104.22C180.221 104.5 180.341 104.813 180.448 105.16C180.554 105.493 180.648 105.813 180.728 106.12C180.808 106.413 180.868 106.673 180.908 106.9C180.961 107.113 180.988 107.24 180.988 107.28ZM186.753 106.36C186.753 106.587 186.673 106.787 186.513 106.96C186.366 107.12 186.173 107.26 185.933 107.38C185.706 107.487 185.453 107.573 185.173 107.64C184.893 107.707 184.626 107.76 184.373 107.8C184.12 107.827 183.893 107.847 183.693 107.86C183.506 107.86 183.386 107.86 183.333 107.86C183.04 107.86 182.813 107.813 182.653 107.72C182.493 107.627 182.413 107.46 182.413 107.22C182.413 107.14 182.42 107.073 182.433 107.02C182.446 106.953 182.5 106.92 182.593 106.92C182.633 106.92 182.7 106.933 182.793 106.96C182.886 106.973 182.96 106.98 183.013 106.98C183.066 106.98 183.233 106.973 183.513 106.96C183.806 106.933 184.113 106.893 184.433 106.84C184.766 106.787 185.06 106.713 185.313 106.62C185.58 106.513 185.713 106.38 185.713 106.22C185.713 106.193 185.573 106.113 185.293 105.98C185.026 105.833 184.62 105.593 184.073 105.26C183.646 104.993 183.346 104.727 183.173 104.46C183 104.18 182.913 103.807 182.913 103.34C182.913 103.047 182.973 102.807 183.093 102.62C183.226 102.433 183.4 102.287 183.613 102.18C183.84 102.073 184.093 102 184.373 101.96C184.666 101.907 184.973 101.88 185.293 101.88C185.32 101.88 185.4 101.893 185.533 101.92C185.68 101.947 185.833 101.993 185.993 102.06C186.153 102.113 186.293 102.187 186.413 102.28C186.546 102.36 186.613 102.453 186.613 102.56C186.613 102.587 186.586 102.627 186.533 102.68C186.493 102.733 186.42 102.833 186.313 102.98C186.273 102.967 186.2 102.947 186.093 102.92C186 102.893 185.886 102.867 185.753 102.84C185.633 102.8 185.506 102.773 185.373 102.76C185.24 102.733 185.133 102.72 185.053 102.72C184.706 102.72 184.426 102.787 184.213 102.92C184 103.04 183.893 103.28 183.893 103.64C183.893 103.813 183.96 103.973 184.093 104.12C184.24 104.267 184.42 104.407 184.633 104.54C184.846 104.66 185.073 104.787 185.313 104.92C185.566 105.04 185.8 105.173 186.013 105.32C186.226 105.467 186.4 105.627 186.533 105.8C186.68 105.96 186.753 106.147 186.753 106.36ZM193.764 99.96C193.591 100.16 193.344 100.36 193.024 100.56C192.704 100.747 192.384 100.92 192.064 101.08C191.744 101.24 191.464 101.38 191.224 101.5C190.984 101.607 190.864 101.68 190.864 101.72C190.864 101.76 190.891 101.88 190.944 102.08C190.997 102.28 191.057 102.52 191.124 102.8C191.204 103.067 191.284 103.347 191.364 103.64C191.444 103.933 191.511 104.193 191.564 104.42C191.591 104.553 191.624 104.727 191.664 104.94C191.704 105.153 191.737 105.367 191.764 105.58C191.804 105.793 191.837 105.987 191.864 106.16C191.891 106.32 191.904 106.407 191.904 106.42C191.904 106.62 191.871 106.827 191.804 107.04C191.737 107.253 191.631 107.36 191.484 107.36C191.404 107.36 191.331 107.327 191.264 107.26C191.197 107.193 191.137 107.12 191.084 107.04C191.031 106.947 190.991 106.86 190.964 106.78C190.937 106.7 190.924 106.64 190.924 106.6C190.924 106.573 190.924 106.533 190.924 106.48C190.937 106.427 190.944 106.367 190.944 106.3C190.944 106.047 190.904 105.68 190.824 105.2C190.797 105.053 190.744 104.827 190.664 104.52C190.584 104.213 190.504 103.9 190.424 103.58C190.331 103.207 190.224 102.8 190.104 102.36C190.051 102.173 190.017 102.08 190.004 102.08C189.911 102.08 189.751 102.14 189.524 102.26C189.311 102.367 189.064 102.507 188.784 102.68C188.504 102.84 188.211 103.02 187.904 103.22C187.597 103.407 187.311 103.587 187.044 103.76C186.777 103.92 186.551 104.06 186.364 104.18C186.164 104.287 186.044 104.34 186.004 104.34C185.831 104.34 185.691 104.28 185.584 104.16C185.477 104.04 185.424 103.907 185.424 103.76C185.424 103.68 185.537 103.567 185.764 103.42C185.977 103.26 186.251 103.087 186.584 102.9C186.904 102.713 187.257 102.52 187.644 102.32C188.017 102.12 188.364 101.94 188.684 101.78C189.017 101.62 189.291 101.487 189.504 101.38C189.731 101.273 189.844 101.22 189.844 101.22C189.724 100.607 189.624 100.06 189.544 99.58C189.477 99.1667 189.411 98.7867 189.344 98.44C189.291 98.0933 189.264 97.9067 189.264 97.88C189.264 97.7067 189.297 97.58 189.364 97.5C189.444 97.4067 189.531 97.36 189.624 97.36C189.771 97.36 189.864 97.46 189.904 97.66C190.051 98.38 190.184 99.02 190.304 99.58C190.437 100.14 190.564 100.593 190.684 100.94C190.804 100.913 191.011 100.84 191.304 100.72C191.597 100.587 191.904 100.447 192.224 100.3C192.544 100.153 192.831 100.027 193.084 99.92C193.351 99.8 193.504 99.74 193.544 99.74C193.624 99.74 193.671 99.7667 193.684 99.82C193.711 99.8733 193.737 99.92 193.764 99.96ZM199.571 102.9C199.571 102.993 199.531 103.073 199.451 103.14C199.371 103.193 199.277 103.24 199.171 103.28C199.064 103.32 198.957 103.353 198.851 103.38C198.744 103.393 198.657 103.4 198.591 103.4C198.391 103.4 198.257 103.387 198.191 103.36C198.124 103.333 198.071 103.32 198.031 103.32C197.697 103.32 197.431 103.347 197.231 103.4C197.031 103.453 196.871 103.54 196.751 103.66C196.644 103.78 196.571 103.933 196.531 104.12C196.504 104.293 196.491 104.507 196.491 104.76C196.491 105.187 196.504 105.527 196.531 105.78C196.571 106.033 196.604 106.24 196.631 106.4C196.671 106.56 196.704 106.687 196.731 106.78C196.771 106.86 196.791 106.94 196.791 107.02C196.791 107.127 196.731 107.24 196.611 107.36C196.504 107.48 196.404 107.54 196.311 107.54C196.151 107.54 196.004 107.4 195.871 107.12C195.751 106.827 195.644 106.487 195.551 106.1C195.471 105.7 195.404 105.307 195.351 104.92C195.297 104.533 195.271 104.24 195.271 104.04C195.271 103.813 195.291 103.6 195.331 103.4C195.371 103.187 195.424 103.007 195.491 102.86C195.557 102.7 195.631 102.573 195.711 102.48C195.791 102.387 195.871 102.34 195.951 102.34C196.017 102.34 196.071 102.367 196.111 102.42C196.151 102.46 196.184 102.513 196.211 102.58C196.237 102.633 196.264 102.687 196.291 102.74C196.331 102.78 196.377 102.8 196.431 102.8C196.551 102.8 196.744 102.74 197.011 102.62C197.277 102.5 197.604 102.44 197.991 102.44C198.351 102.44 198.617 102.453 198.791 102.48C198.977 102.493 199.157 102.533 199.331 102.6C199.371 102.613 199.417 102.647 199.471 102.7C199.537 102.74 199.571 102.807 199.571 102.9ZM202.359 99.8C202.359 99.8267 202.312 99.88 202.219 99.96C202.126 100.04 202.012 100.127 201.879 100.22C201.759 100.3 201.632 100.373 201.499 100.44C201.366 100.507 201.259 100.54 201.179 100.54C201.126 100.54 201.052 100.54 200.959 100.54C200.879 100.527 200.792 100.5 200.699 100.46C200.619 100.42 200.546 100.367 200.479 100.3C200.412 100.22 200.379 100.12 200.379 100C200.379 99.8133 200.446 99.64 200.579 99.48C200.712 99.3067 200.886 99.22 201.099 99.22C201.139 99.22 201.226 99.24 201.359 99.28C201.506 99.3067 201.652 99.3467 201.799 99.4C201.946 99.4533 202.072 99.5133 202.179 99.58C202.299 99.6467 202.359 99.72 202.359 99.8ZM203.019 107.28C203.019 107.373 202.946 107.453 202.799 107.52C202.666 107.587 202.566 107.62 202.499 107.62C202.366 107.62 202.246 107.533 202.139 107.36C202.032 107.187 201.939 106.987 201.859 106.76C201.779 106.533 201.712 106.32 201.659 106.12C201.606 105.907 201.566 105.76 201.539 105.68C201.499 105.547 201.446 105.387 201.379 105.2C201.312 105.013 201.246 104.833 201.179 104.66C201.126 104.487 201.079 104.333 201.039 104.2C200.999 104.067 200.979 103.993 200.979 103.98C200.979 103.793 201.012 103.62 201.079 103.46C201.159 103.3 201.252 103.22 201.359 103.22C201.479 103.22 201.606 103.313 201.739 103.5C201.872 103.687 201.999 103.927 202.119 104.22C202.252 104.5 202.372 104.813 202.479 105.16C202.586 105.493 202.679 105.813 202.759 106.12C202.839 106.413 202.899 106.673 202.939 106.9C202.992 107.113 203.019 107.24 203.019 107.28ZM209.044 105.02C209.044 105.62 208.971 106.147 208.824 106.6C208.691 107.053 208.524 107.433 208.324 107.74C208.124 108.033 207.918 108.253 207.704 108.4C207.504 108.547 207.338 108.62 207.204 108.62C207.018 108.62 206.838 108.54 206.664 108.38C206.491 108.207 206.404 108.047 206.404 107.9C206.404 107.687 206.491 107.58 206.664 107.58C206.731 107.58 206.798 107.607 206.864 107.66C206.931 107.7 206.991 107.733 207.044 107.76C207.271 107.573 207.484 107.267 207.684 106.84C207.898 106.413 208.004 105.807 208.004 105.02C208.004 104.7 207.971 104.413 207.904 104.16C207.838 103.907 207.758 103.693 207.664 103.52C207.584 103.347 207.498 103.213 207.404 103.12C207.311 103.027 207.244 102.98 207.204 102.98C207.071 102.98 206.938 103.113 206.804 103.38C206.684 103.647 206.578 103.953 206.484 104.3C206.391 104.633 206.311 104.967 206.244 105.3C206.191 105.62 206.164 105.84 206.164 105.96C206.178 106.04 206.191 106.113 206.204 106.18C206.218 106.247 206.231 106.313 206.244 106.38C206.258 106.447 206.264 106.513 206.264 106.58C206.264 106.833 206.178 107.06 206.004 107.26C205.831 107.46 205.664 107.56 205.504 107.56C205.424 107.56 205.358 107.507 205.304 107.4C205.264 107.28 205.231 107.133 205.204 106.96C205.178 106.787 205.151 106.607 205.124 106.42C205.111 106.233 205.091 106.067 205.064 105.92C204.958 105.68 204.818 105.3 204.644 104.78C204.471 104.26 204.284 103.707 204.084 103.12C203.898 102.52 203.718 101.94 203.544 101.38C203.384 100.82 203.264 100.373 203.184 100.04C202.998 99.32 202.858 98.6933 202.764 98.16C202.658 97.6133 202.578 97.14 202.524 96.74C202.458 96.3267 202.418 95.9733 202.404 95.68C202.391 95.3867 202.384 95.14 202.384 94.94C202.384 94.82 202.438 94.7267 202.544 94.66C202.638 94.5933 202.724 94.56 202.804 94.56C202.924 94.56 203.011 94.5867 203.064 94.64C203.118 94.68 203.158 94.7733 203.184 94.92C203.198 95.0667 203.218 95.28 203.244 95.56C203.258 95.84 203.291 96.2133 203.344 96.68C203.371 96.9067 203.418 97.22 203.484 97.62C203.564 98.02 203.664 98.4667 203.784 98.96C203.904 99.4533 204.031 99.9733 204.164 100.52C204.311 101.053 204.458 101.567 204.604 102.06C204.764 102.553 204.918 103.007 205.064 103.42C205.224 103.833 205.371 104.16 205.504 104.4C205.624 103.92 205.771 103.487 205.944 103.1C206.091 102.78 206.271 102.487 206.484 102.22C206.698 101.94 206.958 101.8 207.264 101.8C207.384 101.8 207.544 101.853 207.744 101.96C207.944 102.067 208.138 102.247 208.324 102.5C208.524 102.753 208.691 103.087 208.824 103.5C208.971 103.913 209.044 104.42 209.044 105.02ZM217.485 105.68C217.485 105.8 217.405 105.927 217.245 106.06C217.085 106.193 216.899 106.32 216.685 106.44C216.472 106.547 216.252 106.64 216.025 106.72C215.812 106.8 215.652 106.84 215.545 106.84C215.425 106.84 215.292 106.807 215.145 106.74C215.012 106.673 214.879 106.593 214.745 106.5C214.625 106.407 214.519 106.32 214.425 106.24C214.332 106.16 214.272 106.107 214.245 106.08C214.205 106.12 214.145 106.2 214.065 106.32C213.985 106.44 213.885 106.573 213.765 106.72C213.659 106.853 213.539 106.973 213.405 107.08C213.285 107.187 213.159 107.24 213.025 107.24C212.679 107.24 212.379 107.053 212.125 106.68C211.872 106.307 211.659 105.88 211.485 105.4C211.325 104.92 211.199 104.46 211.105 104.02C211.025 103.567 210.985 103.26 210.985 103.1C210.985 103.007 211.032 102.933 211.125 102.88C211.232 102.813 211.312 102.78 211.365 102.78C211.552 102.78 211.679 102.847 211.745 102.98C211.812 103.1 211.845 103.233 211.845 103.38C211.845 103.5 211.879 103.713 211.945 104.02C212.025 104.327 212.119 104.64 212.225 104.96C212.332 105.28 212.445 105.567 212.565 105.82C212.685 106.06 212.792 106.18 212.885 106.18C213.059 106.18 213.205 106.073 213.325 105.86C213.459 105.633 213.565 105.38 213.645 105.1C213.725 104.807 213.785 104.533 213.825 104.28C213.865 104.013 213.885 103.84 213.885 103.76C213.885 103.747 213.885 103.707 213.885 103.64C213.899 103.56 213.912 103.48 213.925 103.4C213.939 103.32 213.945 103.247 213.945 103.18C213.959 103.113 213.965 103.067 213.965 103.04C213.965 102.947 213.945 102.887 213.905 102.86C213.865 102.82 213.845 102.747 213.845 102.64C213.845 102.56 213.885 102.487 213.965 102.42C214.045 102.34 214.219 102.3 214.485 102.3C214.592 102.3 214.672 102.333 214.725 102.4C214.792 102.453 214.839 102.52 214.865 102.6C214.892 102.68 214.905 102.76 214.905 102.84C214.919 102.907 214.925 102.953 214.925 102.98C214.925 102.993 214.919 103.087 214.905 103.26C214.892 103.433 214.879 103.627 214.865 103.84C214.865 104.04 214.859 104.233 214.845 104.42C214.832 104.607 214.825 104.72 214.825 104.76C214.825 104.8 214.845 104.88 214.885 105C214.925 105.12 214.972 105.247 215.025 105.38C215.092 105.5 215.165 105.613 215.245 105.72C215.325 105.813 215.412 105.86 215.505 105.86C215.665 105.86 215.812 105.84 215.945 105.8C216.092 105.747 216.225 105.693 216.345 105.64C216.479 105.573 216.599 105.52 216.705 105.48C216.812 105.427 216.912 105.4 217.005 105.4C217.125 105.4 217.232 105.427 217.325 105.48C217.432 105.533 217.485 105.6 217.485 105.68ZM223.588 99.96C223.415 100.16 223.168 100.36 222.848 100.56C222.528 100.747 222.208 100.92 221.888 101.08C221.568 101.24 221.288 101.38 221.048 101.5C220.808 101.607 220.688 101.68 220.688 101.72C220.688 101.76 220.715 101.88 220.768 102.08C220.822 102.28 220.882 102.52 220.948 102.8C221.028 103.067 221.108 103.347 221.188 103.64C221.268 103.933 221.335 104.193 221.388 104.42C221.415 104.553 221.448 104.727 221.488 104.94C221.528 105.153 221.562 105.367 221.588 105.58C221.628 105.793 221.662 105.987 221.688 106.16C221.715 106.32 221.728 106.407 221.728 106.42C221.728 106.62 221.695 106.827 221.628 107.04C221.562 107.253 221.455 107.36 221.308 107.36C221.228 107.36 221.155 107.327 221.088 107.26C221.022 107.193 220.962 107.12 220.908 107.04C220.855 106.947 220.815 106.86 220.788 106.78C220.762 106.7 220.748 106.64 220.748 106.6C220.748 106.573 220.748 106.533 220.748 106.48C220.762 106.427 220.768 106.367 220.768 106.3C220.768 106.047 220.728 105.68 220.648 105.2C220.622 105.053 220.568 104.827 220.488 104.52C220.408 104.213 220.328 103.9 220.248 103.58C220.155 103.207 220.048 102.8 219.928 102.36C219.875 102.173 219.842 102.08 219.828 102.08C219.735 102.08 219.575 102.14 219.348 102.26C219.135 102.367 218.888 102.507 218.608 102.68C218.328 102.84 218.035 103.02 217.728 103.22C217.422 103.407 217.135 103.587 216.868 103.76C216.602 103.92 216.375 104.06 216.188 104.18C215.988 104.287 215.868 104.34 215.828 104.34C215.655 104.34 215.515 104.28 215.408 104.16C215.302 104.04 215.248 103.907 215.248 103.76C215.248 103.68 215.362 103.567 215.588 103.42C215.802 103.26 216.075 103.087 216.408 102.9C216.728 102.713 217.082 102.52 217.468 102.32C217.842 102.12 218.188 101.94 218.508 101.78C218.842 101.62 219.115 101.487 219.328 101.38C219.555 101.273 219.668 101.22 219.668 101.22C219.548 100.607 219.448 100.06 219.368 99.58C219.302 99.1667 219.235 98.7867 219.168 98.44C219.115 98.0933 219.088 97.9067 219.088 97.88C219.088 97.7067 219.122 97.58 219.188 97.5C219.268 97.4067 219.355 97.36 219.448 97.36C219.595 97.36 219.688 97.46 219.728 97.66C219.875 98.38 220.008 99.02 220.128 99.58C220.262 100.14 220.388 100.593 220.508 100.94C220.628 100.913 220.835 100.84 221.128 100.72C221.422 100.587 221.728 100.447 222.048 100.3C222.368 100.153 222.655 100.027 222.908 99.92C223.175 99.8 223.328 99.74 223.368 99.74C223.448 99.74 223.495 99.7667 223.508 99.82C223.535 99.8733 223.562 99.92 223.588 99.96ZM225.855 99.8C225.855 99.8267 225.808 99.88 225.715 99.96C225.622 100.04 225.508 100.127 225.375 100.22C225.255 100.3 225.128 100.373 224.995 100.44C224.862 100.507 224.755 100.54 224.675 100.54C224.622 100.54 224.548 100.54 224.455 100.54C224.375 100.527 224.288 100.5 224.195 100.46C224.115 100.42 224.042 100.367 223.975 100.3C223.908 100.22 223.875 100.12 223.875 100C223.875 99.8133 223.942 99.64 224.075 99.48C224.208 99.3067 224.382 99.22 224.595 99.22C224.635 99.22 224.722 99.24 224.855 99.28C225.002 99.3067 225.148 99.3467 225.295 99.4C225.442 99.4533 225.568 99.5133 225.675 99.58C225.795 99.6467 225.855 99.72 225.855 99.8ZM226.515 107.28C226.515 107.373 226.442 107.453 226.295 107.52C226.162 107.587 226.062 107.62 225.995 107.62C225.862 107.62 225.742 107.533 225.635 107.36C225.528 107.187 225.435 106.987 225.355 106.76C225.275 106.533 225.208 106.32 225.155 106.12C225.102 105.907 225.062 105.76 225.035 105.68C224.995 105.547 224.942 105.387 224.875 105.2C224.808 105.013 224.742 104.833 224.675 104.66C224.622 104.487 224.575 104.333 224.535 104.2C224.495 104.067 224.475 103.993 224.475 103.98C224.475 103.793 224.508 103.62 224.575 103.46C224.655 103.3 224.748 103.22 224.855 103.22C224.975 103.22 225.102 103.313 225.235 103.5C225.368 103.687 225.495 103.927 225.615 104.22C225.748 104.5 225.868 104.813 225.975 105.16C226.082 105.493 226.175 105.813 226.255 106.12C226.335 106.413 226.395 106.673 226.435 106.9C226.488 107.113 226.515 107.24 226.515 107.28ZM231.36 104.68C231.36 104.973 231.32 105.253 231.24 105.52C231.16 105.787 231.054 106.02 230.92 106.22C230.787 106.42 230.627 106.58 230.44 106.7C230.267 106.807 230.074 106.86 229.86 106.86C229.487 106.86 229.194 106.753 228.98 106.54C228.767 106.327 228.6 106.08 228.48 105.8C228.374 105.52 228.3 105.24 228.26 104.96C228.234 104.667 228.22 104.447 228.22 104.3C228.22 104.06 228.254 103.793 228.32 103.5C228.4 103.193 228.5 102.913 228.62 102.66C228.754 102.407 228.9 102.193 229.06 102.02C229.22 101.847 229.387 101.76 229.56 101.76C229.6 101.76 229.66 101.773 229.74 101.8C229.834 101.827 229.927 101.867 230.02 101.92C230.114 101.973 230.194 102.04 230.26 102.12C230.34 102.2 230.394 102.293 230.42 102.4C230.567 102.413 230.714 102.467 230.86 102.56C231.007 102.653 231.087 102.727 231.1 102.78C231.207 103.127 231.274 103.473 231.3 103.82C231.34 104.167 231.36 104.453 231.36 104.68ZM230.46 104.32C230.46 104.12 230.44 103.913 230.4 103.7C230.36 103.473 230.28 103.247 230.16 103.02C230.134 103.033 230.1 103.04 230.06 103.04C230.007 103.04 229.96 103.033 229.92 103.02C229.894 103.007 229.867 103 229.84 103C229.68 103 229.554 103.047 229.46 103.14C229.367 103.22 229.294 103.333 229.24 103.48C229.2 103.613 229.174 103.76 229.16 103.92C229.147 104.08 229.14 104.233 229.14 104.38C229.14 104.527 229.147 104.693 229.16 104.88C229.174 105.053 229.2 105.22 229.24 105.38C229.294 105.54 229.36 105.68 229.44 105.8C229.52 105.907 229.627 105.96 229.76 105.96C229.894 105.96 230.007 105.893 230.1 105.76C230.194 105.613 230.267 105.447 230.32 105.26C230.374 105.073 230.407 104.893 230.42 104.72C230.447 104.533 230.46 104.4 230.46 104.32ZM239.386 106.54C239.386 106.62 239.359 106.7 239.306 106.78C239.253 106.86 239.186 106.933 239.106 107C239.039 107.067 238.959 107.127 238.866 107.18C238.786 107.22 238.713 107.24 238.646 107.24C238.419 107.24 238.126 107.193 237.766 107.1C237.419 106.993 237.139 106.833 236.926 106.62C236.699 106.393 236.499 106.127 236.326 105.82C236.153 105.5 235.959 105.033 235.746 104.42C235.599 105.007 235.426 105.587 235.226 106.16C235.039 106.733 234.733 107.26 234.306 107.74C234.279 107.767 234.239 107.78 234.186 107.78C234.093 107.78 233.993 107.733 233.886 107.64C233.779 107.547 233.726 107.453 233.726 107.36C233.726 107.267 233.713 107.053 233.686 106.72C233.673 106.373 233.653 105.993 233.626 105.58C233.599 105.153 233.573 104.727 233.546 104.3C233.533 103.86 233.526 103.5 233.526 103.22C233.526 103.087 233.533 102.913 233.546 102.7C233.559 102.473 233.599 102.28 233.666 102.12C233.679 102.093 233.726 102.04 233.806 101.96C233.899 101.88 233.999 101.84 234.106 101.84C234.199 101.84 234.253 101.9 234.266 102.02C234.279 102.14 234.286 102.273 234.286 102.42V105.58C234.286 105.647 234.293 105.74 234.306 105.86C234.333 105.98 234.366 106.067 234.406 106.12C234.553 105.8 234.686 105.427 234.806 105C234.939 104.56 235.066 104.147 235.186 103.76C235.306 103.36 235.426 103.027 235.546 102.76C235.666 102.48 235.786 102.34 235.906 102.34C236.039 102.34 236.146 102.367 236.226 102.42C236.306 102.473 236.373 102.58 236.426 102.74C236.493 103.127 236.546 103.473 236.586 103.78C236.626 104.073 236.673 104.34 236.726 104.58C236.793 104.82 236.879 105.047 236.986 105.26C237.106 105.46 237.266 105.647 237.466 105.82C237.653 105.993 237.859 106.12 238.086 106.2C238.326 106.28 238.533 106.32 238.706 106.32C238.786 106.32 238.873 106.307 238.966 106.28C239.059 106.24 239.126 106.22 239.166 106.22C239.219 106.22 239.266 106.267 239.306 106.36C239.359 106.453 239.386 106.513 239.386 106.54ZM180.095 124.42C180.095 124.607 180.041 124.8 179.935 125C179.841 125.2 179.721 125.4 179.575 125.6C179.428 125.8 179.268 125.993 179.095 126.18C178.921 126.353 178.761 126.507 178.615 126.64C178.255 126.96 177.881 127.267 177.495 127.56C177.121 127.84 176.728 128.093 176.315 128.32C175.915 128.547 175.495 128.727 175.055 128.86C174.615 128.993 174.155 129.06 173.675 129.06C172.221 129.06 171.495 128.313 171.495 126.82C171.495 126.673 171.555 126.387 171.675 125.96C171.795 125.533 171.948 125.047 172.135 124.5C172.321 123.953 172.541 123.38 172.795 122.78C173.048 122.18 173.308 121.633 173.575 121.14C173.841 120.633 174.101 120.22 174.355 119.9C174.621 119.58 174.868 119.42 175.095 119.42C175.241 119.42 175.348 119.467 175.415 119.56C175.495 119.653 175.535 119.753 175.535 119.86C175.521 119.94 175.428 120.113 175.255 120.38C175.081 120.633 174.901 120.893 174.715 121.16C174.688 121.2 174.641 121.267 174.575 121.36C174.508 121.453 174.441 121.547 174.375 121.64C174.295 121.747 174.215 121.86 174.135 121.98C174.081 122.073 173.961 122.313 173.775 122.7C173.601 123.073 173.415 123.513 173.215 124.02C173.015 124.513 172.835 125.033 172.675 125.58C172.515 126.113 172.435 126.58 172.435 126.98C172.435 127.207 172.481 127.387 172.575 127.52C172.681 127.653 172.801 127.753 172.935 127.82C173.081 127.887 173.228 127.933 173.375 127.96C173.535 127.973 173.675 127.98 173.795 127.98C174.288 127.98 174.808 127.873 175.355 127.66C175.915 127.433 176.448 127.14 176.955 126.78C177.461 126.42 177.928 126.007 178.355 125.54C178.781 125.06 179.115 124.567 179.355 124.06C179.408 123.967 179.461 123.907 179.515 123.88C179.581 123.853 179.641 123.84 179.695 123.84C179.801 123.84 179.895 123.913 179.975 124.06C180.055 124.207 180.095 124.327 180.095 124.42ZM188.204 125.3C188.271 125.367 188.304 125.407 188.304 125.42C188.304 125.447 188.264 125.527 188.184 125.66C188.117 125.793 188.024 125.933 187.904 126.08C187.784 126.227 187.651 126.36 187.504 126.48C187.371 126.587 187.237 126.64 187.104 126.64C186.824 126.64 186.597 126.587 186.424 126.48C186.251 126.36 186.104 126.213 185.984 126.04C185.877 125.867 185.791 125.68 185.724 125.48C185.671 125.267 185.624 125.067 185.584 124.88C185.557 124.787 185.531 124.74 185.504 124.74C185.464 124.74 185.384 124.887 185.264 125.18C185.144 125.46 185.011 125.773 184.864 126.12C184.731 126.453 184.597 126.767 184.464 127.06C184.344 127.34 184.264 127.48 184.224 127.48C183.984 127.48 183.777 127.38 183.604 127.18C183.444 126.967 183.311 126.727 183.204 126.46C183.111 126.18 183.037 125.9 182.984 125.62C182.931 125.327 182.897 125.1 182.884 124.94C182.844 124.58 182.757 123.98 182.624 123.14C182.491 122.3 182.377 121.28 182.284 120.08C182.257 119.827 182.224 119.6 182.184 119.4C182.157 119.187 182.124 118.953 182.084 118.7C182.044 118.447 182.011 118.16 181.984 117.84C181.957 117.52 181.944 117.127 181.944 116.66C181.944 116.633 181.951 116.547 181.964 116.4C181.977 116.253 181.997 116.093 182.024 115.92C182.051 115.747 182.091 115.593 182.144 115.46C182.211 115.327 182.284 115.26 182.364 115.26C182.457 115.26 182.544 115.32 182.624 115.44C182.704 115.547 182.771 115.673 182.824 115.82C182.891 115.967 182.937 116.107 182.964 116.24C182.991 116.373 183.004 116.467 183.004 116.52C183.004 116.72 182.991 116.907 182.964 117.08C182.937 117.253 182.924 117.413 182.924 117.56C182.924 117.76 182.937 118.013 182.964 118.32C183.004 118.627 183.051 118.94 183.104 119.26C183.157 119.58 183.204 119.893 183.244 120.2C183.284 120.493 183.317 120.733 183.344 120.92C183.344 120.933 183.357 121.027 183.384 121.2C183.411 121.373 183.437 121.593 183.464 121.86C183.504 122.113 183.537 122.393 183.564 122.7C183.604 122.993 183.644 123.287 183.684 123.58C183.724 123.86 183.757 124.113 183.784 124.34C183.824 124.553 183.851 124.707 183.864 124.8C183.864 124.84 183.871 124.9 183.884 124.98C183.911 125.047 183.931 125.127 183.944 125.22C183.971 125.313 183.997 125.4 184.024 125.48C184.051 125.56 184.084 125.62 184.124 125.66C184.204 125.5 184.304 125.253 184.424 124.92C184.557 124.587 184.691 124.247 184.824 123.9C184.971 123.553 185.104 123.253 185.224 123C185.357 122.733 185.471 122.6 185.564 122.6C185.671 122.6 185.757 122.62 185.824 122.66C185.891 122.7 185.977 122.733 186.084 122.76C186.217 122.813 186.284 122.887 186.284 122.98C186.284 123.06 186.297 123.16 186.324 123.28C186.351 123.44 186.391 123.653 186.444 123.92C186.511 124.173 186.584 124.427 186.664 124.68C186.744 124.92 186.837 125.127 186.944 125.3C187.051 125.473 187.157 125.56 187.264 125.56C187.317 125.56 187.391 125.493 187.484 125.36C187.577 125.213 187.704 125.133 187.864 125.12C187.891 125.12 187.937 125.14 188.004 125.18C188.071 125.207 188.137 125.247 188.204 125.3ZM198.98 124.84C198.98 125.08 198.866 125.38 198.64 125.74C198.426 126.087 198.133 126.427 197.76 126.76C197.386 127.093 196.953 127.38 196.46 127.62C195.966 127.847 195.453 127.96 194.92 127.96C194.68 127.96 194.426 127.92 194.16 127.84C193.893 127.76 193.633 127.647 193.38 127.5C193.126 127.34 192.9 127.153 192.7 126.94C192.5 126.713 192.353 126.46 192.26 126.18C192.18 126.26 192.08 126.393 191.96 126.58C191.853 126.767 191.733 126.96 191.6 127.16C191.466 127.347 191.32 127.513 191.16 127.66C191 127.793 190.833 127.86 190.66 127.86C190.486 127.86 190.34 127.773 190.22 127.6C190.113 127.413 190.026 127.213 189.96 127C189.893 126.773 189.846 126.56 189.82 126.36C189.793 126.16 189.78 126.047 189.78 126.02C189.78 125.86 189.826 125.56 189.92 125.12C190.013 124.667 190.153 124.2 190.34 123.72C190.526 123.24 190.76 122.813 191.04 122.44C191.333 122.067 191.673 121.88 192.06 121.88C192.206 121.88 192.3 121.947 192.34 122.08C192.393 122.2 192.42 122.32 192.42 122.44V123.04C192.486 123.093 192.553 123.133 192.62 123.16C192.7 123.173 192.766 123.2 192.82 123.24C192.886 123.267 192.933 123.313 192.96 123.38C193 123.447 193.02 123.553 193.02 123.7C193.02 123.793 193.013 123.88 193 123.96C192.986 124.027 192.98 124.093 192.98 124.16C192.98 124.507 193.006 124.847 193.06 125.18C193.113 125.513 193.22 125.813 193.38 126.08C193.54 126.333 193.76 126.547 194.04 126.72C194.32 126.88 194.693 126.96 195.16 126.96C195.746 126.96 196.24 126.84 196.64 126.6C197.053 126.347 197.393 126.073 197.66 125.78C197.94 125.473 198.16 125.2 198.32 124.96C198.48 124.707 198.613 124.58 198.72 124.58C198.893 124.58 198.98 124.667 198.98 124.84ZM191.96 123.96C191.96 123.907 191.946 123.86 191.92 123.82C191.893 123.767 191.88 123.72 191.88 123.68C191.88 123.627 191.893 123.58 191.92 123.54C191.946 123.5 191.96 123.447 191.96 123.38C191.96 123.34 191.946 123.313 191.92 123.3C191.893 123.273 191.88 123.247 191.88 123.22C191.76 123.247 191.633 123.36 191.5 123.56C191.38 123.76 191.26 123.993 191.14 124.26C191.033 124.527 190.946 124.8 190.88 125.08C190.813 125.347 190.78 125.567 190.78 125.74C190.78 125.833 190.806 125.987 190.86 126.2C190.913 126.413 190.973 126.553 191.04 126.62C191.266 126.153 191.473 125.7 191.66 125.26C191.86 124.82 191.96 124.387 191.96 123.96ZM203.946 122.9C203.946 122.993 203.906 123.073 203.826 123.14C203.746 123.193 203.652 123.24 203.546 123.28C203.439 123.32 203.332 123.353 203.226 123.38C203.119 123.393 203.032 123.4 202.966 123.4C202.766 123.4 202.632 123.387 202.566 123.36C202.499 123.333 202.446 123.32 202.406 123.32C202.072 123.32 201.806 123.347 201.606 123.4C201.406 123.453 201.246 123.54 201.126 123.66C201.019 123.78 200.946 123.933 200.906 124.12C200.879 124.293 200.866 124.507 200.866 124.76C200.866 125.187 200.879 125.527 200.906 125.78C200.946 126.033 200.979 126.24 201.006 126.4C201.046 126.56 201.079 126.687 201.106 126.78C201.146 126.86 201.166 126.94 201.166 127.02C201.166 127.127 201.106 127.24 200.986 127.36C200.879 127.48 200.779 127.54 200.686 127.54C200.526 127.54 200.379 127.4 200.246 127.12C200.126 126.827 200.019 126.487 199.926 126.1C199.846 125.7 199.779 125.307 199.726 124.92C199.672 124.533 199.646 124.24 199.646 124.04C199.646 123.813 199.666 123.6 199.706 123.4C199.746 123.187 199.799 123.007 199.866 122.86C199.932 122.7 200.006 122.573 200.086 122.48C200.166 122.387 200.246 122.34 200.326 122.34C200.392 122.34 200.446 122.367 200.486 122.42C200.526 122.46 200.559 122.513 200.586 122.58C200.612 122.633 200.639 122.687 200.666 122.74C200.706 122.78 200.752 122.8 200.806 122.8C200.926 122.8 201.119 122.74 201.386 122.62C201.652 122.5 201.979 122.44 202.366 122.44C202.726 122.44 202.992 122.453 203.166 122.48C203.352 122.493 203.532 122.533 203.706 122.6C203.746 122.613 203.792 122.647 203.846 122.7C203.912 122.74 203.946 122.807 203.946 122.9ZM210.854 119.96C210.681 120.16 210.434 120.36 210.114 120.56C209.794 120.747 209.474 120.92 209.154 121.08C208.834 121.24 208.554 121.38 208.314 121.5C208.074 121.607 207.954 121.68 207.954 121.72C207.954 121.76 207.981 121.88 208.034 122.08C208.087 122.28 208.147 122.52 208.214 122.8C208.294 123.067 208.374 123.347 208.454 123.64C208.534 123.933 208.601 124.193 208.654 124.42C208.681 124.553 208.714 124.727 208.754 124.94C208.794 125.153 208.827 125.367 208.854 125.58C208.894 125.793 208.927 125.987 208.954 126.16C208.981 126.32 208.994 126.407 208.994 126.42C208.994 126.62 208.961 126.827 208.894 127.04C208.827 127.253 208.721 127.36 208.574 127.36C208.494 127.36 208.421 127.327 208.354 127.26C208.287 127.193 208.227 127.12 208.174 127.04C208.121 126.947 208.081 126.86 208.054 126.78C208.027 126.7 208.014 126.64 208.014 126.6C208.014 126.573 208.014 126.533 208.014 126.48C208.027 126.427 208.034 126.367 208.034 126.3C208.034 126.047 207.994 125.68 207.914 125.2C207.887 125.053 207.834 124.827 207.754 124.52C207.674 124.213 207.594 123.9 207.514 123.58C207.421 123.207 207.314 122.8 207.194 122.36C207.141 122.173 207.107 122.08 207.094 122.08C207.001 122.08 206.841 122.14 206.614 122.26C206.401 122.367 206.154 122.507 205.874 122.68C205.594 122.84 205.301 123.02 204.994 123.22C204.687 123.407 204.401 123.587 204.134 123.76C203.867 123.92 203.641 124.06 203.454 124.18C203.254 124.287 203.134 124.34 203.094 124.34C202.921 124.34 202.781 124.28 202.674 124.16C202.567 124.04 202.514 123.907 202.514 123.76C202.514 123.68 202.627 123.567 202.854 123.42C203.067 123.26 203.341 123.087 203.674 122.9C203.994 122.713 204.347 122.52 204.734 122.32C205.107 122.12 205.454 121.94 205.774 121.78C206.107 121.62 206.381 121.487 206.594 121.38C206.821 121.273 206.934 121.22 206.934 121.22C206.814 120.607 206.714 120.06 206.634 119.58C206.567 119.167 206.501 118.787 206.434 118.44C206.381 118.093 206.354 117.907 206.354 117.88C206.354 117.707 206.387 117.58 206.454 117.5C206.534 117.407 206.621 117.36 206.714 117.36C206.861 117.36 206.954 117.46 206.994 117.66C207.141 118.38 207.274 119.02 207.394 119.58C207.527 120.14 207.654 120.593 207.774 120.94C207.894 120.913 208.101 120.84 208.394 120.72C208.687 120.587 208.994 120.447 209.314 120.3C209.634 120.153 209.921 120.027 210.174 119.92C210.441 119.8 210.594 119.74 210.634 119.74C210.714 119.74 210.761 119.767 210.774 119.82C210.801 119.873 210.827 119.92 210.854 119.96ZM226.222 126.54C226.222 126.62 226.195 126.7 226.142 126.78C226.089 126.86 226.022 126.933 225.942 127C225.875 127.067 225.795 127.127 225.702 127.18C225.622 127.22 225.549 127.24 225.482 127.24C225.255 127.24 224.962 127.193 224.602 127.1C224.255 126.993 223.975 126.833 223.762 126.62C223.535 126.393 223.335 126.127 223.162 125.82C222.989 125.5 222.795 125.033 222.582 124.42C222.435 125.007 222.262 125.587 222.062 126.16C221.875 126.733 221.569 127.26 221.142 127.74C221.115 127.767 221.075 127.78 221.022 127.78C220.929 127.78 220.829 127.733 220.722 127.64C220.615 127.547 220.562 127.453 220.562 127.36C220.562 127.267 220.549 127.053 220.522 126.72C220.509 126.373 220.489 125.993 220.462 125.58C220.435 125.153 220.409 124.727 220.382 124.3C220.369 123.86 220.362 123.5 220.362 123.22C220.362 123.087 220.369 122.913 220.382 122.7C220.395 122.473 220.435 122.28 220.502 122.12C220.515 122.093 220.562 122.04 220.642 121.96C220.735 121.88 220.835 121.84 220.942 121.84C221.035 121.84 221.089 121.9 221.102 122.02C221.115 122.14 221.122 122.273 221.122 122.42V125.58C221.122 125.647 221.129 125.74 221.142 125.86C221.169 125.98 221.202 126.067 221.242 126.12C221.389 125.8 221.522 125.427 221.642 125C221.775 124.56 221.902 124.147 222.022 123.76C222.142 123.36 222.262 123.027 222.382 122.76C222.502 122.48 222.622 122.34 222.742 122.34C222.875 122.34 222.982 122.367 223.062 122.42C223.142 122.473 223.209 122.58 223.262 122.74C223.329 123.127 223.382 123.473 223.422 123.78C223.462 124.073 223.509 124.34 223.562 124.58C223.629 124.82 223.715 125.047 223.822 125.26C223.942 125.46 224.102 125.647 224.302 125.82C224.489 125.993 224.695 126.12 224.922 126.2C225.162 126.28 225.369 126.32 225.542 126.32C225.622 126.32 225.709 126.307 225.802 126.28C225.895 126.24 225.962 126.22 226.002 126.22C226.055 126.22 226.102 126.267 226.142 126.36C226.195 126.453 226.222 126.513 226.222 126.54ZM230.833 124.68C230.833 124.973 230.793 125.253 230.713 125.52C230.633 125.787 230.526 126.02 230.393 126.22C230.26 126.42 230.1 126.58 229.913 126.7C229.74 126.807 229.546 126.86 229.333 126.86C228.96 126.86 228.666 126.753 228.453 126.54C228.24 126.327 228.073 126.08 227.953 125.8C227.846 125.52 227.773 125.24 227.733 124.96C227.706 124.667 227.693 124.447 227.693 124.3C227.693 124.06 227.726 123.793 227.793 123.5C227.873 123.193 227.973 122.913 228.093 122.66C228.226 122.407 228.373 122.193 228.533 122.02C228.693 121.847 228.86 121.76 229.033 121.76C229.073 121.76 229.133 121.773 229.213 121.8C229.306 121.827 229.4 121.867 229.493 121.92C229.586 121.973 229.666 122.04 229.733 122.12C229.813 122.2 229.866 122.293 229.893 122.4C230.04 122.413 230.186 122.467 230.333 122.56C230.48 122.653 230.56 122.727 230.573 122.78C230.68 123.127 230.746 123.473 230.773 123.82C230.813 124.167 230.833 124.453 230.833 124.68ZM229.933 124.32C229.933 124.12 229.913 123.913 229.873 123.7C229.833 123.473 229.753 123.247 229.633 123.02C229.606 123.033 229.573 123.04 229.533 123.04C229.48 123.04 229.433 123.033 229.393 123.02C229.366 123.007 229.34 123 229.313 123C229.153 123 229.026 123.047 228.933 123.14C228.84 123.22 228.766 123.333 228.713 123.48C228.673 123.613 228.646 123.76 228.633 123.92C228.62 124.08 228.613 124.233 228.613 124.38C228.613 124.527 228.62 124.693 228.633 124.88C228.646 125.053 228.673 125.22 228.713 125.38C228.766 125.54 228.833 125.68 228.913 125.8C228.993 125.907 229.1 125.96 229.233 125.96C229.366 125.96 229.48 125.893 229.573 125.76C229.666 125.613 229.74 125.447 229.793 125.26C229.846 125.073 229.88 124.893 229.893 124.72C229.92 124.533 229.933 124.4 229.933 124.32ZM238.159 119.96C237.985 120.16 237.739 120.36 237.419 120.56C237.099 120.747 236.779 120.92 236.459 121.08C236.139 121.24 235.859 121.38 235.619 121.5C235.379 121.607 235.259 121.68 235.259 121.72C235.259 121.76 235.285 121.88 235.339 122.08C235.392 122.28 235.452 122.52 235.519 122.8C235.599 123.067 235.679 123.347 235.759 123.64C235.839 123.933 235.905 124.193 235.959 124.42C235.985 124.553 236.019 124.727 236.059 124.94C236.099 125.153 236.132 125.367 236.159 125.58C236.199 125.793 236.232 125.987 236.259 126.16C236.285 126.32 236.299 126.407 236.299 126.42C236.299 126.62 236.265 126.827 236.199 127.04C236.132 127.253 236.025 127.36 235.879 127.36C235.799 127.36 235.725 127.327 235.659 127.26C235.592 127.193 235.532 127.12 235.479 127.04C235.425 126.947 235.385 126.86 235.359 126.78C235.332 126.7 235.319 126.64 235.319 126.6C235.319 126.573 235.319 126.533 235.319 126.48C235.332 126.427 235.339 126.367 235.339 126.3C235.339 126.047 235.299 125.68 235.219 125.2C235.192 125.053 235.139 124.827 235.059 124.52C234.979 124.213 234.899 123.9 234.819 123.58C234.725 123.207 234.619 122.8 234.499 122.36C234.445 122.173 234.412 122.08 234.399 122.08C234.305 122.08 234.145 122.14 233.919 122.26C233.705 122.367 233.459 122.507 233.179 122.68C232.899 122.84 232.605 123.02 232.299 123.22C231.992 123.407 231.705 123.587 231.439 123.76C231.172 123.92 230.945 124.06 230.759 124.18C230.559 124.287 230.439 124.34 230.399 124.34C230.225 124.34 230.085 124.28 229.979 124.16C229.872 124.04 229.819 123.907 229.819 123.76C229.819 123.68 229.932 123.567 230.159 123.42C230.372 123.26 230.645 123.087 230.979 122.9C231.299 122.713 231.652 122.52 232.039 122.32C232.412 122.12 232.759 121.94 233.079 121.78C233.412 121.62 233.685 121.487 233.899 121.38C234.125 121.273 234.239 121.22 234.239 121.22C234.119 120.607 234.019 120.06 233.939 119.58C233.872 119.167 233.805 118.787 233.739 118.44C233.685 118.093 233.659 117.907 233.659 117.88C233.659 117.707 233.692 117.58 233.759 117.5C233.839 117.407 233.925 117.36 234.019 117.36C234.165 117.36 234.259 117.46 234.299 117.66C234.445 118.38 234.579 119.02 234.699 119.58C234.832 120.14 234.959 120.593 235.079 120.94C235.199 120.913 235.405 120.84 235.699 120.72C235.992 120.587 236.299 120.447 236.619 120.3C236.939 120.153 237.225 120.027 237.479 119.92C237.745 119.8 237.899 119.74 237.939 119.74C238.019 119.74 238.065 119.767 238.079 119.82C238.105 119.873 238.132 119.92 238.159 119.96ZM182.381 149.88C182.394 149.933 182.401 149.98 182.401 150.02C182.401 150.073 182.401 150.113 182.401 150.14C182.401 150.273 182.367 150.367 182.301 150.42C182.247 150.473 182.134 150.5 181.961 150.5C181.801 150.5 181.694 150.473 181.641 150.42C181.561 150.34 181.454 150.133 181.321 149.8C181.187 149.467 181.047 149.073 180.901 148.62C180.754 148.167 180.607 147.68 180.461 147.16C180.327 146.64 180.207 146.147 180.101 145.68C179.954 145.747 179.754 145.82 179.501 145.9C179.247 145.967 178.987 146.033 178.721 146.1C178.414 146.167 178.094 146.24 177.761 146.32C177.641 146.893 177.547 147.387 177.481 147.8C177.427 148.2 177.374 148.533 177.321 148.8C177.281 149.053 177.221 149.24 177.141 149.36C177.074 149.493 176.961 149.56 176.801 149.56C176.694 149.56 176.601 149.5 176.521 149.38C176.441 149.26 176.401 149.08 176.401 148.84C176.401 148.72 176.434 148.44 176.501 148C176.567 147.56 176.641 147.073 176.721 146.54C176.801 145.993 176.881 145.453 176.961 144.92C177.041 144.387 177.094 143.967 177.121 143.66C177.134 143.5 177.174 143.24 177.241 142.88C177.321 142.52 177.401 142.153 177.481 141.78C177.561 141.393 177.641 141.047 177.721 140.74C177.801 140.433 177.854 140.26 177.881 140.22C178.094 139.727 178.227 139.22 178.281 138.7C178.347 138.18 178.394 137.707 178.421 137.28C178.461 136.84 178.521 136.487 178.601 136.22C178.681 135.94 178.847 135.8 179.101 135.8C179.167 135.8 179.234 135.853 179.301 135.96C179.381 136.067 179.454 136.193 179.521 136.34C179.587 136.487 179.641 136.633 179.681 136.78C179.721 136.913 179.747 137.02 179.761 137.1C179.774 137.18 179.787 137.34 179.801 137.58C179.827 137.82 179.847 138.087 179.861 138.38C179.887 138.66 179.907 138.94 179.921 139.22C179.947 139.487 179.967 139.693 179.981 139.84C180.021 140.28 180.081 140.773 180.161 141.32C180.254 141.867 180.347 142.38 180.441 142.86C180.534 143.34 180.621 143.747 180.701 144.08C180.781 144.4 180.841 144.56 180.881 144.56C180.934 144.56 181.001 144.547 181.081 144.52C181.174 144.493 181.261 144.48 181.341 144.48C181.447 144.48 181.501 144.533 181.501 144.64C181.501 144.747 181.474 144.833 181.421 144.9C181.367 144.967 181.307 145.027 181.241 145.08C181.187 145.133 181.134 145.18 181.081 145.22C181.041 145.26 181.021 145.307 181.021 145.36C181.021 145.467 181.081 145.74 181.201 146.18L181.521 147.36C181.547 147.467 181.607 147.647 181.701 147.9C181.794 148.153 181.887 148.42 181.981 148.7C182.087 148.967 182.181 149.213 182.261 149.44C182.341 149.68 182.381 149.827 182.381 149.88ZM177.941 145.3C178.021 145.3 178.167 145.28 178.381 145.24C178.594 145.187 178.814 145.127 179.041 145.06C179.267 144.993 179.467 144.927 179.641 144.86C179.814 144.793 179.901 144.74 179.901 144.7C179.901 144.66 179.874 144.56 179.821 144.4C179.781 144.227 179.727 144.013 179.661 143.76C179.607 143.493 179.547 143.193 179.481 142.86C179.414 142.527 179.354 142.173 179.301 141.8C179.274 141.56 179.241 141.233 179.201 140.82C179.161 140.407 179.121 140 179.081 139.6C179.041 139.187 179.007 138.833 178.981 138.54C178.954 138.247 178.941 138.1 178.941 138.1C178.941 138.1 178.921 138.2 178.881 138.4C178.841 138.587 178.794 138.8 178.741 139.04C178.701 139.267 178.661 139.487 178.621 139.7C178.594 139.9 178.581 140.013 178.581 140.04V140.6C178.581 140.627 178.561 140.747 178.521 140.96C178.494 141.16 178.454 141.42 178.401 141.74C178.347 142.047 178.287 142.387 178.221 142.76C178.167 143.12 178.114 143.467 178.061 143.8C178.007 144.133 177.961 144.433 177.921 144.7C177.894 144.953 177.881 145.127 177.881 145.22C177.881 145.273 177.901 145.3 177.941 145.3ZM188.106 141.96C188.106 142 188.072 142.173 188.006 142.48C187.939 142.787 187.872 143.133 187.806 143.52C187.766 143.747 187.699 144.087 187.606 144.54C187.526 144.98 187.486 145.653 187.486 146.56C187.486 146.587 187.479 146.66 187.466 146.78C187.466 146.887 187.446 147 187.406 147.12C187.379 147.24 187.332 147.353 187.266 147.46C187.199 147.553 187.099 147.6 186.966 147.6C186.846 147.6 186.712 147.547 186.566 147.44C186.232 147.2 185.926 146.92 185.646 146.6C185.366 146.28 185.126 145.933 184.926 145.56C184.726 145.173 184.572 144.773 184.466 144.36C184.359 143.947 184.306 143.527 184.306 143.1C184.306 143.047 184.339 143 184.406 142.96C184.486 142.907 184.546 142.88 184.586 142.88C184.786 142.88 184.939 142.993 185.046 143.22C185.166 143.447 185.279 143.72 185.386 144.04C185.506 144.36 185.639 144.7 185.786 145.06C185.946 145.407 186.179 145.707 186.486 145.96C186.526 145.907 186.559 145.807 186.586 145.66C186.612 145.513 186.632 145.387 186.646 145.28C186.659 145.187 186.679 145.007 186.706 144.74C186.732 144.46 186.759 144.167 186.786 143.86C186.826 143.553 186.852 143.26 186.866 142.98C186.892 142.7 186.906 142.507 186.906 142.4C186.906 142.32 186.912 142.227 186.926 142.12C186.939 142.013 186.966 141.913 187.006 141.82C187.059 141.727 187.126 141.647 187.206 141.58C187.286 141.513 187.392 141.48 187.526 141.48C187.592 141.48 187.706 141.527 187.866 141.62C188.026 141.7 188.106 141.813 188.106 141.96ZM199.37 144.84C199.37 145.08 199.257 145.38 199.03 145.74C198.817 146.087 198.524 146.427 198.15 146.76C197.777 147.093 197.344 147.38 196.85 147.62C196.357 147.847 195.844 147.96 195.31 147.96C195.07 147.96 194.817 147.92 194.55 147.84C194.284 147.76 194.024 147.647 193.77 147.5C193.517 147.34 193.29 147.153 193.09 146.94C192.89 146.713 192.744 146.46 192.65 146.18C192.57 146.26 192.47 146.393 192.35 146.58C192.244 146.767 192.124 146.96 191.99 147.16C191.857 147.347 191.71 147.513 191.55 147.66C191.39 147.793 191.224 147.86 191.05 147.86C190.877 147.86 190.73 147.773 190.61 147.6C190.504 147.413 190.417 147.213 190.35 147C190.284 146.773 190.237 146.56 190.21 146.36C190.184 146.16 190.17 146.047 190.17 146.02C190.17 145.86 190.217 145.56 190.31 145.12C190.404 144.667 190.544 144.2 190.73 143.72C190.917 143.24 191.15 142.813 191.43 142.44C191.724 142.067 192.064 141.88 192.45 141.88C192.597 141.88 192.69 141.947 192.73 142.08C192.784 142.2 192.81 142.32 192.81 142.44V143.04C192.877 143.093 192.944 143.133 193.01 143.16C193.09 143.173 193.157 143.2 193.21 143.24C193.277 143.267 193.324 143.313 193.35 143.38C193.39 143.447 193.41 143.553 193.41 143.7C193.41 143.793 193.404 143.88 193.39 143.96C193.377 144.027 193.37 144.093 193.37 144.16C193.37 144.507 193.397 144.847 193.45 145.18C193.504 145.513 193.61 145.813 193.77 146.08C193.93 146.333 194.15 146.547 194.43 146.72C194.71 146.88 195.084 146.96 195.55 146.96C196.137 146.96 196.63 146.84 197.03 146.6C197.444 146.347 197.784 146.073 198.05 145.78C198.33 145.473 198.55 145.2 198.71 144.96C198.87 144.707 199.004 144.58 199.11 144.58C199.284 144.58 199.37 144.667 199.37 144.84ZM192.35 143.96C192.35 143.907 192.337 143.86 192.31 143.82C192.284 143.767 192.27 143.72 192.27 143.68C192.27 143.627 192.284 143.58 192.31 143.54C192.337 143.5 192.35 143.447 192.35 143.38C192.35 143.34 192.337 143.313 192.31 143.3C192.284 143.273 192.27 143.247 192.27 143.22C192.15 143.247 192.024 143.36 191.89 143.56C191.77 143.76 191.65 143.993 191.53 144.26C191.424 144.527 191.337 144.8 191.27 145.08C191.204 145.347 191.17 145.567 191.17 145.74C191.17 145.833 191.197 145.987 191.25 146.2C191.304 146.413 191.364 146.553 191.43 146.62C191.657 146.153 191.864 145.7 192.05 145.26C192.25 144.82 192.35 144.387 192.35 143.96ZM200.796 139.8C200.796 139.827 200.75 139.88 200.656 139.96C200.563 140.04 200.45 140.127 200.316 140.22C200.196 140.3 200.07 140.373 199.936 140.44C199.803 140.507 199.696 140.54 199.616 140.54C199.563 140.54 199.49 140.54 199.396 140.54C199.316 140.527 199.23 140.5 199.136 140.46C199.056 140.42 198.983 140.367 198.916 140.3C198.85 140.22 198.816 140.12 198.816 140C198.816 139.813 198.883 139.64 199.016 139.48C199.15 139.307 199.323 139.22 199.536 139.22C199.576 139.22 199.663 139.24 199.796 139.28C199.943 139.307 200.09 139.347 200.236 139.4C200.383 139.453 200.51 139.513 200.616 139.58C200.736 139.647 200.796 139.72 200.796 139.8ZM201.456 147.28C201.456 147.373 201.383 147.453 201.236 147.52C201.103 147.587 201.003 147.62 200.936 147.62C200.803 147.62 200.683 147.533 200.576 147.36C200.47 147.187 200.376 146.987 200.296 146.76C200.216 146.533 200.15 146.32 200.096 146.12C200.043 145.907 200.003 145.76 199.976 145.68C199.936 145.547 199.883 145.387 199.816 145.2C199.75 145.013 199.683 144.833 199.616 144.66C199.563 144.487 199.516 144.333 199.476 144.2C199.436 144.067 199.416 143.993 199.416 143.98C199.416 143.793 199.45 143.62 199.516 143.46C199.596 143.3 199.69 143.22 199.796 143.22C199.916 143.22 200.043 143.313 200.176 143.5C200.31 143.687 200.436 143.927 200.556 144.22C200.69 144.5 200.81 144.813 200.916 145.16C201.023 145.493 201.116 145.813 201.196 146.12C201.276 146.413 201.336 146.673 201.376 146.9C201.43 147.113 201.456 147.24 201.456 147.28ZM205.382 148.42C205.382 148.527 205.342 148.607 205.262 148.66C205.182 148.713 205.089 148.74 204.982 148.74C204.862 148.74 204.735 148.627 204.602 148.4C204.482 148.173 204.362 147.887 204.242 147.54C204.122 147.193 204.009 146.82 203.902 146.42C203.795 146.007 203.702 145.627 203.622 145.28C203.542 144.92 203.475 144.62 203.422 144.38C203.382 144.14 203.362 144.007 203.362 143.98C203.362 143.927 203.335 143.787 203.282 143.56C203.242 143.333 203.182 142.98 203.102 142.5C203.035 142.02 202.955 141.4 202.862 140.64C202.782 139.867 202.695 138.913 202.602 137.78C202.602 137.66 202.622 137.507 202.662 137.32C202.702 137.133 202.795 137.04 202.942 137.04C203.129 137.04 203.269 137.167 203.362 137.42C203.469 137.673 203.549 137.987 203.602 138.36C203.669 138.733 203.715 139.127 203.742 139.54C203.769 139.94 203.802 140.293 203.842 140.6C203.895 141.027 203.942 141.413 203.982 141.76C204.035 142.107 204.082 142.453 204.122 142.8C204.175 143.133 204.235 143.487 204.302 143.86C204.382 144.233 204.475 144.647 204.582 145.1L205.382 148.42ZM216.441 144.84C216.441 145.08 216.327 145.38 216.101 145.74C215.887 146.087 215.594 146.427 215.221 146.76C214.847 147.093 214.414 147.38 213.921 147.62C213.427 147.847 212.914 147.96 212.381 147.96C212.141 147.96 211.887 147.92 211.621 147.84C211.354 147.76 211.094 147.647 210.841 147.5C210.587 147.34 210.361 147.153 210.161 146.94C209.961 146.713 209.814 146.46 209.721 146.18C209.641 146.26 209.541 146.393 209.421 146.58C209.314 146.767 209.194 146.96 209.061 147.16C208.927 147.347 208.781 147.513 208.621 147.66C208.461 147.793 208.294 147.86 208.121 147.86C207.947 147.86 207.801 147.773 207.681 147.6C207.574 147.413 207.487 147.213 207.421 147C207.354 146.773 207.307 146.56 207.281 146.36C207.254 146.16 207.241 146.047 207.241 146.02C207.241 145.86 207.287 145.56 207.381 145.12C207.474 144.667 207.614 144.2 207.801 143.72C207.987 143.24 208.221 142.813 208.501 142.44C208.794 142.067 209.134 141.88 209.521 141.88C209.667 141.88 209.761 141.947 209.801 142.08C209.854 142.2 209.881 142.32 209.881 142.44V143.04C209.947 143.093 210.014 143.133 210.081 143.16C210.161 143.173 210.227 143.2 210.281 143.24C210.347 143.267 210.394 143.313 210.421 143.38C210.461 143.447 210.481 143.553 210.481 143.7C210.481 143.793 210.474 143.88 210.461 143.96C210.447 144.027 210.441 144.093 210.441 144.16C210.441 144.507 210.467 144.847 210.521 145.18C210.574 145.513 210.681 145.813 210.841 146.08C211.001 146.333 211.221 146.547 211.501 146.72C211.781 146.88 212.154 146.96 212.621 146.96C213.207 146.96 213.701 146.84 214.101 146.6C214.514 146.347 214.854 146.073 215.121 145.78C215.401 145.473 215.621 145.2 215.781 144.96C215.941 144.707 216.074 144.58 216.181 144.58C216.354 144.58 216.441 144.667 216.441 144.84ZM209.421 143.96C209.421 143.907 209.407 143.86 209.381 143.82C209.354 143.767 209.341 143.72 209.341 143.68C209.341 143.627 209.354 143.58 209.381 143.54C209.407 143.5 209.421 143.447 209.421 143.38C209.421 143.34 209.407 143.313 209.381 143.3C209.354 143.273 209.341 143.247 209.341 143.22C209.221 143.247 209.094 143.36 208.961 143.56C208.841 143.76 208.721 143.993 208.601 144.26C208.494 144.527 208.407 144.8 208.341 145.08C208.274 145.347 208.241 145.567 208.241 145.74C208.241 145.833 208.267 145.987 208.321 146.2C208.374 146.413 208.434 146.553 208.501 146.62C208.727 146.153 208.934 145.7 209.121 145.26C209.321 144.82 209.421 144.387 209.421 143.96ZM221.447 145.02C221.447 145.62 221.373 146.147 221.227 146.6C221.093 147.053 220.927 147.433 220.727 147.74C220.527 148.033 220.32 148.253 220.107 148.4C219.907 148.547 219.74 148.62 219.607 148.62C219.42 148.62 219.24 148.54 219.067 148.38C218.893 148.207 218.807 148.047 218.807 147.9C218.807 147.687 218.893 147.58 219.067 147.58C219.133 147.58 219.2 147.607 219.267 147.66C219.333 147.7 219.393 147.733 219.447 147.76C219.673 147.573 219.887 147.267 220.087 146.84C220.3 146.413 220.407 145.807 220.407 145.02C220.407 144.7 220.373 144.413 220.307 144.16C220.24 143.907 220.16 143.693 220.067 143.52C219.987 143.347 219.9 143.213 219.807 143.12C219.713 143.027 219.647 142.98 219.607 142.98C219.473 142.98 219.34 143.113 219.207 143.38C219.087 143.647 218.98 143.953 218.887 144.3C218.793 144.633 218.713 144.967 218.647 145.3C218.593 145.62 218.567 145.84 218.567 145.96C218.58 146.04 218.593 146.113 218.607 146.18C218.62 146.247 218.633 146.313 218.647 146.38C218.66 146.447 218.667 146.513 218.667 146.58C218.667 146.833 218.58 147.06 218.407 147.26C218.233 147.46 218.067 147.56 217.907 147.56C217.827 147.56 217.76 147.507 217.707 147.4C217.667 147.28 217.633 147.133 217.607 146.96C217.58 146.787 217.553 146.607 217.527 146.42C217.513 146.233 217.493 146.067 217.467 145.92C217.36 145.68 217.22 145.3 217.047 144.78C216.873 144.26 216.687 143.707 216.487 143.12C216.3 142.52 216.12 141.94 215.947 141.38C215.787 140.82 215.667 140.373 215.587 140.04C215.4 139.32 215.26 138.693 215.167 138.16C215.06 137.613 214.98 137.14 214.927 136.74C214.86 136.327 214.82 135.973 214.807 135.68C214.793 135.387 214.787 135.14 214.787 134.94C214.787 134.82 214.84 134.727 214.947 134.66C215.04 134.593 215.127 134.56 215.207 134.56C215.327 134.56 215.413 134.587 215.467 134.64C215.52 134.68 215.56 134.773 215.587 134.92C215.6 135.067 215.62 135.28 215.647 135.56C215.66 135.84 215.693 136.213 215.747 136.68C215.773 136.907 215.82 137.22 215.887 137.62C215.967 138.02 216.067 138.467 216.187 138.96C216.307 139.453 216.433 139.973 216.567 140.52C216.713 141.053 216.86 141.567 217.007 142.06C217.167 142.553 217.32 143.007 217.467 143.42C217.627 143.833 217.773 144.16 217.907 144.4C218.027 143.92 218.173 143.487 218.347 143.1C218.493 142.78 218.673 142.487 218.887 142.22C219.1 141.94 219.36 141.8 219.667 141.8C219.787 141.8 219.947 141.853 220.147 141.96C220.347 142.067 220.54 142.247 220.727 142.5C220.927 142.753 221.093 143.087 221.227 143.5C221.373 143.913 221.447 144.42 221.447 145.02ZM225.968 148.42C225.968 148.527 225.928 148.607 225.848 148.66C225.768 148.713 225.674 148.74 225.568 148.74C225.448 148.74 225.321 148.627 225.188 148.4C225.068 148.173 224.948 147.887 224.828 147.54C224.708 147.193 224.594 146.82 224.488 146.42C224.381 146.007 224.288 145.627 224.208 145.28C224.128 144.92 224.061 144.62 224.008 144.38C223.968 144.14 223.948 144.007 223.948 143.98C223.948 143.927 223.921 143.787 223.868 143.56C223.828 143.333 223.768 142.98 223.688 142.5C223.621 142.02 223.541 141.4 223.448 140.64C223.368 139.867 223.281 138.913 223.188 137.78C223.188 137.66 223.208 137.507 223.248 137.32C223.288 137.133 223.381 137.04 223.528 137.04C223.714 137.04 223.854 137.167 223.948 137.42C224.054 137.673 224.134 137.987 224.188 138.36C224.254 138.733 224.301 139.127 224.328 139.54C224.354 139.94 224.388 140.293 224.428 140.6C224.481 141.027 224.528 141.413 224.568 141.76C224.621 142.107 224.668 142.453 224.708 142.8C224.761 143.133 224.821 143.487 224.888 143.86C224.968 144.233 225.061 144.647 225.168 145.1L225.968 148.42ZM233.087 146.9C233.1 146.927 233.107 146.967 233.107 147.02C233.107 147.1 233.047 147.22 232.927 147.38C232.887 147.433 232.8 147.52 232.667 147.64C232.533 147.76 232.353 147.88 232.127 148C231.9 148.12 231.62 148.227 231.287 148.32C230.967 148.413 230.587 148.46 230.147 148.46C229.84 148.46 229.54 148.393 229.247 148.26C228.953 148.113 228.693 147.907 228.467 147.64C228.24 147.36 228.053 147.02 227.907 146.62C227.76 146.207 227.687 145.727 227.687 145.18C227.687 144.66 227.753 144.173 227.887 143.72C228.02 143.267 228.187 142.867 228.387 142.52C228.6 142.173 228.833 141.9 229.087 141.7C229.34 141.5 229.587 141.4 229.827 141.4C230.04 141.4 230.253 141.447 230.467 141.54C230.693 141.62 230.893 141.727 231.067 141.86C231.253 141.993 231.4 142.147 231.507 142.32C231.613 142.48 231.667 142.647 231.667 142.82C231.667 143.02 231.573 143.227 231.387 143.44C231.213 143.653 231 143.853 230.747 144.04C230.493 144.213 230.24 144.36 229.987 144.48C229.733 144.587 229.533 144.64 229.387 144.64C229.307 144.64 229.233 144.607 229.167 144.54C229.113 144.46 229.087 144.367 229.087 144.26C229.087 144.073 229.167 143.927 229.327 143.82C229.5 143.713 229.687 143.62 229.887 143.54C230.087 143.447 230.267 143.34 230.427 143.22C230.6 143.1 230.687 142.933 230.687 142.72C230.687 142.693 230.653 142.627 230.587 142.52C230.52 142.413 230.34 142.36 230.047 142.36C229.913 142.36 229.76 142.44 229.587 142.6C229.413 142.747 229.247 142.953 229.087 143.22C228.927 143.473 228.793 143.78 228.687 144.14C228.58 144.487 228.527 144.867 228.527 145.28C228.527 145.627 228.587 145.94 228.707 146.22C228.84 146.5 229.007 146.74 229.207 146.94C229.407 147.127 229.64 147.273 229.907 147.38C230.173 147.487 230.447 147.54 230.727 147.54C230.927 147.54 231.14 147.5 231.367 147.42C231.607 147.327 231.827 147.233 232.027 147.14C232.24 147.033 232.42 146.94 232.567 146.86C232.727 146.767 232.827 146.72 232.867 146.72C232.907 146.72 232.947 146.74 232.987 146.78C233.04 146.82 233.073 146.86 233.087 146.9Z" fill="#0AE500"/>
<rect x="108" y="40" width="6" height="7" rx="3" fill="#0094D3"/>
<rect x="107" y="39" width="6" height="7" rx="3" fill="#9AF99A"/>
<rect x="108" y="2" width="6" height="35" rx="3" fill="#0094D3"/>
<rect x="107" y="1" width="6" height="35" rx="3" fill="#9AF99A"/>
<rect x="106" width="6" height="35" rx="3" fill="#00D1D1"/>
<rect x="107.35" y="1.35" width="3.3" height="32.3" rx="1.65" fill="#00B0F0" stroke="white" stroke-width="0.7"/>
<rect x="106.35" y="38.35" width="5.3" height="6.3" rx="2.65" fill="#00B0F0" stroke="white" stroke-width="0.7"/>
</svg>
