<svg width="35" height="28" viewBox="0 0 35 28" fill="none" xmlns="http://www.w3.org/2000/svg">
<path d="M27.9985 24.8451C27.9985 29.0516 34.9922 29.0516 34.9922 24.8451L34.9922 8.54453C34.9922 7.3789 35.5579 0.215906 27.0744 0.00476521C26.9405 0.00143131 26.8703 0.165176 26.9698 0.254921C26.9756 0.260196 26.9821 0.265088 26.9887 0.269383C27.9984 0.9262 27.9985 1.84417 27.9985 3.02331L27.9985 3.02341L27.9985 24.8451Z" fill="black"/>
<path d="M21.766 16.5726C19.5945 16.4883 14.2822 6.41608 10.1629 0.127776C10.1099 0.0469387 10.0208 0 9.92417 0C6.98263 0 8.376 7.08775 8.06635 11.9947C8.06635 12.1136 8.09931 12.2318 8.16054 12.3338C12.4619 19.498 16.6195 23.0345 21.8452 16.7198C21.8873 16.6704 21.8309 16.5751 21.766 16.5726Z" fill="black"/>
<path d="M18.3743 10.3485C19.4992 12.07 22.8209 16.9516 23.6174 15.8361L26.7688 11.8952C26.9106 11.7179 26.9878 11.4928 26.988 11.2658C26.9955 4.0884 27.215 2.1888 25.3997 1.26829C25.0198 1.07562 24.5667 1.22647 24.307 1.5642L18.4241 9.21516C18.1692 9.54672 18.1455 9.99834 18.3743 10.3485Z" fill="black"/>
<path d="M7.00154 24.8451C7.00154 29.0516 0.00783506 29.0516 0.00783506 24.8451V8.54453C0.00783506 7.3789 -0.557918 0.215906 7.92557 0.00476516C8.05953 0.00143126 8.12973 0.165176 8.03022 0.254921C8.02438 0.260196 8.01794 0.265088 8.01134 0.269383C7.00155 0.9262 7.00154 1.84417 7.00152 3.02331V3.02341L7.00154 24.8451Z" fill="black"/>
</svg>
