<svg width="80" height="80" viewBox="0 0 80 80" fill="none" xmlns="http://www.w3.org/2000/svg">
<circle cx="40" cy="40" r="40" fill="#F2F2F2"/>
<path d="M53.3313 54.4601C53.3313 60.0689 62.6562 60.0689 62.6562 54.4601L62.6562 32.7261C62.6562 31.1719 63.4106 21.6212 52.0993 21.3397C51.9207 21.3353 51.8271 21.5536 51.9597 21.6733C51.9675 21.6803 51.9761 21.6868 51.9849 21.6926C53.3313 22.5683 53.3313 23.7923 53.3313 25.3644L53.3313 25.3646L53.3313 54.4601Z" fill="black"/>
<path d="M45.0214 43.4302C42.126 43.3178 35.043 29.8882 29.5505 21.5037C29.4799 21.396 29.3611 21.3334 29.2322 21.3334C25.3102 21.3334 27.168 30.7837 26.7552 37.3262C26.7552 37.4848 26.7991 37.6425 26.8807 37.7784C32.6159 47.3307 38.1593 52.0461 45.1269 43.6265C45.1831 43.5605 45.1079 43.4335 45.0214 43.4302Z" fill="black"/>
<path d="M40.373 34.9376C41.7321 37.0317 46.3962 43.9798 47.4899 42.4481L51.7648 37.1022C51.9065 36.9249 51.9837 36.6988 51.9839 36.4718C51.9918 26.5313 52.3141 24.118 49.6531 22.9227C49.2645 22.7481 48.8137 22.8931 48.554 23.2308L40.4241 33.8041C40.1692 34.1356 40.1453 34.5868 40.373 34.9376Z" fill="black"/>
<path d="M25.3354 54.4601C25.3354 60.0689 16.0104 60.0689 16.0104 54.4601V32.7261C16.0104 31.1719 15.2561 21.6212 26.5674 21.3397C26.746 21.3353 26.8396 21.5536 26.707 21.6733C26.6992 21.6803 26.6906 21.6868 26.6818 21.6926C25.3354 22.5683 25.3354 23.7923 25.3354 25.3644V25.3646L25.3354 54.4601Z" fill="black"/>
</svg>
