<svg width="298" height="211" viewBox="0 0 298 211" fill="none" xmlns="http://www.w3.org/2000/svg">
<path d="M2.05972 44.9293C1.71511 42.0992 3.92385 39.6052 6.77489 39.6052H195.381C197.718 39.6052 199.708 41.3053 200.073 43.6137L220.3 171.59C220.719 174.236 218.868 176.704 216.21 177.043L25.9193 201.351C23.3062 201.684 20.9207 199.828 20.6022 197.213L2.05972 44.9293Z" fill="black" stroke="#969696" stroke-width="2.5"/>
<path d="M6.72603 48.3767C6.56584 47.1605 7.52514 46.0675 8.74818 46.0727L194.435 46.8658C195.401 46.8699 196.212 47.5692 196.361 48.5257L214.96 167.906C215.134 169.028 214.343 170.088 213.218 170.239L28.0416 195.148C26.9598 195.293 25.9776 194.542 25.835 193.459L6.72603 48.3767Z" fill="#2C3040"/>
<path d="M59.2151 200.714L24.0146 207.2C23.4323 207.308 23.3533 208.11 23.9034 208.329L30.4758 210.943C30.5692 210.98 30.6705 210.993 30.7702 210.98L161 194L290.524 173.5L297.073 171.623C297.326 171.55 297.5 171.319 297.5 171.055V166.682C297.5 166.322 297.181 166.046 296.825 166.098L59.2151 200.714Z" fill="#C0C0C0"/>
<path d="M62 193.851C62 193.598 62.1879 193.386 62.4382 193.354L297.438 164.07C297.737 164.033 298 164.266 298 164.566V168.528C298 168.779 297.815 168.99 297.567 169.024L62.5673 200.923C62.2671 200.964 62 200.73 62 200.428V193.851Z" fill="url(#paint0_linear_1332_517)"/>
<path d="M23 202.279C23 202.043 23.1646 201.84 23.395 201.79L61.395 193.63C61.7063 193.563 62 193.8 62 194.119V200.582C62 200.824 61.8266 201.031 61.5883 201.074L23.5883 207.894C23.2817 207.949 23 207.714 23 207.402V202.279Z" fill="url(#paint1_linear_1332_517)"/>
<path d="M39.6541 60.1925C39.4989 58.9724 40.4666 57.8713 41.6908 57.875L175.512 58.276C176.473 58.2788 177.277 58.9745 177.42 59.9292L190.69 148.018C190.859 149.14 190.064 150.205 188.94 150.362L55.4698 168.976C54.3894 169.127 53.4126 168.379 53.2749 167.296L39.6541 60.1925Z" fill="#9BEBEB"/>
<rect width="9.88163" height="46.3921" transform="matrix(0.989323 -0.125817 0.130549 0.993797 81.0858 100.838)" fill="white"/>
<rect width="9.88163" height="59.2788" transform="matrix(0.989323 -0.125817 0.130549 0.993797 91.973 86.4324)" fill="#00D3D3"/>
<rect width="9.88163" height="46.3921" transform="matrix(0.989323 -0.125817 0.130549 0.993797 106.225 97.6407)" fill="white"/>
<rect width="9.88163" height="59.2788" transform="matrix(0.989323 -0.125817 0.130549 0.993797 117.112 83.2354)" fill="#00D3D3"/>
<rect width="9.88163" height="46.3921" transform="matrix(0.989323 -0.125817 0.130549 0.993797 131.363 94.4435)" fill="white"/>
<rect width="9.88163" height="59.2788" transform="matrix(0.989323 -0.125817 0.130549 0.993797 142.25 80.0392)" fill="#00D3D3"/>
<rect width="2.90407" height="68.6896" transform="matrix(0.989323 -0.125817 0.130549 0.993797 71.6682 83.8065)" fill="#00D1D1"/>
<rect width="3.43952" height="79.053" transform="matrix(0.130549 0.993797 -0.989323 0.125817 161.274 138.382)" fill="#00D1D1"/>
<path d="M177.824 122.091C174.671 122.457 171.979 119.831 172.268 116.67L180.265 29.0315C180.471 26.7754 182.168 24.9396 184.401 24.5575L221.838 18.1514C225.001 17.6101 227.848 20.1464 227.674 23.3508L222.824 112.68C222.692 115.111 220.827 117.094 218.408 117.375L177.824 122.091Z" fill="#2C3040"/>
<path d="M173.959 118.764C171.121 119.094 168.699 116.73 168.958 113.885L176.956 26.2473C177.142 24.2168 178.669 22.5646 180.679 22.2207L218.116 15.8146C220.962 15.3275 223.525 17.6102 223.368 20.4941L218.518 109.823C218.399 112.012 216.721 113.796 214.544 114.049L173.959 118.764Z" fill="white" stroke="#2C3040"/>
<path d="M169.207 112.908L177.205 25.27C177.38 23.3523 178.823 21.792 180.721 21.4672L218.158 15.061C220.846 14.601 223.266 16.7569 223.118 19.4806L218.268 108.81C218.156 110.876 216.571 112.562 214.515 112.801L173.93 117.516C171.25 117.827 168.962 115.595 169.207 112.908Z" fill="white" stroke="#2C3040" stroke-width="1.5"/>
<path d="M220.865 57.038L183.273 58.9257L175.492 91.0517L214.534 91.1844L220.865 57.038Z" fill="#9BEBEB"/>
<path d="M221.865 29.038L184.273 30.9257L176.492 63.0517L215.534 63.1844L221.865 29.038Z" fill="#9BEBEB"/>
<rect width="3.60094" height="15.3016" transform="matrix(0.999639 -0.0268531 0.0190949 0.999818 185.491 60.9727)" fill="#F9F9F9"/>
<rect width="3.60094" height="19.552" transform="matrix(0.999639 -0.0268531 0.0190949 0.999818 190.039 56.5988)" fill="#00D3D3"/>
<rect width="3.60094" height="15.3016" transform="matrix(0.999639 -0.0268531 0.0190949 0.999818 194.748 60.7241)" fill="#F9F9F9"/>
<rect width="3.60094" height="19.552" transform="matrix(0.999639 -0.0268531 0.0190949 0.999818 199.295 56.3501)" fill="#00D3D3"/>
<rect width="3.60094" height="15.3016" transform="matrix(0.999639 -0.0268531 0.0190949 0.999818 204.004 60.4753)" fill="#F9F9F9"/>
<rect width="3.60094" height="19.552" transform="matrix(0.999639 -0.0268531 0.0190949 0.999818 208.551 56.1016)" fill="#00D3D3"/>
<rect width="1.13446" height="28.8075" transform="matrix(0.0190949 0.999818 -0.999639 0.0268531 213.044 75.8225)" fill="#00D1D1"/>
<defs>
<linearGradient id="paint0_linear_1332_517" x1="223.814" y1="153.64" x2="199.203" y2="186.276" gradientUnits="userSpaceOnUse">
<stop offset="0.0992084" stop-color="#222222"/>
<stop offset="0.595136" stop-color="#2A2828"/>
</linearGradient>
<linearGradient id="paint1_linear_1332_517" x1="50" y1="182" x2="98" y2="182.5" gradientUnits="userSpaceOnUse">
<stop offset="0.0135889" stop-color="#C0C0C0"/>
<stop offset="0.601974" stop-color="#3A3A3A" stop-opacity="0.9"/>
</linearGradient>
</defs>
</svg>
