<svg width="298" height="194" viewBox="0 0 298 194" fill="none" xmlns="http://www.w3.org/2000/svg">
<path d="M2.05972 27.9292C1.71511 25.0991 3.92385 22.6051 6.77489 22.6051H195.381C197.718 22.6051 199.708 24.3051 200.073 26.6135L220.3 154.59C220.719 157.236 218.868 159.704 216.21 160.043L25.9193 184.35C23.3062 184.684 20.9207 182.828 20.6022 180.213L2.05972 27.9292Z" fill="black" stroke="#969696" stroke-width="2.5"/>
<path d="M6.72603 31.3767C6.56584 30.1605 7.52514 29.0675 8.74818 29.0727L194.435 29.8658C195.401 29.8699 196.212 30.5692 196.361 31.5257L214.96 150.906C215.134 152.028 214.343 153.088 213.218 153.239L28.0416 178.148C26.9598 178.293 25.9776 177.542 25.835 176.459L6.72603 31.3767Z" fill="#2C3040"/>
<path d="M162.176 135.048C185.151 112.116 131.994 54.9047 148.63 54.8578L69.4928 49.2675C53.9584 49.3113 95.7779 100.317 82.5967 125.769C81.338 128.2 82.6179 131.87 85.2692 132.006L160.057 135.847C160.828 135.887 161.615 135.608 162.176 135.048Z" fill="#00B0F0" fill-opacity="0.8"/>
<path d="M98.2685 159.418C126.826 174.179 159.366 101.495 165.24 117.936L142.506 37.719C137.028 22.3847 108.355 84.5766 81.3492 81.0475C78.7335 80.7057 75.8073 83.2998 76.5594 85.9535L96.8787 157.652C97.0933 158.409 97.5946 159.07 98.2685 159.418Z" fill="white" fill-opacity="0.8"/>
<path d="M174.824 128.091C171.671 128.457 168.979 125.831 169.268 122.67L177.265 35.0316C177.471 32.7755 179.168 30.9397 181.401 30.5576L218.838 24.1515C222.001 23.6102 224.848 26.1466 224.674 29.351L219.824 118.68C219.692 121.112 217.827 123.094 215.408 123.375L174.824 128.091Z" fill="#2C3040"/>
<path d="M170.959 124.765C168.121 125.094 165.699 122.731 165.958 119.886L173.956 32.2474C174.142 30.2169 175.669 28.5648 177.679 28.2209L215.116 21.8147C217.962 21.3276 220.525 23.6103 220.368 26.4942L215.518 115.823C215.399 118.012 213.721 119.796 211.544 120.049L170.959 124.765Z" fill="white" stroke="black"/>
<path d="M172.744 91.3458C165.016 81.3914 187.263 56.6363 180.429 56.9274L213.735 52.9921C219.6 52.7422 205.216 71.2813 205.974 82.8538C206.144 85.4467 204.487 89.2815 201.889 89.5371L174.97 92.1852C174.127 92.2681 173.261 92.0116 172.744 91.3458Z" fill="#00B0F0" fill-opacity="0.8"/>
<path d="M203.706 101.007C191.078 106.034 177.078 76.5423 174.469 83.3702L184.761 49.5248C186.949 43.8027 197.135 63.5886 207.809 67.1889C210.384 68.0572 213.698 71.2083 212.912 73.7905L205.142 99.3405C204.919 100.075 204.424 100.721 203.706 101.007Z" fill="#D4D4D4" fill-opacity="0.8"/>
<path d="M59.2151 183.714L24.0146 190.2C23.4323 190.308 23.3533 191.11 23.9034 191.329L30.4758 193.943C30.5692 193.98 30.6705 193.993 30.7702 193.98L161 177L290.524 156.5L297.073 154.623C297.326 154.55 297.5 154.319 297.5 154.055V149.682C297.5 149.322 297.181 149.046 296.825 149.098L59.2151 183.714Z" fill="#C0C0C0"/>
<path d="M62 176.851C62 176.598 62.1879 176.386 62.4382 176.354L297.438 147.07C297.737 147.033 298 147.266 298 147.566V151.528C298 151.779 297.815 151.99 297.567 152.024L62.5673 183.923C62.2671 183.964 62 183.73 62 183.428V176.851Z" fill="url(#paint0_linear_857_107)"/>
<path d="M23 185.279C23 185.043 23.1646 184.84 23.395 184.79L61.395 176.63C61.7063 176.563 62 176.8 62 177.119V183.582C62 183.824 61.8266 184.031 61.5883 184.074L23.5883 190.894C23.2817 190.949 23 190.714 23 190.402V185.279Z" fill="url(#paint1_linear_857_107)"/>
<path d="M198.399 80.6413C198.561 82.4003 201.9 82.0933 201.738 80.3344L201.112 73.5185C201.067 73.0307 201.062 70.0066 196.994 70.2958C196.937 70.2998 196.916 70.3735 196.964 70.4047C196.966 70.4064 196.969 70.4079 196.972 70.4092C197.48 70.6395 197.515 71.0235 197.561 71.5167L197.561 71.5168L198.399 80.6413Z" fill="black"/>
<path d="M195.113 77.4553C194.08 77.5346 191.151 73.5482 188.938 71.0934C188.907 71.0587 188.862 71.0415 188.815 71.0458C187.411 71.1749 188.349 74.0774 188.389 76.1428C188.394 76.1923 188.414 76.2398 188.445 76.2781C190.775 79.0866 192.897 80.3845 195.149 77.5139C195.167 77.4922 195.141 77.4532 195.113 77.4553Z" fill="black"/>
<path d="M193.578 75.363C194.338 76.1751 195.673 77.4947 195.961 77.0666L197.174 75.4654C197.325 75.2665 197.396 75.0171 197.373 74.7686C197.153 72.291 197.132 71.4016 196.526 71.023C196.196 70.8171 195.781 71.0146 195.553 71.3289L193.513 74.1331C193.24 74.5092 193.261 75.0234 193.578 75.363Z" fill="black"/>
<path d="M188.375 81.5628C188.537 83.3217 185.198 83.6287 185.036 81.8697L184.41 75.0538C184.365 74.566 183.819 71.5917 187.87 71.1345C187.927 71.1281 187.962 71.1966 187.92 71.236C187.918 71.2381 187.916 71.2401 187.913 71.2419C187.456 71.561 187.491 71.9449 187.536 72.4382L187.536 72.4383L188.375 81.5628Z" fill="black"/>
<defs>
<linearGradient id="paint0_linear_857_107" x1="223.814" y1="136.64" x2="199.203" y2="169.276" gradientUnits="userSpaceOnUse">
<stop offset="0.0992084" stop-color="#222222"/>
<stop offset="0.595136" stop-color="#2A2828"/>
</linearGradient>
<linearGradient id="paint1_linear_857_107" x1="50" y1="165" x2="98" y2="165.5" gradientUnits="userSpaceOnUse">
<stop offset="0.0135889" stop-color="#C0C0C0"/>
<stop offset="0.601974" stop-color="#3A3A3A" stop-opacity="0.9"/>
</linearGradient>
</defs>
</svg>
