<svg width="269" height="146" viewBox="0 0 269 146" fill="none" xmlns="http://www.w3.org/2000/svg">
<ellipse cx="134.5" cy="136.025" rx="134.5" ry="9.97515" fill="#023700"/>
<mask id="path-2-inside-1_823_128" fill="white">
<rect x="39.2817" width="161.407" height="102.247" rx="5"/>
</mask>
<rect x="39.2817" width="161.407" height="102.247" rx="5" fill="white" stroke="#2E313E" stroke-width="12" mask="url(#path-2-inside-1_823_128)"/>
<path d="M39.2817 113.53V101.421C39.2817 100.869 39.7294 100.421 40.2817 100.421H162.924C163.476 100.421 163.924 100.869 163.924 101.421V113.53C163.924 114.082 163.476 114.53 162.924 114.53H138.579C137.953 114.53 137.481 115.098 137.595 115.713L139.923 128.236C140.012 128.71 140.425 129.053 140.907 129.053H142.675C143.227 129.053 143.675 129.501 143.675 130.053V131.373C143.675 131.925 143.227 132.373 142.675 132.373H92.4784C91.9261 132.373 91.4784 131.925 91.4784 131.373V130.053C91.4784 129.501 91.9261 129.053 92.4784 129.053H97.7942C98.299 129.053 98.7246 128.677 98.7867 128.176L100.339 115.653C100.413 115.056 99.9474 114.53 99.3463 114.53H40.2817C39.7294 114.53 39.2817 114.082 39.2817 113.53Z" fill="#ECECEC" stroke="black" stroke-width="0.3"/>
<ellipse cx="119.985" cy="112.289" rx="3.58683" ry="3.65167" fill="black"/>
<path d="M48.3736 131.095C48.3736 133.515 46.1186 136.025 43.89 136.025C41.6615 136.025 39.4065 133.515 39.4065 131.095C39.4065 128.675 41.6615 127.809 43.89 127.809C46.1186 127.809 48.3736 128.675 48.3736 131.095Z" fill="#53350A"/>
<path d="M38.193 117.17L38.5373 116.814L31.8645 108.277C31.7464 106.831 32.3302 105.493 33.3702 104.345C34.429 103.176 35.9513 102.218 37.6415 101.572C39.3309 100.927 41.1729 100.601 42.8613 100.684C44.4258 100.761 45.8398 101.187 46.8849 102.017L40.4402 106.356L40.6596 106.801L47.3421 104.551C49.9946 104.488 52.616 105.481 54.4675 106.716C55.3976 107.336 56.1199 108.008 56.5524 108.623C56.9708 109.218 57.0756 109.693 56.9521 110.016L52.9809 112.689L53.2003 113.134L58.3126 111.413C59.2986 115.876 58.9671 120.249 57.6377 123.565C56.2818 126.947 53.9107 129.187 50.8731 129.384H33.003C29.7547 128.387 27.2322 125.722 26.4552 122.387C25.6878 119.092 26.6171 115.112 30.3032 111.415L38.193 117.17Z" fill="#0AE500" stroke="#0AE500" stroke-width="0.5"/>
<path d="M53.7538 123.244C50.6153 131.367 57.3406 129.6 44.3384 130.091C25.5075 130.801 33.1295 129.998 26.4042 119.592C26.4042 115.559 34.9157 119.229 42.0966 119.229C64.5143 117.404 53.7538 119.211 53.7538 123.244Z" fill="#00710B"/>
<path d="M58.6857 118.679C59.5824 121.875 55.9956 129.178 51.512 130.091C48.0454 130.091 47.8771 124.148 47.8771 122.131C47.8771 120.114 50.6874 118.479 54.154 118.479C57.6207 118.479 58.2373 118.479 58.6857 118.679Z" fill="#00710B"/>
<path d="M36.5991 120.962C35.7505 126.639 37.4958 130.547 32.5639 129.634C28.9771 129.634 24.1624 122.331 26.4042 119.592C27.3009 117.31 33.1324 120.962 36.5991 120.962C40.0658 120.962 36.5991 118.945 36.5991 120.962Z" fill="#00710B"/>
<path d="M52.3606 124.413C51.512 130.091 56.7168 130.091 45.6834 130.091C42.2167 130.091 42.0485 124.148 42.0485 122.131C42.0485 120.114 45.3552 122.331 48.8219 122.331C52.2885 122.331 52.3606 122.396 52.3606 124.413Z" fill="#00710B"/>
<mask id="path-9-inside-2_823_128" fill="white">
<rect x="141.506" y="24.6488" width="89.6707" height="107.724" rx="6"/>
</mask>
<rect x="141.506" y="24.6488" width="89.6707" height="107.724" rx="6" fill="white" stroke="#2E313E" stroke-width="16" mask="url(#path-9-inside-2_823_128)"/>
<path d="M247.801 46.5588H214.553C212.344 46.5588 210.553 48.3497 210.553 50.5588V128.373C210.553 130.582 212.344 132.373 214.553 132.373H247.801C250.01 132.373 251.801 130.582 251.801 128.373V50.5588C251.801 48.3497 250.01 46.5588 247.801 46.5588Z" fill="white" stroke="#2E313E" stroke-width="4"/>
<path d="M221.219 48.4094C221.534 46.8038 222.942 45.6459 224.578 45.6459H238.036C239.755 45.6459 241.208 46.9204 241.431 48.6248C241.699 50.6745 240.104 52.4928 238.036 52.4928H224.578C222.422 52.4928 220.803 50.5246 221.219 48.4094Z" fill="#2E313E"/>
<rect x="225.797" y="48.8411" width="8.07036" height="1.82584" rx="0.912918" fill="white"/>
<rect x="234.764" y="48.8411" width="1.79341" height="1.82584" rx="0.896706" fill="white"/>
<ellipse cx="187.687" cy="129.178" rx="3.13847" ry="3.19521" fill="#D9D9D9"/>
<path d="M236.933 95.3962C236.933 97.576 240.493 97.576 240.493 95.3962L240.493 86.9494C240.493 86.3455 240.781 82.6345 236.464 82.5242C236.395 82.5225 236.358 82.6069 236.409 82.6538C236.412 82.6565 236.416 82.6591 236.419 82.6614C236.933 83.0017 236.933 83.4774 236.933 84.0884L236.933 84.0884L236.933 95.3962Z" fill="black"/>
<path d="M233.76 91.1094C232.653 91.0621 229.95 85.8444 227.854 82.5871C227.828 82.5458 227.783 82.5217 227.733 82.5217C226.236 82.5217 226.945 86.1945 226.788 88.7372C226.788 88.7989 226.805 88.8602 226.836 88.9134C229.025 92.6255 231.141 94.4579 233.801 91.1858C233.823 91.16 233.793 91.1109 233.76 91.1094Z" fill="black"/>
<path d="M232.212 88.1578C232.898 89.2018 234.334 91.2545 234.703 90.7278L236.205 88.8157C236.343 88.6395 236.418 88.421 236.419 88.197C236.425 85.0578 236.498 83.9292 235.906 83.3815C235.589 83.0888 235.099 83.2722 234.84 83.6163L232.256 87.0373C232.007 87.3662 231.986 87.8133 232.212 88.1578Z" fill="black"/>
<path d="M226.246 95.3962C226.246 97.576 222.686 97.576 222.686 95.3962V86.9494C222.686 86.3455 222.398 82.6345 226.715 82.5242C226.784 82.5225 226.821 82.6069 226.769 82.6538C226.766 82.6565 226.763 82.6591 226.76 82.6614C226.246 83.0017 226.246 83.4774 226.246 84.0884V84.0884L226.246 95.3962Z" fill="black"/>
</svg>
