<svg width="298" height="210" viewBox="0 0 298 210" fill="none" xmlns="http://www.w3.org/2000/svg">
<path d="M2.05972 43.9292C1.71511 41.0991 3.92385 38.6051 6.77489 38.6051H195.381C197.718 38.6051 199.708 40.3051 200.073 42.6135L220.3 170.59C220.719 173.236 218.868 175.704 216.21 176.043L25.9193 200.35C23.3062 200.684 20.9207 198.828 20.6022 196.213L2.05972 43.9292Z" fill="black" stroke="#969696" stroke-width="2.5"/>
<path d="M6.72603 47.3767C6.56584 46.1605 7.52514 45.0675 8.74818 45.0727L194.435 45.8658C195.401 45.8699 196.212 46.5692 196.361 47.5257L214.96 166.906C215.134 168.028 214.343 169.088 213.218 169.239L28.0416 194.148C26.9598 194.293 25.9776 193.542 25.835 192.459L6.72603 47.3767Z" fill="#2C3040"/>
<path d="M162.176 151.048C185.151 128.117 131.994 70.9048 148.63 70.8579L69.4928 65.2676C53.9584 65.3114 95.7779 116.317 82.5967 141.77C81.338 144.2 82.6179 147.87 85.2692 148.007L160.057 151.847C160.828 151.887 161.615 151.608 162.176 151.048Z" fill="#00B0F0" fill-opacity="0.8"/>
<path d="M98.2685 175.419C126.826 190.179 159.366 117.495 165.24 133.936L142.506 53.7192C137.028 38.3848 108.355 100.577 81.3492 97.0476C78.7335 96.7058 75.8073 99.3 76.5594 101.954L96.8787 173.652C97.0933 174.409 97.5946 175.07 98.2685 175.419Z" fill="white" fill-opacity="0.8"/>
<path d="M59.2151 199.714L24.0146 206.2C23.4323 206.308 23.3533 207.11 23.9034 207.329L30.4758 209.943C30.5692 209.98 30.6705 209.993 30.7702 209.98L161 193L290.524 172.5L297.073 170.623C297.326 170.55 297.5 170.319 297.5 170.055V165.682C297.5 165.322 297.181 165.046 296.825 165.098L59.2151 199.714Z" fill="#C0C0C0"/>
<path d="M62 192.851C62 192.598 62.1879 192.386 62.4382 192.354L297.438 163.07C297.737 163.033 298 163.266 298 163.566V167.528C298 167.779 297.815 167.99 297.567 168.024L62.5673 199.923C62.2671 199.964 62 199.73 62 199.428V192.851Z" fill="url(#paint0_linear_857_107)"/>
<path d="M23 201.279C23 201.043 23.1646 200.84 23.395 200.79L61.395 192.63C61.7063 192.563 62 192.8 62 193.119V199.582C62 199.824 61.8266 200.031 61.5883 200.074L23.5883 206.894C23.2817 206.949 23 206.714 23 206.402V201.279Z" fill="url(#paint1_linear_857_107)"/>
<path d="M177.824 121.091C174.671 121.457 171.979 118.831 172.268 115.67L180.265 28.0315C180.471 25.7754 182.168 23.9396 184.401 23.5575L221.838 17.1514C225.001 16.6101 227.848 19.1464 227.674 22.3508L222.824 111.68C222.692 114.111 220.827 116.094 218.408 116.375L177.824 121.091Z" fill="#2C3040"/>
<path d="M173.959 117.764C171.121 118.094 168.699 115.73 168.958 112.885L176.956 25.2473C177.142 23.2168 178.669 21.5646 180.679 21.2207L218.116 14.8146C220.962 14.3275 223.525 16.6102 223.368 19.4941L218.518 108.823C218.399 111.012 216.721 112.796 214.544 113.049L173.959 117.764Z" fill="white" stroke="black"/>
<path d="M175.744 84.3456C168.016 74.3913 190.263 49.6362 183.429 49.9273L216.735 45.992C222.6 45.7421 208.216 64.2812 208.974 75.8537C209.144 78.4465 207.487 82.2814 204.889 82.537L177.97 85.185C177.127 85.268 176.261 85.0115 175.744 84.3456Z" fill="#00B0F0" fill-opacity="0.8"/>
<path d="M206.706 94.0072C194.078 99.0338 180.078 69.5421 177.469 76.3701L187.761 42.5247C189.949 36.8026 200.135 56.5885 210.809 60.1888C213.384 61.0571 216.698 64.2082 215.912 66.7904L208.142 92.3404C207.919 93.0749 207.424 93.7213 206.706 94.0072Z" fill="#D4D4D4" fill-opacity="0.8"/>
<path d="M201.399 73.6412C201.561 75.4001 204.9 75.0932 204.738 73.3343L204.112 66.5184C204.067 66.0306 204.062 63.0065 199.994 63.2956C199.937 63.2997 199.916 63.3734 199.964 63.4046C199.966 63.4063 199.969 63.4078 199.972 63.4091C200.48 63.6394 200.515 64.0233 200.561 64.5166L200.561 64.5167L201.399 73.6412Z" fill="black"/>
<path d="M198.113 70.4552C197.08 70.5344 194.151 66.5481 191.938 64.0933C191.907 64.0586 191.862 64.0414 191.815 64.0457C190.411 64.1748 191.349 67.0773 191.389 69.1427C191.394 69.1922 191.414 69.2397 191.445 69.278C193.775 72.0865 195.897 73.3844 198.149 70.5138C198.167 70.4921 198.141 70.4531 198.113 70.4552Z" fill="black"/>
<path d="M196.578 68.3629C197.338 69.175 198.673 70.4946 198.961 70.0664L200.174 68.4653C200.325 68.2664 200.396 68.017 200.373 67.7684C200.153 65.2908 200.132 64.4015 199.526 64.0228C199.196 63.817 198.781 64.0145 198.553 64.3287L196.513 67.133C196.24 67.509 196.261 68.0233 196.578 68.3629Z" fill="black"/>
<path d="M191.375 74.5627C191.537 76.3216 188.198 76.6285 188.036 74.8696L187.41 68.0537C187.365 67.5659 186.819 64.5915 190.87 64.1344C190.927 64.1279 190.962 64.1965 190.92 64.2359C190.918 64.238 190.916 64.24 190.913 64.2418C190.456 64.5608 190.491 64.9448 190.536 65.4381L190.536 65.4382L191.375 74.5627Z" fill="black"/>
<defs>
<linearGradient id="paint0_linear_857_107" x1="223.814" y1="152.64" x2="199.203" y2="185.276" gradientUnits="userSpaceOnUse">
<stop offset="0.0992084" stop-color="#222222"/>
<stop offset="0.595136" stop-color="#2A2828"/>
</linearGradient>
<linearGradient id="paint1_linear_857_107" x1="50" y1="181" x2="98" y2="181.5" gradientUnits="userSpaceOnUse">
<stop offset="0.0135889" stop-color="#C0C0C0"/>
<stop offset="0.601974" stop-color="#3A3A3A" stop-opacity="0.9"/>
</linearGradient>
</defs>
</svg>
