<svg width="103" height="76" viewBox="0 0 103 76" fill="none" xmlns="http://www.w3.org/2000/svg">
<path d="M82.6818 19.9667C79.2798 5.77065 69.3218 -2.79526 53.4848 0.832488C51.7731 1.22456 50.6271 2.7994 50.6271 4.55535V64.8993C50.6271 67.2387 52.626 69.0788 54.9575 68.8856L83.7204 66.5022C114.268 61.9317 104.086 19.8837 83.7204 20.7978C83.225 20.7974 82.7972 20.4485 82.6818 19.9667Z" fill="#D7D7D7"/>
<path d="M41.9411 12.0516C42.5641 7.63028 49.0494 2.58304 52.3729 0.844238V67.5554C33.1591 64.8138 19.6009 72.5904 5.32128 54.7614C-13.5856 20.5898 22.4765 -1.19344 41.9411 12.0516Z" fill="#EBEBEB"/>
<path d="M76.4322 41.3779H48.3898C46.733 41.3779 45.3898 42.7211 45.3898 44.3779V51.0446C45.3898 52.7015 46.733 54.0446 48.3898 54.0446H76.4322C78.0891 54.0446 79.4322 52.7014 79.4322 51.0446V44.3779C79.4322 42.7211 78.0891 41.3779 76.4322 41.3779Z" fill="#0061D3"/>
<path d="M47.1356 76V48.9778H79.4322V76H47.1356Z" fill="#0075FF"/>
<path d="M46 34H29C27.3431 34 26 35.3431 26 37V56C26 57.6569 27.3431 59 29 59H45.9102C47.567 59 48.9102 57.6569 48.9102 56V46.5449C48.9102 46.5201 48.9303 46.5 48.9551 46.5C48.9799 46.5 49 46.4799 49 46.4551V37C49 35.3431 47.6569 34 46 34Z" fill="#0075FF"/>
<path d="M49 49H26V66.7428V67.7019C26 77.7722 29.9056 75.854 35.981 75.854H49V49Z" fill="#0096FF"/>
</svg>
