<svg width="175" height="142" viewBox="0 0 175 142" fill="none" xmlns="http://www.w3.org/2000/svg">
<path d="M180.136 81.3677C179.264 118.009 59.0839 141.122 38.6287 141.08C19.1043 141.04 -1.20167 119.753 0.161448 91.7513C0.292781 89.0534 0.902668 86.402 1.39457 83.746C4.43636 67.3224 7.44122 24.4707 19.1208 16.661C33.5567 7.00821 50.4047 31.3577 67.6381 33.4983C109.921 38.7502 180.805 53.2588 180.136 81.3677Z" fill="#018B8B" fill-opacity="0.6"/>
<path d="M135.577 56.058C136.923 63.0346 134.821 70.4796 132.398 77.159C122.799 103.619 78.5656 114.562 61.0054 114.525C42.2294 114.604 27.346 90.792 29.794 60.9657C30.9658 27.2638 36.1752 0.553035 49.9786 0.133524C53.2222 0.0349429 56.148 1.78015 59.0584 3.21583C78.8385 12.9735 131.046 32.5836 135.577 56.058Z" fill="#01728B" fill-opacity="0.6"/>
<path d="M171.837 26.5105V26.5105C171.762 62.8556 154.611 113.378 122.707 95.9677C105.271 86.4527 88.065 74.4227 83.5725 66.8581C82.3507 64.8008 82.1181 62.3015 82.6244 59.9629C85.5342 46.5215 111.741 25.7628 131.616 11.0322C141.331 3.83197 154.869 -1.69303 164.181 6.02057C169.372 10.3207 172.126 16.991 171.837 26.5105Z" fill="#01518B" fill-opacity="0.6"/>
</svg>
