<svg width="179" height="67" viewBox="0 0 179 67" fill="none" xmlns="http://www.w3.org/2000/svg">
<path d="M37.95 23.225V49H31.05V23.225H37.95ZM38.775 15.9C38.775 16.4833 38.6583 17.025 38.425 17.525C38.1917 18.025 37.875 18.4667 37.475 18.85C37.0917 19.2333 36.6333 19.5333 36.1 19.75C35.5833 19.9667 35.025 20.075 34.425 20.075C33.8583 20.075 33.3167 19.9667 32.8 19.75C32.3 19.5333 31.8583 19.2333 31.475 18.85C31.0917 18.4667 30.7833 18.025 30.55 17.525C30.3333 17.025 30.225 16.4833 30.225 15.9C30.225 15.3167 30.3333 14.775 30.55 14.275C30.7833 13.7583 31.0917 13.3083 31.475 12.925C31.8583 12.5417 32.3 12.2417 32.8 12.025C33.3167 11.8083 33.8583 11.7 34.425 11.7C35.025 11.7 35.5833 11.8083 36.1 12.025C36.6333 12.2417 37.0917 12.5417 37.475 12.925C37.875 13.3083 38.1917 13.7583 38.425 14.275C38.6583 14.775 38.775 15.3167 38.775 15.9ZM53.4383 35.15C54.8549 35.15 55.8966 34.7917 56.5633 34.075C57.2466 33.3583 57.5883 32.4333 57.5883 31.3C57.5883 30.1167 57.2466 29.1917 56.5633 28.525C55.8966 27.8417 54.8549 27.5 53.4383 27.5C52.0216 27.5 50.9799 27.8417 50.3133 28.525C49.6466 29.1917 49.3133 30.1167 49.3133 31.3C49.3133 32.4167 49.6466 33.3417 50.3133 34.075C50.9966 34.7917 52.0383 35.15 53.4383 35.15ZM59.9633 50.05C59.9633 49.6 59.8216 49.2333 59.5383 48.95C59.2549 48.6667 58.8716 48.4417 58.3883 48.275C57.9216 48.1083 57.3633 47.9917 56.7133 47.925C56.0633 47.8417 55.3716 47.7833 54.6383 47.75C53.9049 47.7 53.1466 47.6583 52.3633 47.625C51.5799 47.5917 50.8133 47.5333 50.0633 47.45C49.4799 47.8 48.9966 48.2167 48.6133 48.7C48.2466 49.1667 48.0633 49.7 48.0633 50.3C48.0633 50.7167 48.1549 51.1 48.3383 51.45C48.5383 51.8 48.8633 52.1 49.3133 52.35C49.7633 52.6 50.3549 52.7917 51.0883 52.925C51.8216 53.075 52.7383 53.15 53.8383 53.15C54.9716 53.15 55.9299 53.075 56.7133 52.925C57.4966 52.775 58.1299 52.5583 58.6133 52.275C59.0966 52.0083 59.4383 51.6833 59.6383 51.3C59.8549 50.9167 59.9633 50.5 59.9633 50.05ZM66.8133 24.075V26.6C66.8133 27 66.6966 27.3167 66.4633 27.55C66.2466 27.7833 65.8799 27.9583 65.3633 28.075L63.2633 28.5C63.5466 29.3167 63.6883 30.1917 63.6883 31.125C63.6883 32.4083 63.4216 33.5667 62.8883 34.6C62.3716 35.6167 61.6549 36.4917 60.7383 37.225C59.8216 37.9417 58.7383 38.5 57.4883 38.9C56.2383 39.2833 54.8883 39.475 53.4383 39.475C52.5216 39.475 51.6633 39.4 50.8633 39.25C50.1633 39.6833 49.8133 40.1583 49.8133 40.675C49.8133 41.1583 50.0466 41.5083 50.5133 41.725C50.9966 41.9417 51.6216 42.1 52.3883 42.2C53.1716 42.2833 54.0549 42.3417 55.0383 42.375C56.0383 42.3917 57.0466 42.4417 58.0633 42.525C59.0966 42.6083 60.1049 42.7583 61.0883 42.975C62.0883 43.175 62.9716 43.5167 63.7383 44C64.5216 44.4667 65.1466 45.0917 65.6133 45.875C66.0966 46.6583 66.3383 47.6667 66.3383 48.9C66.3383 50.05 66.0549 51.1667 65.4883 52.25C64.9216 53.3333 64.0966 54.3 63.0133 55.15C61.9466 56 60.6299 56.6833 59.0633 57.2C57.4966 57.7167 55.7133 57.975 53.7133 57.975C51.7299 57.975 50.0049 57.7833 48.5383 57.4C47.0883 57.0333 45.8799 56.5333 44.9133 55.9C43.9633 55.2833 43.2549 54.5667 42.7883 53.75C42.3216 52.9333 42.0883 52.0833 42.0883 51.2C42.0883 50.05 42.4383 49.075 43.1383 48.275C43.8383 47.475 44.8049 46.8333 46.0383 46.35C45.3883 45.9833 44.8633 45.5083 44.4633 44.925C44.0799 44.325 43.8883 43.55 43.8883 42.6C43.8883 41.8333 44.1633 41.025 44.7133 40.175C45.2799 39.325 46.1466 38.6167 47.3133 38.05C45.9966 37.35 44.9549 36.4167 44.1883 35.25C43.4216 34.0667 43.0383 32.6917 43.0383 31.125C43.0383 29.8417 43.2966 28.6833 43.8133 27.65C44.3466 26.6167 45.0799 25.7417 46.0133 25.025C46.9466 24.2917 48.0466 23.7333 49.3133 23.35C50.5799 22.9667 51.9549 22.775 53.4383 22.775C55.6383 22.775 57.5799 23.2083 59.2633 24.075H66.8133ZM76.8008 26.225C77.3174 25.725 77.8508 25.2667 78.4008 24.85C78.9674 24.4333 79.5591 24.075 80.1758 23.775C80.8091 23.475 81.4841 23.2417 82.2008 23.075C82.9341 22.9083 83.7258 22.825 84.5758 22.825C85.9758 22.825 87.2174 23.0667 88.3008 23.55C89.3841 24.0333 90.2924 24.7083 91.0258 25.575C91.7758 26.4417 92.3341 27.475 92.7008 28.675C93.0841 29.875 93.2758 31.1917 93.2758 32.625V49H86.4008V32.625C86.4008 31.1917 86.0674 30.0833 85.4008 29.3C84.7341 28.5 83.7508 28.1 82.4508 28.1C81.4841 28.1 80.5758 28.3083 79.7258 28.725C78.8758 29.1417 78.0674 29.725 77.3008 30.475V49H70.4008V23.225H74.6508C75.5174 23.225 76.0924 23.625 76.3758 24.425L76.8008 26.225ZM126.435 43C127.652 43 128.743 42.8 129.71 42.4C130.677 41.9833 131.493 41.4 132.16 40.65C132.827 39.9 133.335 38.9917 133.685 37.925C134.035 36.8583 134.21 35.6583 134.21 34.325V12.725H141.71V34.325C141.71 36.525 141.352 38.55 140.635 40.4C139.935 42.2333 138.927 43.8167 137.61 45.15C136.293 46.4833 134.693 47.525 132.81 48.275C130.927 49.025 128.802 49.4 126.435 49.4C124.068 49.4 121.935 49.025 120.035 48.275C118.152 47.525 116.552 46.4833 115.235 45.15C113.918 43.8167 112.902 42.2333 112.185 40.4C111.485 38.55 111.135 36.525 111.135 34.325V12.725H118.635V34.325C118.635 35.6583 118.81 36.8583 119.16 37.925C119.51 38.9917 120.018 39.9 120.685 40.65C121.352 41.4 122.168 41.9833 123.135 42.4C124.102 42.8 125.202 43 126.435 43ZM153.961 42.2C154.611 42.95 155.311 43.475 156.061 43.775C156.828 44.075 157.644 44.225 158.511 44.225C159.344 44.225 160.103 44.0667 160.786 43.75C161.469 43.4333 162.053 42.9417 162.536 42.275C163.036 41.5917 163.419 40.725 163.686 39.675C163.953 38.625 164.086 37.375 164.086 35.925C164.086 34.4917 163.969 33.275 163.736 32.275C163.519 31.275 163.203 30.4667 162.786 29.85C162.386 29.2333 161.894 28.7917 161.311 28.525C160.728 28.2417 160.078 28.1 159.361 28.1C158.144 28.1 157.119 28.3417 156.286 28.825C155.469 29.2917 154.694 29.9833 153.961 30.9V42.2ZM153.561 26.6C154.078 26.0333 154.628 25.5167 155.211 25.05C155.794 24.5667 156.419 24.1583 157.086 23.825C157.753 23.475 158.469 23.2083 159.236 23.025C160.003 22.825 160.836 22.725 161.736 22.725C163.119 22.725 164.386 23.025 165.536 23.625C166.703 24.2083 167.703 25.0667 168.536 26.2C169.369 27.3167 170.019 28.6917 170.486 30.325C170.953 31.9583 171.186 33.825 171.186 35.925C171.186 37.8583 170.919 39.65 170.386 41.3C169.869 42.9333 169.128 44.35 168.161 45.55C167.194 46.75 166.028 47.6917 164.661 48.375C163.311 49.0417 161.803 49.375 160.136 49.375C158.736 49.375 157.544 49.1667 156.561 48.75C155.594 48.3333 154.728 47.7667 153.961 47.05V57.325H147.061V23.225H151.311C152.178 23.225 152.753 23.625 153.036 24.425L153.561 26.6Z" fill="#00B0F0"/>
<path d="M6.37171 18.4902C6.4369 21.5928 19.6008 29.2218 27.8221 35.1385C27.9353 35.2199 28 35.3494 28 35.4888C28 39.7073 18.7502 37.7091 12.3465 38.1531C12.1918 38.1531 12.0386 38.1069 11.9094 38.0217C2.5562 31.8517 -2.0625 25.8884 6.18004 18.3927C6.24284 18.3339 6.36991 18.4042 6.37171 18.4902Z" fill="#00B0F0"/>
<path d="M14.6296 23.4667C12.5167 21.9568 5.84709 17.017 7.3332 15.851L12.5505 11.2662C12.733 11.1058 12.9737 11.0174 13.2166 11.0172C23.0215 11.0078 25.3252 10.658 26.4813 13.6171C26.6266 13.989 26.4973 14.4067 26.1923 14.6644L15.8377 23.4137C15.493 23.7049 14.9967 23.7291 14.6296 23.4667Z" fill="#00B0F0"/>
<path d="M3.09056 39.9019C-1.03016 39.9019 -1.03016 49.0325 3.09056 49.0325H19.0584C20.2019 49.0325 27.2372 49.7732 27.4248 38.648C27.4271 38.5122 27.2528 38.4496 27.1767 38.5621C27.173 38.5676 27.1696 38.5736 27.1667 38.5796C26.5231 39.9019 25.6232 39.9019 24.467 39.9019H24.4669L3.09056 39.9019Z" fill="#00B0F0"/>
</svg>
