<svg width="165" height="56" viewBox="0 0 165 56" fill="none" xmlns="http://www.w3.org/2000/svg">
<path d="M52.475 22.825C54.4083 22.825 56.1667 23.1333 57.75 23.75C59.3333 24.3667 60.6917 25.25 61.825 26.4C62.9583 27.5333 63.8333 28.9167 64.45 30.55C65.0667 32.1833 65.375 34.025 65.375 36.075C65.375 38.125 65.0667 39.975 64.45 41.625C63.8333 43.2583 62.9583 44.65 61.825 45.8C60.6917 46.95 59.3333 47.8333 57.75 48.45C56.1667 49.0667 54.4083 49.375 52.475 49.375C50.525 49.375 48.75 49.0667 47.15 48.45C45.5667 47.8333 44.2083 46.95 43.075 45.8C41.9417 44.65 41.0583 43.2583 40.425 41.625C39.8083 39.975 39.5 38.125 39.5 36.075C39.5 34.025 39.8083 32.1833 40.425 30.55C41.0583 28.9167 41.9417 27.5333 43.075 26.4C44.2083 25.25 45.5667 24.3667 47.15 23.75C48.75 23.1333 50.525 22.825 52.475 22.825ZM52.475 44.2C54.4417 44.2 55.9 43.525 56.85 42.175C57.8 40.8083 58.275 38.7833 58.275 36.1C58.275 33.4333 57.8 31.425 56.85 30.075C55.9 28.7083 54.4417 28.025 52.475 28.025C50.4583 28.025 48.975 28.7083 48.025 30.075C47.075 31.425 46.6 33.4333 46.6 36.1C46.6 38.7833 47.075 40.8083 48.025 42.175C48.975 43.525 50.4583 44.2 52.475 44.2ZM96.0691 49H89.1941V28.175H77.7691V41.625C77.7691 42.3417 77.9358 42.9083 78.2691 43.325C78.6191 43.7417 79.1108 43.95 79.7441 43.95C80.0775 43.95 80.3608 43.9167 80.5941 43.85C80.8275 43.7667 81.0275 43.6833 81.1941 43.6C81.3608 43.5 81.5108 43.4167 81.6441 43.35C81.7941 43.2667 81.9441 43.225 82.0941 43.225C82.2941 43.225 82.4608 43.275 82.5941 43.375C82.7275 43.4583 82.8608 43.6083 82.9941 43.825L85.0691 47.125C84.1191 47.875 83.0441 48.4417 81.8441 48.825C80.6441 49.2083 79.4025 49.4 78.1191 49.4C76.9525 49.4 75.9191 49.2333 75.0191 48.9C74.1191 48.55 73.3608 48.0583 72.7441 47.425C72.1275 46.7917 71.6608 46.025 71.3441 45.125C71.0275 44.225 70.8691 43.2083 70.8691 42.075V28.175H68.4441C68.0775 28.175 67.7608 28.0583 67.4941 27.825C67.2441 27.5917 67.1191 27.2417 67.1191 26.775V24.075L71.2441 23.325L72.6441 16.65C72.8275 15.9 73.3358 15.525 74.1691 15.525H77.7691V23.375H96.0691V49ZM97.1441 15.85C97.1441 16.4167 97.0275 16.9583 96.7941 17.475C96.5608 17.975 96.2441 18.4167 95.8441 18.8C95.4608 19.1667 95.0025 19.4667 94.4691 19.7C93.9525 19.9167 93.3941 20.025 92.7941 20.025C92.2275 20.025 91.6858 19.9167 91.1691 19.7C90.6691 19.4667 90.2275 19.1667 89.8441 18.8C89.4608 18.4167 89.1525 17.975 88.9191 17.475C88.7025 16.9583 88.5941 16.4167 88.5941 15.85C88.5941 15.2667 88.7025 14.725 88.9191 14.225C89.1525 13.7083 89.4608 13.2583 89.8441 12.875C90.2275 12.4917 90.6691 12.1917 91.1691 11.975C91.6858 11.7417 92.2275 11.625 92.7941 11.625C93.3941 11.625 93.9525 11.7417 94.4691 11.975C95.0025 12.1917 95.4608 12.4917 95.8441 12.875C96.2441 13.2583 96.5608 13.7083 96.7941 14.225C97.0275 14.725 97.1441 15.2667 97.1441 15.85ZM113.608 22.825C115.541 22.825 117.299 23.1333 118.883 23.75C120.466 24.3667 121.824 25.25 122.958 26.4C124.091 27.5333 124.966 28.9167 125.583 30.55C126.199 32.1833 126.508 34.025 126.508 36.075C126.508 38.125 126.199 39.975 125.583 41.625C124.966 43.2583 124.091 44.65 122.958 45.8C121.824 46.95 120.466 47.8333 118.883 48.45C117.299 49.0667 115.541 49.375 113.608 49.375C111.658 49.375 109.883 49.0667 108.283 48.45C106.699 47.8333 105.341 46.95 104.208 45.8C103.074 44.65 102.191 43.2583 101.558 41.625C100.941 39.975 100.633 38.125 100.633 36.075C100.633 34.025 100.941 32.1833 101.558 30.55C102.191 28.9167 103.074 27.5333 104.208 26.4C105.341 25.25 106.699 24.3667 108.283 23.75C109.883 23.1333 111.658 22.825 113.608 22.825ZM113.608 44.2C115.574 44.2 117.033 43.525 117.983 42.175C118.933 40.8083 119.408 38.7833 119.408 36.1C119.408 33.4333 118.933 31.425 117.983 30.075C117.033 28.7083 115.574 28.025 113.608 28.025C111.591 28.025 110.108 28.7083 109.158 30.075C108.208 31.425 107.733 33.4333 107.733 36.1C107.733 38.7833 108.208 40.8083 109.158 42.175C110.108 43.525 111.591 44.2 113.608 44.2ZM137.24 26.225C137.757 25.725 138.29 25.2667 138.84 24.85C139.407 24.4333 139.999 24.075 140.615 23.775C141.249 23.475 141.924 23.2417 142.64 23.075C143.374 22.9083 144.165 22.825 145.015 22.825C146.415 22.825 147.657 23.0667 148.74 23.55C149.824 24.0333 150.732 24.7083 151.465 25.575C152.215 26.4417 152.774 27.475 153.14 28.675C153.524 29.875 153.715 31.1917 153.715 32.625V49H146.84V32.625C146.84 31.1917 146.507 30.0833 145.84 29.3C145.174 28.5 144.19 28.1 142.89 28.1C141.924 28.1 141.015 28.3083 140.165 28.725C139.315 29.1417 138.507 29.725 137.74 30.475V49H130.84V23.225H135.09C135.957 23.225 136.532 23.625 136.815 24.425L137.24 26.225Z" fill="#00B0F0"/>
<path d="M30.262 43.8047C30.262 49.459 36.9925 49.459 36.9925 43.8047L36.9925 21.8942C36.9925 20.3317 37.5339 10.7521 29.4397 10.418C29.2647 10.4108 29.1606 10.6114 29.2696 10.7486C29.2768 10.7578 29.2849 10.7664 29.2936 10.7742C30.262 11.6569 30.262 12.8898 30.262 14.4728L30.262 14.473L30.262 43.8047Z" fill="#00B0F0"/>
<path d="M22.9921 30.1926C20.6841 30.0313 15.0807 18.0356 10.7361 10.5487C10.6852 10.461 10.5926 10.4091 10.4913 10.4091C7.38165 10.4091 8.85464 18.8705 8.5273 24.7284C8.5273 24.8709 8.56298 25.0131 8.62987 25.139C13.1759 33.6879 17.5704 37.9063 23.0935 30.3694C23.1393 30.3087 23.0679 30.1979 22.9921 30.1926Z" fill="#00B0F0"/>
<path d="M19.3312 22.6023C20.4177 24.4918 24.1016 30.6831 24.9668 29.3146L28.346 24.5427C28.4656 24.3737 28.5298 24.1665 28.53 23.9594C28.5361 15.3337 28.7761 13.0403 26.8682 11.9333C26.4689 11.7017 25.9715 11.8718 25.7118 12.2534L19.3754 21.5594C19.1627 21.8719 19.1428 22.2746 19.3312 22.6023Z" fill="#00B0F0"/>
<path d="M7.12306 43.8047C7.12306 49.459 0.00797105 49.459 0.00797105 43.8047L0.00797105 21.8942C0.00797105 20.3309 -0.565087 10.7413 8.00665 10.4175C8.18234 10.4108 8.28483 10.6144 8.17182 10.7491C8.1644 10.7579 8.15609 10.7662 8.14734 10.7738C7.12308 11.6565 7.12306 12.8895 7.12305 14.4729V14.473L7.12306 43.8047Z" fill="#00B0F0"/>
</svg>
