<svg width="325" height="93" viewBox="0 0 325 93" fill="none" xmlns="http://www.w3.org/2000/svg">
<rect x="141" width="184" height="93" fill="#00B0F0"/>
<path d="M109 58.5V41H114V43.5H116.5V46H119V43.5H121.5V41H126.5V58.5H121.5V48.5H119V53.5H116.5V48.5H114V58.5H109ZM131.5 58.5V56H129V48.5H131.5V46H144V48.5H146.5V56H144V58.5H131.5ZM134 56H141.5V48.5H134V56ZM156.5 58.5V48.5H151.5V46H156.5V41H161.5V46H166.5V48.5H161.5V58.5H156.5ZM176.5 43.5V41H181.5V43.5H176.5ZM171.5 58.5V56H176.5V48.5H174V46H181.5V56H186.5V58.5H171.5ZM191.5 58.5V56H189V48.5H191.5V46H204V48.5H206.5V56H204V58.5H191.5ZM194 56H201.5V48.5H194V56ZM209 58.5V46H224V48.5H226.5V58.5H221.5V48.5H214V58.5H209Z" fill="black"/>
<rect y="22" width="173" height="52" fill="#01518B" fill-opacity="0.7"/>
</svg>
