<svg width="250" height="67" viewBox="0 0 250 67" fill="none" xmlns="http://www.w3.org/2000/svg">
<path d="M36.875 23.5V49H31.5V23.5H36.875ZM37.775 15.8C37.775 16.2833 37.675 16.7417 37.475 17.175C37.2917 17.6083 37.0333 17.9917 36.7 18.325C36.3667 18.6417 35.975 18.9 35.525 19.1C35.0917 19.2833 34.625 19.375 34.125 19.375C33.6417 19.375 33.1833 19.2833 32.75 19.1C32.3333 18.9 31.9667 18.6417 31.65 18.325C31.3333 17.9917 31.075 17.6083 30.875 17.175C30.6917 16.7417 30.6 16.2833 30.6 15.8C30.6 15.3 30.6917 14.8333 30.875 14.4C31.075 13.9667 31.3333 13.5917 31.65 13.275C31.9667 12.9417 32.3333 12.6833 32.75 12.5C33.1833 12.3 33.6417 12.2 34.125 12.2C34.625 12.2 35.0917 12.3 35.525 12.5C35.975 12.6833 36.3667 12.9417 36.7 13.275C37.0333 13.5917 37.2917 13.9667 37.475 14.4C37.675 14.8333 37.775 15.3 37.775 15.8ZM52.7285 36.025C54.3952 36.025 55.6452 35.6 56.4785 34.75C57.3119 33.9 57.7285 32.7917 57.7285 31.425C57.7285 30.025 57.3119 28.9167 56.4785 28.1C55.6452 27.2833 54.3952 26.875 52.7285 26.875C51.0785 26.875 49.8285 27.2833 48.9785 28.1C48.1452 28.9167 47.7285 30.025 47.7285 31.425C47.7285 32.0917 47.8368 32.7083 48.0535 33.275C48.2702 33.8417 48.5868 34.3333 49.0035 34.75C49.4202 35.15 49.9368 35.4667 50.5535 35.7C51.1868 35.9167 51.9118 36.025 52.7285 36.025ZM60.2035 50.25C60.2035 49.6833 60.0368 49.2333 59.7035 48.9C59.3869 48.55 58.9535 48.2833 58.4035 48.1C57.8535 47.9 57.2118 47.7583 56.4785 47.675C55.7452 47.575 54.9618 47.5083 54.1285 47.475C53.3118 47.425 52.4702 47.3833 51.6035 47.35C50.7535 47.3 49.9285 47.2167 49.1285 47.1C48.3285 47.5167 47.6702 48.0167 47.1535 48.6C46.6535 49.1833 46.4035 49.8583 46.4035 50.625C46.4035 51.125 46.5285 51.5917 46.7785 52.025C47.0452 52.4583 47.4452 52.8333 47.9785 53.15C48.5285 53.4667 49.2202 53.7167 50.0535 53.9C50.9035 54.0833 51.9202 54.175 53.1035 54.175C55.4702 54.175 57.2452 53.8083 58.4285 53.075C59.6118 52.3417 60.2035 51.4 60.2035 50.25ZM65.6035 24.425V26.425C65.6035 27.0917 65.2035 27.5 64.4035 27.65L61.8535 28.075C62.2868 29.0417 62.5035 30.1167 62.5035 31.3C62.5035 32.55 62.2535 33.6833 61.7535 34.7C61.2702 35.7167 60.5952 36.5833 59.7285 37.3C58.8619 38.0167 57.8285 38.5667 56.6285 38.95C55.4285 39.3333 54.1285 39.525 52.7285 39.525C52.1952 39.525 51.6702 39.5 51.1535 39.45C50.6535 39.3833 50.1618 39.3 49.6785 39.2C49.1952 39.4833 48.8368 39.7833 48.6035 40.1C48.3702 40.4167 48.2535 40.7417 48.2535 41.075C48.2535 41.625 48.4952 42.0333 48.9785 42.3C49.4618 42.5667 50.0952 42.7583 50.8785 42.875C51.6785 42.9917 52.5868 43.0667 53.6035 43.1C54.6202 43.1333 55.6535 43.1917 56.7035 43.275C57.7535 43.3583 58.7868 43.5 59.8035 43.7C60.8202 43.8833 61.7202 44.2 62.5035 44.65C63.3035 45.0833 63.9452 45.675 64.4285 46.425C64.9119 47.175 65.1535 48.15 65.1535 49.35C65.1535 50.45 64.8785 51.525 64.3285 52.575C63.7785 53.625 62.9785 54.5583 61.9285 55.375C60.8952 56.1917 59.6285 56.8417 58.1285 57.325C56.6285 57.825 54.9202 58.075 53.0035 58.075C51.1035 58.075 49.4452 57.8917 48.0285 57.525C46.6285 57.1583 45.4535 56.6583 44.5035 56.025C43.5702 55.4083 42.8702 54.6917 42.4035 53.875C41.9535 53.0583 41.7285 52.2083 41.7285 51.325C41.7285 50.125 42.1035 49.1 42.8535 48.25C43.6202 47.4 44.6535 46.7333 45.9535 46.25C45.2535 45.9167 44.6868 45.4583 44.2535 44.875C43.8368 44.2917 43.6285 43.525 43.6285 42.575C43.6285 41.825 43.9035 41.0417 44.4535 40.225C45.0035 39.4083 45.8285 38.7167 46.9285 38.15C45.6618 37.45 44.6618 36.525 43.9285 35.375C43.1952 34.2083 42.8285 32.85 42.8285 31.3C42.8285 30.0333 43.0702 28.8917 43.5535 27.875C44.0535 26.8583 44.7452 25.9917 45.6285 25.275C46.5118 24.5583 47.5535 24.0083 48.7535 23.625C49.9702 23.2417 51.2952 23.05 52.7285 23.05C54.9285 23.05 56.8452 23.5083 58.4785 24.425H65.6035ZM74.8742 26.875C75.4242 26.3083 75.9909 25.8 76.5742 25.35C77.1742 24.8833 77.8076 24.4833 78.4742 24.15C79.1409 23.8167 79.8492 23.5583 80.5992 23.375C81.3492 23.1917 82.1659 23.1 83.0492 23.1C84.4492 23.1 85.6742 23.3333 86.7242 23.8C87.7909 24.2667 88.6826 24.925 89.3992 25.775C90.1326 26.625 90.6826 27.65 91.0492 28.85C91.4159 30.0333 91.5992 31.3417 91.5992 32.775V49H86.2492V32.775C86.2492 31.0583 85.8492 29.725 85.0492 28.775C84.2659 27.825 83.0659 27.35 81.4492 27.35C80.2492 27.35 79.1326 27.625 78.0992 28.175C77.0826 28.725 76.1242 29.475 75.2242 30.425V49H69.8492V23.5H73.0992C73.8326 23.5 74.2992 23.8417 74.4992 24.525L74.8742 26.875ZM125.528 44.275C126.911 44.275 128.144 44.0417 129.228 43.575C130.328 43.1083 131.253 42.4583 132.003 41.625C132.769 40.7917 133.353 39.7917 133.753 38.625C134.153 37.4417 134.353 36.1333 134.353 34.7V13H140.178V34.7C140.178 36.8167 139.836 38.775 139.153 40.575C138.486 42.375 137.519 43.9333 136.253 45.25C134.986 46.55 133.444 47.575 131.628 48.325C129.828 49.0583 127.794 49.425 125.528 49.425C123.261 49.425 121.219 49.0583 119.403 48.325C117.603 47.575 116.069 46.55 114.803 45.25C113.536 43.9333 112.561 42.375 111.878 40.575C111.211 38.775 110.878 36.8167 110.878 34.7V13H116.728V34.675C116.728 36.1083 116.928 37.4167 117.328 38.6C117.728 39.7667 118.303 40.775 119.053 41.625C119.803 42.4583 120.719 43.1083 121.803 43.575C122.903 44.0417 124.144 44.275 125.528 44.275ZM151.884 42.6C152.634 43.5667 153.451 44.25 154.334 44.65C155.234 45.0333 156.226 45.225 157.309 45.225C159.409 45.225 161.043 44.4583 162.209 42.925C163.393 41.3917 163.984 39.1083 163.984 36.075C163.984 34.5083 163.851 33.175 163.584 32.075C163.318 30.9583 162.934 30.05 162.434 29.35C161.934 28.65 161.326 28.1417 160.609 27.825C159.893 27.5083 159.084 27.35 158.184 27.35C156.818 27.35 155.634 27.65 154.634 28.25C153.651 28.8333 152.734 29.675 151.884 30.775V42.6ZM151.609 27.2C152.676 25.95 153.884 24.9417 155.234 24.175C156.601 23.4083 158.184 23.025 159.984 23.025C161.418 23.025 162.718 23.3167 163.884 23.9C165.051 24.4667 166.051 25.3 166.884 26.4C167.718 27.5 168.359 28.8667 168.809 30.5C169.276 32.1167 169.509 33.975 169.509 36.075C169.509 37.9583 169.251 39.7167 168.734 41.35C168.234 42.9667 167.509 44.375 166.559 45.575C165.609 46.7583 164.459 47.6917 163.109 48.375C161.759 49.0417 160.234 49.375 158.534 49.375C157.034 49.375 155.759 49.1333 154.709 48.65C153.676 48.1667 152.734 47.5 151.884 46.65V57.475H146.509V23.5H149.759C150.493 23.5 150.959 23.8417 151.159 24.525L151.609 27.2Z" fill="#00B0F0"/>
<path d="M6.37171 18.4902C6.4369 21.5928 19.6008 29.2218 27.8221 35.1385C27.9353 35.2199 28 35.3494 28 35.4888C28 39.7073 18.7502 37.7091 12.3465 38.1531C12.1918 38.1531 12.0386 38.1069 11.9094 38.0217C2.5562 31.8517 -2.0625 25.8884 6.18004 18.3927C6.24284 18.3339 6.36991 18.4042 6.37171 18.4902Z" fill="#00B0F0"/>
<path d="M14.6296 23.4667C12.5167 21.9568 5.84709 17.017 7.3332 15.851L12.5505 11.2662C12.733 11.1058 12.9737 11.0174 13.2166 11.0172C23.0215 11.0078 25.3252 10.658 26.4813 13.6171C26.6266 13.989 26.4973 14.4067 26.1923 14.6644L15.8377 23.4137C15.493 23.7049 14.9967 23.7291 14.6296 23.4667Z" fill="#00B0F0"/>
<path d="M3.09056 39.9019C-1.03016 39.9019 -1.03016 49.0325 3.09056 49.0325H19.0584C20.2019 49.0325 27.2372 49.7732 27.4248 38.648C27.4271 38.5122 27.2528 38.4496 27.1767 38.5621C27.173 38.5676 27.1696 38.5736 27.1667 38.5796C26.5231 39.9019 25.6232 39.9019 24.467 39.9019H24.4669L3.09056 39.9019Z" fill="#00B0F0"/>
</svg>
