<svg width="299" height="110" viewBox="0 0 299 110" fill="none" xmlns="http://www.w3.org/2000/svg">
<path d="M58.2 33.075C58.2 32.3583 58.1 31.675 57.9 31.025C57.7167 30.375 57.4167 29.8 57 29.3C56.5833 28.8 56.0583 28.4083 55.425 28.125C54.7917 27.825 54.0333 27.675 53.15 27.675C51.5 27.675 50.2083 28.1417 49.275 29.075C48.3417 30.0083 47.7333 31.3417 47.45 33.075H58.2ZM47.35 37.175C47.5667 39.5917 48.25 41.3583 49.4 42.475C50.5667 43.5917 52.0833 44.15 53.95 44.15C54.9 44.15 55.7167 44.0417 56.4 43.825C57.1 43.5917 57.7083 43.3417 58.225 43.075C58.7583 42.7917 59.2333 42.5417 59.65 42.325C60.0833 42.0917 60.5083 41.975 60.925 41.975C61.4583 41.975 61.875 42.175 62.175 42.575L64.175 45.075C63.4417 45.925 62.6333 46.6333 61.75 47.2C60.8667 47.75 59.95 48.1917 59 48.525C58.05 48.8417 57.0917 49.0583 56.125 49.175C55.1583 49.3083 54.225 49.375 53.325 49.375C51.525 49.375 49.8417 49.0833 48.275 48.5C46.725 47.9 45.3667 47.025 44.2 45.875C43.05 44.7083 42.1417 43.2667 41.475 41.55C40.8083 39.8333 40.475 37.8417 40.475 35.575C40.475 33.825 40.7583 32.175 41.325 30.625C41.9083 29.075 42.7417 27.725 43.825 26.575C44.9083 25.425 46.225 24.5167 47.775 23.85C49.325 23.1667 51.075 22.825 53.025 22.825C54.675 22.825 56.1917 23.0917 57.575 23.625C58.975 24.1417 60.175 24.9 61.175 25.9C62.1917 26.9 62.975 28.1333 63.525 29.6C64.0917 31.05 64.375 32.7083 64.375 34.575C64.375 35.0917 64.35 35.5167 64.3 35.85C64.25 36.1833 64.1667 36.45 64.05 36.65C63.9333 36.85 63.775 36.9917 63.575 37.075C63.375 37.1417 63.1167 37.175 62.8 37.175H47.35ZM75.6066 11.725V49H68.7066V11.725H75.6066ZM100.052 28.975C99.852 29.2417 99.652 29.45 99.452 29.6C99.252 29.7333 98.9686 29.8 98.602 29.8C98.2686 29.8 97.9436 29.7083 97.627 29.525C97.327 29.325 96.977 29.1167 96.577 28.9C96.177 28.6667 95.702 28.4583 95.152 28.275C94.602 28.075 93.9186 27.975 93.102 27.975C92.0686 27.975 91.1686 28.1667 90.402 28.55C89.652 28.9167 89.027 29.45 88.527 30.15C88.027 30.85 87.652 31.7 87.402 32.7C87.1686 33.7 87.052 34.825 87.052 36.075C87.052 38.7083 87.577 40.725 88.627 42.125C89.6936 43.525 91.1436 44.225 92.977 44.225C93.6103 44.225 94.152 44.175 94.602 44.075C95.0686 43.9583 95.4686 43.8167 95.802 43.65C96.152 43.4833 96.452 43.3 96.702 43.1C96.952 42.9 97.1853 42.7167 97.402 42.55C97.6353 42.3833 97.8603 42.25 98.077 42.15C98.3103 42.0333 98.5686 41.975 98.852 41.975C99.3853 41.975 99.802 42.175 100.102 42.575L102.077 45.075C101.344 45.925 100.56 46.6333 99.727 47.2C98.8936 47.75 98.027 48.1917 97.127 48.525C96.2436 48.8417 95.3436 49.0583 94.427 49.175C93.5103 49.3083 92.602 49.375 91.702 49.375C90.1186 49.375 88.6186 49.0833 87.202 48.5C85.7853 47.9 84.5436 47.0333 83.477 45.9C82.4103 44.7667 81.5603 43.375 80.927 41.725C80.3103 40.075 80.002 38.1917 80.002 36.075C80.002 34.1917 80.277 32.4417 80.827 30.825C81.377 29.2083 82.1853 27.8083 83.252 26.625C84.3186 25.4417 85.6353 24.5167 87.202 23.85C88.7853 23.1667 90.6103 22.825 92.677 22.825C94.6436 22.825 96.3686 23.1417 97.852 23.775C99.3353 24.4083 100.669 25.325 101.852 26.525L100.052 28.975ZM116.756 22.825C118.69 22.825 120.448 23.1333 122.031 23.75C123.615 24.3667 124.973 25.25 126.106 26.4C127.24 27.5333 128.115 28.9167 128.731 30.55C129.348 32.1833 129.656 34.025 129.656 36.075C129.656 38.125 129.348 39.975 128.731 41.625C128.115 43.2583 127.24 44.65 126.106 45.8C124.973 46.95 123.615 47.8333 122.031 48.45C120.448 49.0667 118.69 49.375 116.756 49.375C114.806 49.375 113.031 49.0667 111.431 48.45C109.848 47.8333 108.49 46.95 107.356 45.8C106.223 44.65 105.34 43.2583 104.706 41.625C104.09 39.975 103.781 38.125 103.781 36.075C103.781 34.025 104.09 32.1833 104.706 30.55C105.34 28.9167 106.223 27.5333 107.356 26.4C108.49 25.25 109.848 24.3667 111.431 23.75C113.031 23.1333 114.806 22.825 116.756 22.825ZM116.756 44.2C118.723 44.2 120.181 43.525 121.131 42.175C122.081 40.8083 122.556 38.7833 122.556 36.1C122.556 33.4333 122.081 31.425 121.131 30.075C120.181 28.7083 118.723 28.025 116.756 28.025C114.74 28.025 113.256 28.7083 112.306 30.075C111.356 31.425 110.881 33.4333 110.881 36.1C110.881 38.7833 111.356 40.8083 112.306 42.175C113.256 43.525 114.74 44.2 116.756 44.2Z" fill="#00BBFF"/>
<path d="M186.475 77.4159C188.408 77.4159 190.167 77.7243 191.75 78.3409C193.333 78.9576 194.692 79.8409 195.825 80.9909C196.958 82.1243 197.833 83.5076 198.45 85.1409C199.067 86.7743 199.375 88.6159 199.375 90.6659C199.375 92.7159 199.067 94.5659 198.45 96.2159C197.833 97.8493 196.958 99.2409 195.825 100.391C194.692 101.541 193.333 102.424 191.75 103.041C190.167 103.658 188.408 103.966 186.475 103.966C184.525 103.966 182.75 103.658 181.15 103.041C179.567 102.424 178.208 101.541 177.075 100.391C175.942 99.2409 175.058 97.8493 174.425 96.2159C173.808 94.5659 173.5 92.7159 173.5 90.6659C173.5 88.6159 173.808 86.7743 174.425 85.1409C175.058 83.5076 175.942 82.1243 177.075 80.9909C178.208 79.8409 179.567 78.9576 181.15 78.3409C182.75 77.7243 184.525 77.4159 186.475 77.4159ZM186.475 98.7909C188.442 98.7909 189.9 98.1159 190.85 96.7659C191.8 95.3993 192.275 93.3743 192.275 90.6909C192.275 88.0243 191.8 86.0159 190.85 84.6659C189.9 83.2993 188.442 82.6159 186.475 82.6159C184.458 82.6159 182.975 83.2993 182.025 84.6659C181.075 86.0159 180.6 88.0243 180.6 90.6909C180.6 93.3743 181.075 95.3993 182.025 96.7659C182.975 98.1159 184.458 98.7909 186.475 98.7909ZM230.069 103.591H223.194V82.7659H211.769V96.2159C211.769 96.9326 211.936 97.4993 212.269 97.9159C212.619 98.3326 213.111 98.5409 213.744 98.5409C214.077 98.5409 214.361 98.5076 214.594 98.4409C214.827 98.3576 215.027 98.2743 215.194 98.1909C215.361 98.0909 215.511 98.0076 215.644 97.9409C215.794 97.8576 215.944 97.8159 216.094 97.8159C216.294 97.8159 216.461 97.8659 216.594 97.9659C216.727 98.0493 216.861 98.1993 216.994 98.4159L219.069 101.716C218.119 102.466 217.044 103.033 215.844 103.416C214.644 103.799 213.402 103.991 212.119 103.991C210.952 103.991 209.919 103.824 209.019 103.491C208.119 103.141 207.361 102.649 206.744 102.016C206.127 101.383 205.661 100.616 205.344 99.7159C205.027 98.8159 204.869 97.7993 204.869 96.6659V82.7659H202.444C202.077 82.7659 201.761 82.6493 201.494 82.4159C201.244 82.1826 201.119 81.8326 201.119 81.3659V78.6659L205.244 77.9159L206.644 71.2409C206.827 70.4909 207.336 70.1159 208.169 70.1159H211.769V77.9659H230.069V103.591ZM231.144 70.4409C231.144 71.0076 231.027 71.5493 230.794 72.0659C230.561 72.5659 230.244 73.0076 229.844 73.3909C229.461 73.7576 229.002 74.0576 228.469 74.2909C227.952 74.5076 227.394 74.6159 226.794 74.6159C226.227 74.6159 225.686 74.5076 225.169 74.2909C224.669 74.0576 224.227 73.7576 223.844 73.3909C223.461 73.0076 223.152 72.5659 222.919 72.0659C222.702 71.5493 222.594 71.0076 222.594 70.4409C222.594 69.8576 222.702 69.3159 222.919 68.8159C223.152 68.2993 223.461 67.8493 223.844 67.4659C224.227 67.0826 224.669 66.7826 225.169 66.5659C225.686 66.3326 226.227 66.2159 226.794 66.2159C227.394 66.2159 227.952 66.3326 228.469 66.5659C229.002 66.7826 229.461 67.0826 229.844 67.4659C230.244 67.8493 230.561 68.2993 230.794 68.8159C231.027 69.3159 231.144 69.8576 231.144 70.4409ZM247.608 77.4159C249.541 77.4159 251.299 77.7243 252.883 78.3409C254.466 78.9576 255.824 79.8409 256.958 80.9909C258.091 82.1243 258.966 83.5076 259.583 85.1409C260.199 86.7743 260.508 88.6159 260.508 90.6659C260.508 92.7159 260.199 94.5659 259.583 96.2159C258.966 97.8493 258.091 99.2409 256.958 100.391C255.824 101.541 254.466 102.424 252.883 103.041C251.299 103.658 249.541 103.966 247.608 103.966C245.658 103.966 243.883 103.658 242.283 103.041C240.699 102.424 239.341 101.541 238.208 100.391C237.074 99.2409 236.191 97.8493 235.558 96.2159C234.941 94.5659 234.633 92.7159 234.633 90.6659C234.633 88.6159 234.941 86.7743 235.558 85.1409C236.191 83.5076 237.074 82.1243 238.208 80.9909C239.341 79.8409 240.699 78.9576 242.283 78.3409C243.883 77.7243 245.658 77.4159 247.608 77.4159ZM247.608 98.7909C249.574 98.7909 251.033 98.1159 251.983 96.7659C252.933 95.3993 253.408 93.3743 253.408 90.6909C253.408 88.0243 252.933 86.0159 251.983 84.6659C251.033 83.2993 249.574 82.6159 247.608 82.6159C245.591 82.6159 244.108 83.2993 243.158 84.6659C242.208 86.0159 241.733 88.0243 241.733 90.6909C241.733 93.3743 242.208 95.3993 243.158 96.7659C244.108 98.1159 245.591 98.7909 247.608 98.7909ZM271.24 80.8159C271.757 80.3159 272.29 79.8576 272.84 79.4409C273.407 79.0243 273.999 78.6659 274.615 78.3659C275.249 78.0659 275.924 77.8326 276.64 77.6659C277.374 77.4993 278.165 77.4159 279.015 77.4159C280.415 77.4159 281.657 77.6576 282.74 78.1409C283.824 78.6243 284.732 79.2993 285.465 80.1659C286.215 81.0326 286.774 82.0659 287.14 83.2659C287.524 84.4659 287.715 85.7826 287.715 87.2159V103.591H280.84V87.2159C280.84 85.7826 280.507 84.6743 279.84 83.8909C279.174 83.0909 278.19 82.6909 276.89 82.6909C275.924 82.6909 275.015 82.8993 274.165 83.3159C273.315 83.7326 272.507 84.3159 271.74 85.0659V103.591H264.84V77.8159H269.09C269.957 77.8159 270.532 78.2159 270.815 79.0159L271.24 80.8159Z" fill="#00BBFF"/>
<path d="M108.575 76.675C110.542 76.675 112.333 76.9833 113.95 77.6C115.567 78.2167 116.95 79.1 118.1 80.25C119.267 81.4 120.167 82.8 120.8 84.45C121.45 86.0833 121.775 87.925 121.775 89.975C121.775 92.0417 121.45 93.9083 120.8 95.575C120.167 97.225 119.267 98.6333 118.1 99.8C116.95 100.95 115.567 101.842 113.95 102.475C112.333 103.092 110.542 103.4 108.575 103.4C106.592 103.4 104.783 103.092 103.15 102.475C101.533 101.842 100.133 100.95 98.95 99.8C97.7833 98.6333 96.875 97.225 96.225 95.575C95.5917 93.9083 95.275 92.0417 95.275 89.975C95.275 87.925 95.5917 86.0833 96.225 84.45C96.875 82.8 97.7833 81.4 98.95 80.25C100.133 79.1 101.533 78.2167 103.15 77.6C104.783 76.9833 106.592 76.675 108.575 76.675ZM108.575 97.65C110.358 97.65 111.667 97.025 112.5 95.775C113.35 94.5083 113.775 92.5917 113.775 90.025C113.775 87.4583 113.35 85.55 112.5 84.3C111.667 83.05 110.358 82.425 108.575 82.425C106.742 82.425 105.4 83.05 104.55 84.3C103.7 85.55 103.275 87.4583 103.275 90.025C103.275 92.5917 103.7 94.5083 104.55 95.775C105.4 97.025 106.742 97.65 108.575 97.65Z" fill="#00BBFF"/>
<path d="M29.8769 16.2335C29.8769 10.7164 36.992 10.7164 36.992 16.2335L36.992 37.6125C36.992 39.1383 37.5654 48.4992 28.9874 48.8111C28.8156 48.8174 28.7163 48.6174 28.8284 48.4871C28.8357 48.4786 28.8438 48.4706 28.8524 48.4634C29.8769 47.6021 29.8769 46.399 29.877 44.8539L29.877 44.8537L29.8769 16.2335Z" fill="#00BBFF"/>
<path d="M22.9921 29.0355C20.6841 29.1968 15.0807 41.1926 10.7361 48.6795C10.6852 48.7671 10.5926 48.8191 10.4913 48.8191C7.38165 48.8191 8.85464 40.3577 8.5273 34.4997C8.5273 34.3573 8.56298 34.215 8.62987 34.0892C13.1759 25.5403 17.5704 21.3219 23.0935 28.8588C23.1393 28.9195 23.0679 29.0302 22.9921 29.0355Z" fill="#00BBFF"/>
<path d="M19.3312 36.626C20.4177 34.7364 24.1016 28.5452 24.9668 29.9136L28.346 34.6856C28.4656 34.8546 28.5298 35.0618 28.53 35.2688C28.5361 43.8946 28.7761 46.188 26.8682 47.2949C26.4689 47.5266 25.9715 47.3564 25.7118 46.9749L19.3754 37.6688C19.1627 37.3564 19.1428 36.9536 19.3312 36.626Z" fill="#00BBFF"/>
<path d="M7.12306 15.4234C7.12306 9.76915 0.00797105 9.76915 0.00797105 15.4234L0.00797105 37.3339C0.00797105 38.8973 -0.565087 48.4868 8.00665 48.8107C8.18234 48.8173 8.28483 48.6138 8.17182 48.4791C8.1644 48.4702 8.15609 48.4619 8.14734 48.4544C7.12308 47.5717 7.12306 46.3387 7.12305 44.7553V44.7552L7.12306 15.4234Z" fill="#00BBFF"/>
<path d="M159.399 46.1914C159.399 50.118 165.993 50.118 165.993 46.1914L165.993 30.9758C165.993 29.8877 166.526 23.2007 158.526 23.0044C158.401 23.0013 158.335 23.1546 158.429 23.238C158.434 23.2429 158.44 23.2474 158.446 23.2514C159.399 23.8645 159.399 24.7214 159.399 25.8221L159.399 25.8222L159.399 46.1914Z" fill="#00BBFF"/>
<path d="M153.523 38.4696C151.477 38.3946 146.467 28.9911 142.583 23.1201C142.532 23.0441 142.448 23 142.357 23C139.584 23 140.897 29.616 140.605 34.1963C140.605 34.3073 140.636 34.4176 140.694 34.5125C144.75 41.2001 148.67 44.5015 153.597 38.607C153.636 38.5609 153.584 38.4718 153.523 38.4696Z" fill="#00BBFF"/>
<path d="M150.353 32.7034C151.441 34.3476 154.524 38.8139 155.268 37.782L158.224 34.1226C158.367 33.9447 158.446 33.7184 158.446 33.4897C158.453 26.854 158.655 25.0646 156.981 24.2003C156.605 24.0062 156.154 24.1566 155.894 24.4908L150.403 31.5616C150.144 31.8946 150.121 32.3517 150.353 32.7034Z" fill="#00BBFF"/>
<path d="M139.601 46.1914C139.601 50.118 133.007 50.118 133.007 46.1914V30.9758C133.007 29.8877 132.474 23.2007 140.474 23.0044C140.599 23.0013 140.665 23.1546 140.571 23.238C140.566 23.2429 140.56 23.2474 140.554 23.2514C139.601 23.8645 139.601 24.7214 139.601 25.8221V25.8222L139.601 46.1914Z" fill="#00BBFF"/>
<path d="M187.2 33.075C187.2 32.3583 187.1 31.675 186.9 31.025C186.717 30.375 186.417 29.8 186 29.3C185.583 28.8 185.058 28.4083 184.425 28.125C183.792 27.825 183.033 27.675 182.15 27.675C180.5 27.675 179.208 28.1417 178.275 29.075C177.342 30.0083 176.733 31.3417 176.45 33.075H187.2ZM176.35 37.175C176.567 39.5917 177.25 41.3583 178.4 42.475C179.567 43.5917 181.083 44.15 182.95 44.15C183.9 44.15 184.717 44.0417 185.4 43.825C186.1 43.5917 186.708 43.3417 187.225 43.075C187.758 42.7917 188.233 42.5417 188.65 42.325C189.083 42.0917 189.508 41.975 189.925 41.975C190.458 41.975 190.875 42.175 191.175 42.575L193.175 45.075C192.442 45.925 191.633 46.6333 190.75 47.2C189.867 47.75 188.95 48.1917 188 48.525C187.05 48.8417 186.092 49.0583 185.125 49.175C184.158 49.3083 183.225 49.375 182.325 49.375C180.525 49.375 178.842 49.0833 177.275 48.5C175.725 47.9 174.367 47.025 173.2 45.875C172.05 44.7083 171.142 43.2667 170.475 41.55C169.808 39.8333 169.475 37.8417 169.475 35.575C169.475 33.825 169.758 32.175 170.325 30.625C170.908 29.075 171.742 27.725 172.825 26.575C173.908 25.425 175.225 24.5167 176.775 23.85C178.325 23.1667 180.075 22.825 182.025 22.825C183.675 22.825 185.192 23.0917 186.575 23.625C187.975 24.1417 189.175 24.9 190.175 25.9C191.192 26.9 191.975 28.1333 192.525 29.6C193.092 31.05 193.375 32.7083 193.375 34.575C193.375 35.0917 193.35 35.5167 193.3 35.85C193.25 36.1833 193.167 36.45 193.05 36.65C192.933 36.85 192.775 36.9917 192.575 37.075C192.375 37.1417 192.117 37.175 191.8 37.175H176.35Z" fill="#00BBFF"/>
<path d="M164.262 98.3956C164.262 104.05 170.992 104.05 170.992 98.3956L170.992 76.4852C170.992 74.9227 171.534 65.343 163.44 65.009C163.265 65.0017 163.161 65.2024 163.27 65.3396C163.277 65.3487 163.285 65.3573 163.294 65.3652C164.262 66.2478 164.262 67.4807 164.262 69.0638L164.262 69.0639L164.262 98.3956Z" fill="#00BBFF"/>
<path d="M156.992 84.7835C154.684 84.6223 149.081 72.6265 144.736 65.1396C144.685 65.0519 144.593 65 144.491 65C141.382 65 142.855 73.4614 142.527 79.3193C142.527 79.4618 142.563 79.6041 142.63 79.7299C147.176 88.2788 151.57 92.4972 157.093 84.9603C157.139 84.8996 157.068 84.7888 156.992 84.7835Z" fill="#00BBFF"/>
<path d="M153.331 77.1932C154.418 79.0828 158.102 85.274 158.967 83.9056L162.346 79.1336C162.466 78.9646 162.53 78.7574 162.53 78.5504C162.536 69.9246 162.776 67.6312 160.868 66.5243C160.469 66.2926 159.972 66.4628 159.712 66.8443L153.375 76.1504C153.163 76.4628 153.143 76.8656 153.331 77.1932Z" fill="#00BBFF"/>
<path d="M141.123 98.3956C141.123 104.05 134.008 104.05 134.008 98.3956V76.4852C134.008 74.9218 133.435 65.3323 142.007 65.0084C142.182 65.0018 142.285 65.2053 142.172 65.34C142.164 65.3489 142.156 65.3572 142.147 65.3647C141.123 66.2474 141.123 67.4804 141.123 69.0638V69.0639L141.123 98.3956Z" fill="#00BBFF"/>
<path d="M81.6427 99.7593C81.6427 105.414 74.228 105.414 74.228 99.7593L74.228 77.8488C74.228 76.2849 73.6304 66.6885 82.5738 66.3717C82.75 66.3654 82.8513 66.5713 82.7353 66.704C82.7277 66.7126 82.7193 66.7207 82.7105 66.728C81.6427 67.6107 81.6427 68.8439 81.6426 70.4274L81.6426 70.4276L81.6427 99.7593Z" fill="#00BBFF"/>
<path d="M81.4688 65.5442C78.9788 65.0924 69.9983 75.3993 63.4835 81.6255C63.4016 81.7037 63.2876 81.7342 63.1784 81.7092C59.8482 80.9469 63.5163 73.0825 64.6132 67.3076C64.6483 67.1695 64.7208 67.0406 64.8211 66.9372C71.8034 59.7385 77.5531 56.7125 81.6064 65.3947C81.6397 65.4635 81.545 65.558 81.4688 65.5442Z" fill="#00BBFF"/>
<path d="M93.1541 77.4048C91.9247 79.3423 87.9185 85.4335 86.9723 84.075L83.2586 79.3145C83.1215 79.1388 83.0471 78.9168 83.0469 78.6939C83.0395 69.9393 82.7687 67.7216 84.9897 66.6369C85.379 66.4468 85.8399 66.5981 86.0998 66.9447L93.1069 76.2863C93.3528 76.6142 93.3736 77.0587 93.1541 77.4048Z" fill="#00BBFF"/>
</svg>
