<svg width="261" height="183" viewBox="0 0 261 183" fill="none" xmlns="http://www.w3.org/2000/svg">
<path d="M151.997 125.349C151.324 158.723 49.8887 180 32.6169 180C16.1503 180 -1.01179 160.696 0.0465829 135.234C0.151186 132.718 0.674425 130.244 1.09316 127.76C3.34569 114.399 5.54939 82.1907 12.9129 70.1951C22.3076 54.8908 44.5428 80.1163 62.3121 82.7116C98.333 87.9725 152.487 100.996 151.997 125.349Z" fill="#9AF99A"/>
<path d="M111.129 97.5475C111.696 104.331 110.126 111.34 107.936 117.786C99.194 143.511 58.2788 154.23 42.0404 154.23C24.7005 154.343 4.3625 64.3554 6.56625 35.4551C7.58679 2.71861 22.6196 13.5181 37.3949 20.2183C40.4413 21.5998 43.4583 22.9912 46.242 24.8459C64.3298 36.8975 108.918 71.0787 111.129 97.5475Z" fill="#9AF99A"/>
<path d="M142.91 51.8377C142.91 85.9398 120.581 143.573 93.6648 122.634C79.4932 111.609 67.3349 99.2143 67.3349 92.7944C65.8499 79.4235 87.1171 56.2582 104.866 38.7789C115.376 28.4286 133.934 21.4571 140.072 34.8698C142.066 39.2252 143.063 44.8284 142.91 51.8377Z" fill="#9AF99A"/>
<path d="M105.587 52.6653C105.587 58.603 97.9494 70.0719 87.3869 70.0719C76.8243 70.0719 64.5601 56.0431 64.5601 50.1054C64.5601 44.1678 76.8243 51.6413 87.3869 51.6413C97.9494 51.6413 105.587 46.7276 105.587 52.6653Z" fill="#9AF99A"/>
<path d="M244 83L258.731 87.2854C258.863 87.3237 258.918 87.4804 258.839 87.5927L256.692 90.6364M244 83L256.692 90.6364M244 83L252.511 94.8017C252.585 94.9042 252.734 94.9133 252.82 94.8206L255.178 92.2727M244 83L255.178 92.2727M256.692 90.6364L255.178 92.2727" stroke="#0AE500"/>
<path d="M35 83.1846C35 87.6578 33.1651 89.9961 28.627 89.9961C24.0889 89.9961 23 90.2887 23 85.8154C23 81.3422 24.8349 79.0039 29.373 79.0039C33.9111 79.0039 35 78.7113 35 83.1846Z" fill="#1A341A"/>
<path d="M103.153 55.9497C101.718 50.7384 101.533 45.153 98.6083 40.8122L89.2799 56.6941C91.0874 60.0063 91.3263 61.488 86.6488 61.6572L85.9312 66.6203C88.3257 64.4826 90.9622 65.9013 95.2596 67.613C98.79 69.9179 100.513 71.338 102.196 74.5613L109.85 64.3869L103.153 55.9497Z" fill="#E9B184"/>
<path d="M122.917 95.6545L100.105 74.3504L109.629 62.7491L152.594 91.225C162.722 96.703 161.618 106.623 154.366 111.053C147.114 115.482 127.293 122.35 109.629 125.818C106.75 126.24 105.642 126.662 105.642 130.458L107.414 157.879C96.5619 163.153 79.5085 175.387 63.784 180.238L63.1196 180.66C42.3012 188.254 15.6694 177.53 0 146.067V145.645L14.3957 106.201L15.503 104.725C18.8251 101.35 36.2869 95.2248 49.8312 89.9594C53.4305 103.304 71.757 102.615 74.8576 91.225H75.522L122.917 95.6545Z" fill="#00B0F0"/>
<path d="M74.6361 92.7321C69.7637 103.701 53.5963 104.755 49.6098 91.4665L54.0392 69.9514V68.6858C48.6531 65.581 50.1611 56.2502 52.9319 53.9677C54.4905 52.6837 56.4488 52.5621 57.8042 54.7643L58.6901 42.9215L83.0521 38.9138L87.0386 59.4048C85.8114 75.5847 79.9515 87.0369 76.1864 87.0369L75.522 88.0916L74.6361 92.7321Z" fill="#E9B184"/>
<path d="M75.522 88.0916L74.6361 92.7321C69.7637 103.701 53.5963 104.755 49.6098 91.4665L54.0392 69.9514V68.6858C48.6531 65.581 50.1611 56.2502 52.9319 53.9677C54.4905 52.6837 56.4488 52.5621 57.8042 54.7643M75.522 88.0916L76.1864 87.0369C79.9515 87.0369 85.8114 75.5847 87.0386 59.4048L83.0521 38.9138L58.6901 42.9215L57.8042 54.7643M75.522 88.0916H74.6361C67.5568 86.2761 63.6934 84.6732 57.8042 76.2794M57.8042 54.7643L57.5828 61.5141" stroke="#E9B184"/>
<path d="M75.965 87.6391C69.3782 86.4546 63.2921 85.4932 59.576 77.0925" stroke="#A40031"/>
<path d="M57.4417 61.1805C59.0826 63.8319 60.0936 62.7687 61.8711 61.6024V56.54V55.6963C61.8593 54.4368 62.8229 53.6481 66.0791 52.1104C66.648 45.4527 67.6294 41.9857 68.7368 43.4622L69.8441 48.8276C81.986 65.2792 95.7564 60.007 97.7496 46.2964V41.5638C97.5483 32.4166 80.0319 22.369 64.0859 34.814L63.2 35.4468C54.5893 38.6208 52.2198 42.338 52.7908 52.7432V53.6341C54.3494 52.3501 56.3077 52.2285 57.6632 54.4307L57.4417 61.1805Z" fill="#510000" stroke="#450101"/>
<path d="M180.539 98.02C180.539 98.1133 180.499 98.1933 180.419 98.26C180.353 98.3133 180.286 98.34 180.219 98.34C180.099 98.34 179.906 98.3533 179.639 98.38C179.386 98.4067 179.106 98.44 178.799 98.48C178.506 98.5067 178.213 98.54 177.919 98.58C177.639 98.6067 177.413 98.6333 177.239 98.66C177.186 98.66 177.073 98.6667 176.899 98.68C176.739 98.6933 176.553 98.7133 176.339 98.74C176.139 98.7533 175.933 98.7733 175.719 98.8C175.519 98.8267 175.359 98.8467 175.239 98.86C175.093 98.8867 174.879 98.9333 174.599 99C174.319 99.0667 174.066 99.1333 173.839 99.2C173.759 99.2267 173.686 99.2467 173.619 99.26C173.553 99.2733 173.499 99.2867 173.459 99.3C173.406 99.3133 173.359 99.3267 173.319 99.34L174.399 103.16C174.439 103.28 174.506 103.473 174.599 103.74C174.693 104.007 174.799 104.3 174.919 104.62C175.053 104.94 175.186 105.273 175.319 105.62C175.466 105.967 175.593 106.287 175.699 106.58C175.766 106.753 175.839 106.967 175.919 107.22C175.999 107.473 176.073 107.733 176.139 108C176.206 108.253 176.259 108.487 176.299 108.7C176.353 108.913 176.379 109.06 176.379 109.14C176.379 109.327 176.326 109.52 176.219 109.72C176.113 109.933 175.973 110.04 175.799 110.04C175.639 110.04 175.559 109.927 175.559 109.7V109.56C175.559 109.52 175.559 109.473 175.559 109.42C175.573 109.367 175.579 109.307 175.579 109.24C175.579 109.133 175.539 108.953 175.459 108.7C175.379 108.433 175.279 108.14 175.159 107.82C175.039 107.487 174.906 107.14 174.759 106.78C174.626 106.407 174.493 106.06 174.359 105.74C174.239 105.407 174.133 105.127 174.039 104.9C173.946 104.66 173.886 104.5 173.859 104.42C173.819 104.313 173.766 104.16 173.699 103.96C173.646 103.76 173.579 103.533 173.499 103.28C173.419 103.027 173.333 102.76 173.239 102.48C173.159 102.187 173.079 101.9 172.999 101.62C172.799 100.967 172.579 100.253 172.339 99.48C172.273 99.4933 172.053 99.5267 171.679 99.58C171.319 99.62 170.913 99.6667 170.459 99.72C170.006 99.7733 169.573 99.8267 169.159 99.88C168.746 99.92 168.466 99.94 168.319 99.94C167.986 99.94 167.773 99.8867 167.679 99.78C167.586 99.6733 167.533 99.54 167.519 99.38C167.519 99.2733 167.546 99.1667 167.599 99.06C167.653 98.94 167.726 98.88 167.819 98.88C167.926 98.88 168.013 98.9 168.079 98.94C168.133 98.9667 168.206 98.98 168.299 98.98C168.326 98.98 168.459 98.9667 168.699 98.94C168.953 98.9133 169.246 98.88 169.579 98.84C169.926 98.8 170.279 98.76 170.639 98.72C171.013 98.68 171.339 98.6467 171.619 98.62C171.686 98.62 171.753 98.62 171.819 98.62C171.899 98.6067 171.973 98.5933 172.039 98.58C172.106 98.5667 172.173 98.56 172.239 98.56C172.239 98.52 172.259 98.4333 172.299 98.3C172.353 98.1533 172.406 98.08 172.459 98.08C172.593 98.08 172.699 98.1333 172.779 98.24C172.873 98.3333 172.953 98.4 173.019 98.44C173.113 98.4267 173.253 98.4 173.439 98.36C173.639 98.3067 173.846 98.26 174.059 98.22C174.286 98.18 174.499 98.1467 174.699 98.12C174.913 98.08 175.093 98.0533 175.239 98.04L177.579 97.9C177.779 97.8867 178.006 97.8733 178.259 97.86C178.526 97.8333 178.786 97.8067 179.039 97.78C179.293 97.7533 179.513 97.7333 179.699 97.72C179.886 97.6933 180.013 97.68 180.079 97.68C180.199 97.6933 180.306 97.7333 180.399 97.8C180.493 97.8667 180.539 97.94 180.539 98.02ZM182.754 102.9C182.754 102.993 182.714 103.073 182.634 103.14C182.554 103.193 182.461 103.24 182.354 103.28C182.248 103.32 182.141 103.353 182.034 103.38C181.928 103.393 181.841 103.4 181.774 103.4C181.574 103.4 181.441 103.387 181.374 103.36C181.308 103.333 181.254 103.32 181.214 103.32C180.881 103.32 180.614 103.347 180.414 103.4C180.214 103.453 180.054 103.54 179.934 103.66C179.828 103.78 179.754 103.933 179.714 104.12C179.688 104.293 179.674 104.507 179.674 104.76C179.674 105.187 179.688 105.527 179.714 105.78C179.754 106.033 179.788 106.24 179.814 106.4C179.854 106.56 179.888 106.687 179.914 106.78C179.954 106.86 179.974 106.94 179.974 107.02C179.974 107.127 179.914 107.24 179.794 107.36C179.688 107.48 179.588 107.54 179.494 107.54C179.334 107.54 179.188 107.4 179.054 107.12C178.934 106.827 178.828 106.487 178.734 106.1C178.654 105.7 178.588 105.307 178.534 104.92C178.481 104.533 178.454 104.24 178.454 104.04C178.454 103.813 178.474 103.6 178.514 103.4C178.554 103.187 178.608 103.007 178.674 102.86C178.741 102.7 178.814 102.573 178.894 102.48C178.974 102.387 179.054 102.34 179.134 102.34C179.201 102.34 179.254 102.367 179.294 102.42C179.334 102.46 179.368 102.513 179.394 102.58C179.421 102.633 179.448 102.687 179.474 102.74C179.514 102.78 179.561 102.8 179.614 102.8C179.734 102.8 179.928 102.74 180.194 102.62C180.461 102.5 180.788 102.44 181.174 102.44C181.534 102.44 181.801 102.453 181.974 102.48C182.161 102.493 182.341 102.533 182.514 102.6C182.554 102.613 182.601 102.647 182.654 102.7C182.721 102.74 182.754 102.807 182.754 102.9ZM193.863 104.84C193.863 105.08 193.749 105.38 193.523 105.74C193.309 106.087 193.016 106.427 192.643 106.76C192.269 107.093 191.836 107.38 191.343 107.62C190.849 107.847 190.336 107.96 189.803 107.96C189.563 107.96 189.309 107.92 189.043 107.84C188.776 107.76 188.516 107.647 188.263 107.5C188.009 107.34 187.783 107.153 187.583 106.94C187.383 106.713 187.236 106.46 187.143 106.18C187.063 106.26 186.963 106.393 186.843 106.58C186.736 106.767 186.616 106.96 186.483 107.16C186.349 107.347 186.203 107.513 186.043 107.66C185.883 107.793 185.716 107.86 185.543 107.86C185.369 107.86 185.223 107.773 185.103 107.6C184.996 107.413 184.909 107.213 184.843 107C184.776 106.773 184.729 106.56 184.703 106.36C184.676 106.16 184.663 106.047 184.663 106.02C184.663 105.86 184.709 105.56 184.803 105.12C184.896 104.667 185.036 104.2 185.223 103.72C185.409 103.24 185.643 102.813 185.923 102.44C186.216 102.067 186.556 101.88 186.943 101.88C187.089 101.88 187.183 101.947 187.223 102.08C187.276 102.2 187.303 102.32 187.303 102.44V103.04C187.369 103.093 187.436 103.133 187.503 103.16C187.583 103.173 187.649 103.2 187.703 103.24C187.769 103.267 187.816 103.313 187.843 103.38C187.883 103.447 187.903 103.553 187.903 103.7C187.903 103.793 187.896 103.88 187.883 103.96C187.869 104.027 187.863 104.093 187.863 104.16C187.863 104.507 187.889 104.847 187.943 105.18C187.996 105.513 188.103 105.813 188.263 106.08C188.423 106.333 188.643 106.547 188.923 106.72C189.203 106.88 189.576 106.96 190.043 106.96C190.629 106.96 191.123 106.84 191.523 106.6C191.936 106.347 192.276 106.073 192.543 105.78C192.823 105.473 193.043 105.2 193.203 104.96C193.363 104.707 193.496 104.58 193.603 104.58C193.776 104.58 193.863 104.667 193.863 104.84ZM186.843 103.96C186.843 103.907 186.829 103.86 186.803 103.82C186.776 103.767 186.763 103.72 186.763 103.68C186.763 103.627 186.776 103.58 186.803 103.54C186.829 103.5 186.843 103.447 186.843 103.38C186.843 103.34 186.829 103.313 186.803 103.3C186.776 103.273 186.763 103.247 186.763 103.22C186.643 103.247 186.516 103.36 186.383 103.56C186.263 103.76 186.143 103.993 186.023 104.26C185.916 104.527 185.829 104.8 185.763 105.08C185.696 105.347 185.663 105.567 185.663 105.74C185.663 105.833 185.689 105.987 185.743 106.2C185.796 106.413 185.856 106.553 185.923 106.62C186.149 106.153 186.356 105.7 186.543 105.26C186.743 104.82 186.843 104.387 186.843 103.96ZM199.869 105.36C199.869 105.493 199.849 105.633 199.809 105.78C199.769 105.913 199.729 106.027 199.689 106.12C199.662 106.16 199.535 106.3 199.309 106.54C199.095 106.767 198.822 107.007 198.489 107.26C198.169 107.513 197.802 107.747 197.389 107.96C196.989 108.16 196.602 108.26 196.229 108.26C196.002 108.26 195.769 108.22 195.529 108.14C195.302 108.06 195.089 107.933 194.889 107.76C194.689 107.573 194.522 107.347 194.389 107.08C194.269 106.813 194.209 106.487 194.209 106.1C194.209 105.46 194.315 104.88 194.529 104.36C194.742 103.84 194.955 103.427 195.169 103.12C195.262 102.973 195.382 102.827 195.529 102.68C195.689 102.52 195.842 102.38 195.989 102.26C196.135 102.127 196.269 102.02 196.389 101.94C196.522 101.86 196.615 101.82 196.669 101.82C196.789 101.82 196.895 101.853 196.989 101.92C197.095 101.987 197.149 102.053 197.149 102.12C197.149 102.227 197.115 102.32 197.049 102.4C196.995 102.467 196.915 102.547 196.809 102.64C196.702 102.72 196.575 102.833 196.429 102.98C196.282 103.113 196.129 103.293 195.969 103.52C195.649 103.96 195.409 104.413 195.249 104.88C195.102 105.333 195.029 105.733 195.029 106.08C195.029 106.427 195.155 106.707 195.409 106.92C195.675 107.12 195.949 107.22 196.229 107.22C196.735 107.22 197.182 107.107 197.569 106.88C197.969 106.653 198.309 106.4 198.589 106.12C198.869 105.84 199.095 105.587 199.269 105.36C199.442 105.133 199.569 105.02 199.649 105.02C199.795 105.02 199.869 105.133 199.869 105.36ZM208.572 106.86C208.572 106.967 208.559 107.047 208.532 107.1C208.505 107.14 208.439 107.173 208.332 107.2C208.212 107.24 208.059 107.287 207.872 107.34C207.699 107.38 207.505 107.427 207.292 107.48C207.079 107.52 206.859 107.56 206.632 107.6C206.419 107.627 206.219 107.64 206.032 107.64C205.805 107.64 205.552 107.627 205.272 107.6C205.005 107.573 204.745 107.533 204.492 107.48C204.239 107.413 204.005 107.347 203.792 107.28C203.592 107.2 203.445 107.107 203.352 107C203.419 107.28 203.479 107.56 203.532 107.84C203.585 108.12 203.625 108.4 203.652 108.68C203.652 108.747 203.632 108.807 203.592 108.86C203.565 108.9 203.479 108.92 203.332 108.92C203.265 108.92 203.199 108.907 203.132 108.88C203.079 108.84 203.032 108.767 202.992 108.66C202.872 108.393 202.772 108.147 202.692 107.92C202.612 107.68 202.539 107.44 202.472 107.2C202.419 106.96 202.359 106.707 202.292 106.44C202.225 106.173 202.145 105.88 202.052 105.56C201.905 105.04 201.752 104.487 201.592 103.9C201.432 103.3 201.285 102.733 201.152 102.2C201.019 101.653 200.912 101.173 200.832 100.76C200.752 100.333 200.712 100.033 200.712 99.86C200.712 99.78 200.712 99.6733 200.712 99.54C200.725 99.4067 200.745 99.28 200.772 99.16C200.812 99.0267 200.859 98.92 200.912 98.84C200.979 98.7467 201.065 98.7 201.172 98.7C201.239 98.7 201.305 98.8067 201.372 99.02C201.452 99.22 201.519 99.4467 201.572 99.7C201.639 99.94 201.692 100.173 201.732 100.4C201.785 100.613 201.812 100.727 201.812 100.74C201.865 101.033 201.925 101.36 201.992 101.72C202.072 102.067 202.152 102.42 202.232 102.78C202.312 103.14 202.399 103.487 202.492 103.82C202.585 104.14 202.685 104.413 202.792 104.64C202.805 104.507 202.852 104.313 202.932 104.06C203.012 103.807 203.119 103.533 203.252 103.24C203.385 102.947 203.532 102.647 203.692 102.34C203.865 102.02 204.039 101.733 204.212 101.48C204.399 101.227 204.579 101.02 204.752 100.86C204.939 100.7 205.112 100.62 205.272 100.62C205.525 100.62 205.699 100.653 205.792 100.72C205.899 100.787 205.952 100.867 205.952 100.96C205.952 101.04 205.839 101.2 205.612 101.44C205.385 101.667 205.132 101.973 204.852 102.36C204.572 102.733 204.319 103.18 204.092 103.7C203.865 104.207 203.752 104.773 203.752 105.4C203.752 105.627 203.812 105.827 203.932 106C204.065 106.16 204.232 106.293 204.432 106.4C204.645 106.507 204.879 106.593 205.132 106.66C205.399 106.713 205.659 106.74 205.912 106.74C206.139 106.74 206.385 106.733 206.652 106.72C206.919 106.707 207.165 106.693 207.392 106.68C207.632 106.653 207.832 106.633 207.992 106.62C208.165 106.607 208.272 106.6 208.312 106.6C208.379 106.6 208.439 106.62 208.492 106.66C208.545 106.7 208.572 106.767 208.572 106.86ZM224.322 107.48C224.322 107.573 224.282 107.647 224.202 107.7C224.082 107.78 223.875 107.893 223.582 108.04C223.289 108.187 222.962 108.34 222.602 108.5C222.255 108.66 221.889 108.827 221.502 109C221.115 109.173 220.762 109.327 220.442 109.46C220.122 109.593 219.849 109.7 219.622 109.78C219.409 109.873 219.295 109.92 219.282 109.92C219.175 109.92 219.055 109.8 218.922 109.56C218.802 109.32 218.682 109 218.562 108.6C218.442 108.187 218.329 107.713 218.222 107.18C218.115 106.633 218.015 106.06 217.922 105.46C217.842 104.86 217.775 104.253 217.722 103.64C217.682 103.013 217.662 102.413 217.662 101.84C217.662 100.987 217.702 100.32 217.782 99.84C217.875 99.36 217.975 99 218.082 98.76C218.202 98.52 218.309 98.3733 218.402 98.32C218.495 98.2533 218.549 98.22 218.562 98.22C218.669 98.22 218.755 98.2667 218.822 98.36C218.889 98.4533 218.922 98.5467 218.922 98.64C218.922 98.6933 218.895 98.7867 218.842 98.92C218.789 99.0533 218.729 99.24 218.662 99.48C218.609 99.72 218.555 100.027 218.502 100.4C218.462 100.773 218.442 101.227 218.442 101.76C218.442 102.24 218.462 102.74 218.502 103.26C218.555 103.78 218.622 104.293 218.702 104.8C218.782 105.307 218.869 105.787 218.962 106.24C219.069 106.693 219.175 107.093 219.282 107.44C219.389 107.787 219.489 108.067 219.582 108.28C219.675 108.48 219.762 108.58 219.842 108.58C219.855 108.58 219.942 108.547 220.102 108.48C220.262 108.413 220.462 108.333 220.702 108.24C220.942 108.133 221.202 108.033 221.482 107.94C221.775 107.833 222.069 107.74 222.362 107.66C222.495 107.62 222.649 107.58 222.822 107.54C223.009 107.487 223.182 107.44 223.342 107.4C223.502 107.36 223.642 107.327 223.762 107.3C223.895 107.273 223.975 107.26 224.002 107.26C224.215 107.26 224.322 107.333 224.322 107.48ZM226.578 99.8C226.578 99.8267 226.531 99.88 226.438 99.96C226.344 100.04 226.231 100.127 226.098 100.22C225.978 100.3 225.851 100.373 225.718 100.44C225.584 100.507 225.478 100.54 225.398 100.54C225.344 100.54 225.271 100.54 225.178 100.54C225.098 100.527 225.011 100.5 224.918 100.46C224.838 100.42 224.764 100.367 224.698 100.3C224.631 100.22 224.598 100.12 224.598 100C224.598 99.8133 224.664 99.64 224.798 99.48C224.931 99.3067 225.104 99.22 225.318 99.22C225.358 99.22 225.444 99.24 225.578 99.28C225.724 99.3067 225.871 99.3467 226.018 99.4C226.164 99.4533 226.291 99.5133 226.398 99.58C226.518 99.6467 226.578 99.72 226.578 99.8ZM227.238 107.28C227.238 107.373 227.164 107.453 227.018 107.52C226.884 107.587 226.784 107.62 226.718 107.62C226.584 107.62 226.464 107.533 226.358 107.36C226.251 107.187 226.158 106.987 226.078 106.76C225.998 106.533 225.931 106.32 225.878 106.12C225.824 105.907 225.784 105.76 225.758 105.68C225.718 105.547 225.664 105.387 225.598 105.2C225.531 105.013 225.464 104.833 225.398 104.66C225.344 104.487 225.298 104.333 225.258 104.2C225.218 104.067 225.198 103.993 225.198 103.98C225.198 103.793 225.231 103.62 225.298 103.46C225.378 103.3 225.471 103.22 225.578 103.22C225.698 103.22 225.824 103.313 225.958 103.5C226.091 103.687 226.218 103.927 226.338 104.22C226.471 104.5 226.591 104.813 226.698 105.16C226.804 105.493 226.898 105.813 226.978 106.12C227.058 106.413 227.118 106.673 227.158 106.9C227.211 107.113 227.238 107.24 227.238 107.28ZM233.003 106.36C233.003 106.587 232.923 106.787 232.763 106.96C232.616 107.12 232.423 107.26 232.183 107.38C231.956 107.487 231.703 107.573 231.423 107.64C231.143 107.707 230.876 107.76 230.623 107.8C230.37 107.827 230.143 107.847 229.943 107.86C229.756 107.86 229.636 107.86 229.583 107.86C229.29 107.86 229.063 107.813 228.903 107.72C228.743 107.627 228.663 107.46 228.663 107.22C228.663 107.14 228.67 107.073 228.683 107.02C228.696 106.953 228.75 106.92 228.843 106.92C228.883 106.92 228.95 106.933 229.043 106.96C229.136 106.973 229.21 106.98 229.263 106.98C229.316 106.98 229.483 106.973 229.763 106.96C230.056 106.933 230.363 106.893 230.683 106.84C231.016 106.787 231.31 106.713 231.563 106.62C231.83 106.513 231.963 106.38 231.963 106.22C231.963 106.193 231.823 106.113 231.543 105.98C231.276 105.833 230.87 105.593 230.323 105.26C229.896 104.993 229.596 104.727 229.423 104.46C229.25 104.18 229.163 103.807 229.163 103.34C229.163 103.047 229.223 102.807 229.343 102.62C229.476 102.433 229.65 102.287 229.863 102.18C230.09 102.073 230.343 102 230.623 101.96C230.916 101.907 231.223 101.88 231.543 101.88C231.57 101.88 231.65 101.893 231.783 101.92C231.93 101.947 232.083 101.993 232.243 102.06C232.403 102.113 232.543 102.187 232.663 102.28C232.796 102.36 232.863 102.453 232.863 102.56C232.863 102.587 232.836 102.627 232.783 102.68C232.743 102.733 232.67 102.833 232.563 102.98C232.523 102.967 232.45 102.947 232.343 102.92C232.25 102.893 232.136 102.867 232.003 102.84C231.883 102.8 231.756 102.773 231.623 102.76C231.49 102.733 231.383 102.72 231.303 102.72C230.956 102.72 230.676 102.787 230.463 102.92C230.25 103.04 230.143 103.28 230.143 103.64C230.143 103.813 230.21 103.973 230.343 104.12C230.49 104.267 230.67 104.407 230.883 104.54C231.096 104.66 231.323 104.787 231.563 104.92C231.816 105.04 232.05 105.173 232.263 105.32C232.476 105.467 232.65 105.627 232.783 105.8C232.93 105.96 233.003 106.147 233.003 106.36ZM240.014 99.96C239.841 100.16 239.594 100.36 239.274 100.56C238.954 100.747 238.634 100.92 238.314 101.08C237.994 101.24 237.714 101.38 237.474 101.5C237.234 101.607 237.114 101.68 237.114 101.72C237.114 101.76 237.141 101.88 237.194 102.08C237.247 102.28 237.307 102.52 237.374 102.8C237.454 103.067 237.534 103.347 237.614 103.64C237.694 103.933 237.761 104.193 237.814 104.42C237.841 104.553 237.874 104.727 237.914 104.94C237.954 105.153 237.987 105.367 238.014 105.58C238.054 105.793 238.087 105.987 238.114 106.16C238.141 106.32 238.154 106.407 238.154 106.42C238.154 106.62 238.121 106.827 238.054 107.04C237.987 107.253 237.881 107.36 237.734 107.36C237.654 107.36 237.581 107.327 237.514 107.26C237.447 107.193 237.387 107.12 237.334 107.04C237.281 106.947 237.241 106.86 237.214 106.78C237.187 106.7 237.174 106.64 237.174 106.6C237.174 106.573 237.174 106.533 237.174 106.48C237.187 106.427 237.194 106.367 237.194 106.3C237.194 106.047 237.154 105.68 237.074 105.2C237.047 105.053 236.994 104.827 236.914 104.52C236.834 104.213 236.754 103.9 236.674 103.58C236.581 103.207 236.474 102.8 236.354 102.36C236.301 102.173 236.267 102.08 236.254 102.08C236.161 102.08 236.001 102.14 235.774 102.26C235.561 102.367 235.314 102.507 235.034 102.68C234.754 102.84 234.461 103.02 234.154 103.22C233.847 103.407 233.561 103.587 233.294 103.76C233.027 103.92 232.801 104.06 232.614 104.18C232.414 104.287 232.294 104.34 232.254 104.34C232.081 104.34 231.941 104.28 231.834 104.16C231.727 104.04 231.674 103.907 231.674 103.76C231.674 103.68 231.787 103.567 232.014 103.42C232.227 103.26 232.501 103.087 232.834 102.9C233.154 102.713 233.507 102.52 233.894 102.32C234.267 102.12 234.614 101.94 234.934 101.78C235.267 101.62 235.541 101.487 235.754 101.38C235.981 101.273 236.094 101.22 236.094 101.22C235.974 100.607 235.874 100.06 235.794 99.58C235.727 99.1667 235.661 98.7867 235.594 98.44C235.541 98.0933 235.514 97.9067 235.514 97.88C235.514 97.7067 235.547 97.58 235.614 97.5C235.694 97.4067 235.781 97.36 235.874 97.36C236.021 97.36 236.114 97.46 236.154 97.66C236.301 98.38 236.434 99.02 236.554 99.58C236.687 100.14 236.814 100.593 236.934 100.94C237.054 100.913 237.261 100.84 237.554 100.72C237.847 100.587 238.154 100.447 238.474 100.3C238.794 100.153 239.081 100.027 239.334 99.92C239.601 99.8 239.754 99.74 239.794 99.74C239.874 99.74 239.921 99.7667 239.934 99.82C239.961 99.8733 239.987 99.92 240.014 99.96ZM192.399 121.94C192.413 121.967 192.426 121.987 192.439 122C192.453 122 192.459 122.013 192.459 122.04C192.459 122.12 192.293 122.273 191.959 122.5C191.626 122.713 191.213 122.96 190.719 123.24C190.226 123.507 189.706 123.78 189.159 124.06C188.613 124.327 188.126 124.547 187.699 124.72C187.699 124.747 187.686 124.833 187.659 124.98C187.633 125.127 187.619 125.22 187.619 125.26V125.64C187.619 125.947 187.666 126.253 187.759 126.56C187.853 126.853 187.993 127.12 188.179 127.36C188.379 127.6 188.619 127.793 188.899 127.94C189.179 128.087 189.506 128.16 189.879 128.16C190.039 128.16 190.233 128.133 190.459 128.08C190.699 128.013 190.926 127.927 191.139 127.82C191.366 127.7 191.566 127.56 191.739 127.4C191.913 127.24 192.019 127.06 192.059 126.86C192.219 126.873 192.313 126.92 192.339 127C192.379 127.08 192.399 127.133 192.399 127.16C192.399 127.507 192.313 127.807 192.139 128.06C191.979 128.3 191.773 128.5 191.519 128.66C191.279 128.807 191.019 128.92 190.739 129C190.473 129.067 190.233 129.1 190.019 129.1C188.873 129.1 188.039 128.78 187.519 128.14C186.999 127.5 186.739 126.66 186.739 125.62C186.739 125.567 186.753 125.447 186.779 125.26C186.806 125.073 186.819 124.947 186.819 124.88C186.819 124.867 186.793 124.853 186.739 124.84C186.686 124.813 186.626 124.787 186.559 124.76C186.506 124.733 186.453 124.693 186.399 124.64C186.359 124.573 186.339 124.487 186.339 124.38C186.339 124.273 186.379 124.187 186.459 124.12C186.539 124.053 186.633 123.993 186.739 123.94L186.939 123.82C187.059 123.313 187.199 122.827 187.359 122.36C187.533 121.88 187.746 121.4 187.999 120.92C187.893 120.92 187.779 120.907 187.659 120.88C187.539 120.853 187.479 120.76 187.479 120.6C187.479 120.413 187.586 120.207 187.799 119.98C188.026 119.753 188.279 119.54 188.559 119.34C188.853 119.14 189.139 118.973 189.419 118.84C189.699 118.693 189.899 118.62 190.019 118.62C190.073 118.62 190.106 118.633 190.119 118.66C190.146 118.673 190.186 118.68 190.239 118.68C190.346 118.68 190.479 118.66 190.639 118.62C190.813 118.58 190.993 118.533 191.179 118.48C191.366 118.427 191.539 118.38 191.699 118.34C191.873 118.3 192.013 118.28 192.119 118.28C192.239 118.28 192.326 118.32 192.379 118.4C192.446 118.48 192.479 118.567 192.479 118.66C192.479 118.767 192.413 118.847 192.279 118.9C192.146 118.94 192.026 118.973 191.919 119C191.546 119.067 191.153 119.187 190.739 119.36C190.339 119.52 189.966 119.7 189.619 119.9C189.486 120.047 189.326 120.26 189.139 120.54C188.953 120.807 188.773 121.113 188.599 121.46C188.426 121.807 188.266 122.167 188.119 122.54C187.986 122.913 187.899 123.267 187.859 123.6L188.199 123.44C189.226 122.947 190.059 122.56 190.699 122.28C191.353 122 191.859 121.86 192.219 121.86C192.286 121.86 192.346 121.887 192.399 121.94ZM202.842 127.12C202.842 127.227 202.809 127.32 202.742 127.4C202.675 127.48 202.595 127.547 202.502 127.6C202.409 127.64 202.309 127.673 202.202 127.7C202.109 127.727 202.029 127.74 201.962 127.74C201.682 127.74 201.442 127.593 201.242 127.3C201.042 126.993 200.875 126.66 200.742 126.3C200.609 125.927 200.509 125.58 200.442 125.26C200.389 124.94 200.362 124.767 200.362 124.74C200.282 124.887 200.195 125.133 200.102 125.48C200.022 125.827 199.922 126.18 199.802 126.54C199.682 126.887 199.529 127.2 199.342 127.48C199.169 127.747 198.942 127.88 198.662 127.88C198.529 127.88 198.402 127.8 198.282 127.64C198.162 127.48 198.049 127.273 197.942 127.02C197.835 126.767 197.729 126.48 197.622 126.16C197.529 125.84 197.429 125.527 197.322 125.22C197.229 124.913 197.135 124.627 197.042 124.36C196.949 124.08 196.855 123.86 196.762 123.7C196.682 123.9 196.609 124.173 196.542 124.52C196.489 124.867 196.442 125.233 196.402 125.62C196.362 125.993 196.329 126.367 196.302 126.74C196.275 127.113 196.262 127.44 196.262 127.72C196.262 127.907 196.209 128.04 196.102 128.12C196.009 128.2 195.909 128.24 195.802 128.24C195.655 128.24 195.509 128.147 195.362 127.96C195.215 127.76 195.069 127.507 194.922 127.2C194.775 126.893 194.635 126.547 194.502 126.16C194.382 125.773 194.269 125.387 194.162 125C194.069 124.613 193.995 124.247 193.942 123.9C193.889 123.54 193.862 123.24 193.862 123C193.862 122.827 193.869 122.667 193.882 122.52C193.895 122.4 193.902 122.287 193.902 122.18C193.915 122.073 193.922 122.013 193.922 122C193.922 121.96 193.909 121.933 193.882 121.92C193.869 121.907 193.862 121.873 193.862 121.82C193.862 121.78 193.909 121.72 194.002 121.64C194.109 121.547 194.215 121.5 194.322 121.5C194.509 121.5 194.629 121.54 194.682 121.62C194.749 121.7 194.782 121.793 194.782 121.9C194.782 121.94 194.775 122 194.762 122.08C194.762 122.16 194.762 122.34 194.762 122.62C194.762 122.807 194.795 123.087 194.862 123.46C194.929 123.833 195.009 124.213 195.102 124.6C195.195 124.987 195.289 125.347 195.382 125.68C195.489 126 195.575 126.2 195.642 126.28C195.669 126.227 195.682 126.167 195.682 126.1C195.695 126.02 195.709 125.96 195.722 125.92L195.942 124.28C195.995 123.867 196.102 123.433 196.262 122.98C196.435 122.513 196.615 122.153 196.802 121.9C196.869 121.793 196.942 121.74 197.022 121.74C197.102 121.74 197.175 121.8 197.242 121.92C197.469 122.293 197.635 122.667 197.742 123.04C197.862 123.4 197.962 123.76 198.042 124.12C198.135 124.467 198.235 124.82 198.342 125.18C198.462 125.527 198.642 125.88 198.882 126.24C198.989 126.067 199.122 125.787 199.282 125.4C199.442 125 199.602 124.6 199.762 124.2C199.935 123.8 200.095 123.453 200.242 123.16C200.389 122.853 200.502 122.7 200.582 122.7C200.622 122.7 200.689 122.707 200.782 122.72C200.875 122.733 200.942 122.74 200.982 122.74C201.102 122.74 201.202 122.88 201.282 123.16C201.362 123.427 201.429 123.747 201.482 124.12C201.549 124.48 201.609 124.847 201.662 125.22C201.729 125.58 201.802 125.853 201.882 126.04C201.935 126.173 202.015 126.3 202.122 126.42C202.229 126.54 202.335 126.653 202.442 126.76C202.575 126.88 202.709 127 202.842 127.12ZM210.87 123.22C210.87 123.567 210.77 123.9 210.57 124.22C210.384 124.54 210.15 124.84 209.87 125.12C209.59 125.387 209.284 125.64 208.95 125.88C208.617 126.107 208.31 126.307 208.03 126.48C207.764 126.667 207.544 126.82 207.37 126.94C207.197 127.06 207.11 127.153 207.11 127.22C207.11 127.393 207.13 127.64 207.17 127.96C207.21 128.267 207.257 128.607 207.31 128.98C207.377 129.34 207.437 129.713 207.49 130.1C207.557 130.487 207.604 130.84 207.63 131.16C207.63 131.173 207.637 131.233 207.65 131.34C207.677 131.447 207.704 131.567 207.73 131.7C207.77 131.833 207.797 131.953 207.81 132.06C207.837 132.18 207.85 132.253 207.85 132.28C207.85 132.373 207.844 132.473 207.83 132.58C207.83 132.7 207.81 132.807 207.77 132.9C207.744 133.007 207.697 133.093 207.63 133.16C207.564 133.227 207.477 133.26 207.37 133.26C207.224 133.26 207.117 133.193 207.05 133.06C206.984 132.94 206.95 132.82 206.95 132.7C206.95 132.673 206.95 132.647 206.95 132.62C206.964 132.593 206.97 132.56 206.97 132.52C206.97 132.373 206.917 131.98 206.81 131.34C206.704 130.7 206.584 129.933 206.45 129.04C206.317 128.16 206.197 127.213 206.09 126.2C205.984 125.173 205.93 124.207 205.93 123.3C205.93 123.233 205.937 123.16 205.95 123.08C205.964 122.987 205.97 122.907 205.97 122.84C205.837 122.853 205.637 122.913 205.37 123.02C205.117 123.127 204.864 123.26 204.61 123.42C204.357 123.567 204.13 123.727 203.93 123.9C203.744 124.06 203.65 124.207 203.65 124.34H203.51C203.47 124.34 203.424 124.313 203.37 124.26C203.304 124.207 203.25 124.147 203.21 124.08C203.157 124.013 203.11 123.947 203.07 123.88C203.03 123.813 203.01 123.767 203.01 123.74C203.01 123.46 203.177 123.2 203.51 122.96C203.844 122.707 204.257 122.487 204.75 122.3C205.257 122.1 205.81 121.947 206.41 121.84C207.01 121.72 207.577 121.66 208.11 121.66C208.63 121.66 209.064 121.72 209.41 121.84C209.77 121.96 210.057 122.107 210.27 122.28C210.484 122.44 210.637 122.607 210.73 122.78C210.824 122.953 210.87 123.1 210.87 123.22ZM209.89 123.16C209.89 123.027 209.724 122.893 209.39 122.76C209.057 122.613 208.664 122.54 208.21 122.54C207.81 122.54 207.517 122.553 207.33 122.58C207.144 122.607 207.017 122.633 206.95 122.66C206.924 122.873 206.904 123.127 206.89 123.42C206.877 123.713 206.87 124.013 206.87 124.32C206.87 124.64 206.877 124.953 206.89 125.26C206.917 125.553 206.944 125.8 206.97 126C207.157 125.88 207.41 125.72 207.73 125.52C208.064 125.307 208.39 125.073 208.71 124.82C209.03 124.553 209.304 124.28 209.53 124C209.77 123.707 209.89 123.427 209.89 123.16ZM217.289 119.96C217.116 120.16 216.869 120.36 216.549 120.56C216.229 120.747 215.909 120.92 215.589 121.08C215.269 121.24 214.989 121.38 214.749 121.5C214.509 121.607 214.389 121.68 214.389 121.72C214.389 121.76 214.416 121.88 214.469 122.08C214.523 122.28 214.583 122.52 214.649 122.8C214.729 123.067 214.809 123.347 214.889 123.64C214.969 123.933 215.036 124.193 215.089 124.42C215.116 124.553 215.149 124.727 215.189 124.94C215.229 125.153 215.263 125.367 215.289 125.58C215.329 125.793 215.363 125.987 215.389 126.16C215.416 126.32 215.429 126.407 215.429 126.42C215.429 126.62 215.396 126.827 215.329 127.04C215.263 127.253 215.156 127.36 215.009 127.36C214.929 127.36 214.856 127.327 214.789 127.26C214.723 127.193 214.663 127.12 214.609 127.04C214.556 126.947 214.516 126.86 214.489 126.78C214.463 126.7 214.449 126.64 214.449 126.6C214.449 126.573 214.449 126.533 214.449 126.48C214.463 126.427 214.469 126.367 214.469 126.3C214.469 126.047 214.429 125.68 214.349 125.2C214.323 125.053 214.269 124.827 214.189 124.52C214.109 124.213 214.029 123.9 213.949 123.58C213.856 123.207 213.749 122.8 213.629 122.36C213.576 122.173 213.543 122.08 213.529 122.08C213.436 122.08 213.276 122.14 213.049 122.26C212.836 122.367 212.589 122.507 212.309 122.68C212.029 122.84 211.736 123.02 211.429 123.22C211.123 123.407 210.836 123.587 210.569 123.76C210.303 123.92 210.076 124.06 209.889 124.18C209.689 124.287 209.569 124.34 209.529 124.34C209.356 124.34 209.216 124.28 209.109 124.16C209.003 124.04 208.949 123.907 208.949 123.76C208.949 123.68 209.063 123.567 209.289 123.42C209.503 123.26 209.776 123.087 210.109 122.9C210.429 122.713 210.783 122.52 211.169 122.32C211.543 122.12 211.889 121.94 212.209 121.78C212.543 121.62 212.816 121.487 213.029 121.38C213.256 121.273 213.369 121.22 213.369 121.22C213.249 120.607 213.149 120.06 213.069 119.58C213.003 119.167 212.936 118.787 212.869 118.44C212.816 118.093 212.789 117.907 212.789 117.88C212.789 117.707 212.823 117.58 212.889 117.5C212.969 117.407 213.056 117.36 213.149 117.36C213.296 117.36 213.389 117.46 213.429 117.66C213.576 118.38 213.709 119.02 213.829 119.58C213.963 120.14 214.089 120.593 214.209 120.94C214.329 120.913 214.536 120.84 214.829 120.72C215.123 120.587 215.429 120.447 215.749 120.3C216.069 120.153 216.356 120.027 216.609 119.92C216.876 119.8 217.029 119.74 217.069 119.74C217.149 119.74 217.196 119.767 217.209 119.82C217.236 119.873 217.263 119.92 217.289 119.96ZM222.556 119.64C222.383 120.56 222.223 121.447 222.076 122.3C222.01 122.66 221.943 123.04 221.876 123.44C221.81 123.827 221.743 124.213 221.676 124.6C221.623 124.973 221.57 125.333 221.516 125.68C221.476 126.013 221.443 126.32 221.416 126.6C221.363 127.027 221.323 127.513 221.296 128.06C221.27 128.607 221.243 129.127 221.216 129.62C221.19 130.193 221.176 130.773 221.176 131.36C221.176 131.48 221.163 131.613 221.136 131.76C221.11 131.907 221.096 132.053 221.096 132.2C221.096 132.333 221.063 132.447 220.996 132.54C220.943 132.633 220.856 132.68 220.736 132.68C220.63 132.68 220.543 132.593 220.476 132.42C220.423 132.26 220.376 132.067 220.336 131.84C220.296 131.627 220.27 131.407 220.256 131.18C220.243 130.967 220.236 130.813 220.236 130.72C220.236 130.613 220.236 130.48 220.236 130.32C220.236 130.173 220.243 129.947 220.256 129.64C220.283 129.347 220.316 128.96 220.356 128.48C220.396 127.987 220.456 127.347 220.536 126.56C220.536 126.547 220.443 126.48 220.256 126.36C220.083 126.24 219.863 126.093 219.596 125.92C219.343 125.733 219.076 125.533 218.796 125.32C218.53 125.107 218.303 124.9 218.116 124.7C218.09 124.673 218.05 124.613 217.996 124.52C217.943 124.427 217.916 124.313 217.916 124.18C217.916 124.113 217.95 124.047 218.016 123.98C218.083 123.9 218.156 123.86 218.236 123.86C218.29 123.86 218.343 123.887 218.396 123.94C218.703 124.207 219.056 124.507 219.456 124.84C219.856 125.16 220.25 125.453 220.636 125.72C220.663 125.48 220.716 125.113 220.796 124.62C220.89 124.127 220.983 123.6 221.076 123.04C221.17 122.467 221.256 121.913 221.336 121.38C221.43 120.847 221.496 120.42 221.536 120.1C221.536 120.047 221.55 119.96 221.576 119.84C221.603 119.72 221.643 119.6 221.696 119.48C221.75 119.36 221.81 119.26 221.876 119.18C221.943 119.087 222.016 119.04 222.096 119.04C222.136 119.04 222.223 119.08 222.356 119.16C222.49 119.227 222.556 119.387 222.556 119.64Z" fill="#0AE500"/>
<rect x="108" y="40" width="6" height="7" rx="3" fill="#0094D3"/>
<rect x="107" y="39" width="6" height="7" rx="3" fill="#9AF99A"/>
<rect x="108" y="2" width="6" height="35" rx="3" fill="#0094D3"/>
<rect x="107" y="1" width="6" height="35" rx="3" fill="#9AF99A"/>
<rect x="106" width="6" height="35" rx="3" fill="#00D1D1"/>
<rect x="107.35" y="1.35" width="3.3" height="32.3" rx="1.65" fill="#00B0F0" stroke="white" stroke-width="0.7"/>
<rect x="106.35" y="38.35" width="5.3" height="6.3" rx="2.65" fill="#00B0F0" stroke="white" stroke-width="0.7"/>
</svg>
