<svg width="238" height="110" viewBox="0 0 238 110" fill="none" xmlns="http://www.w3.org/2000/svg">
<path d="M60.475 33.575C60.475 32.5417 60.325 31.6 60.025 30.75C59.7417 29.8833 59.3167 29.1417 58.75 28.525C58.2 27.8917 57.525 27.4083 56.725 27.075C55.925 26.725 55.0167 26.55 54 26.55C51.8667 26.55 50.175 27.175 48.925 28.425C47.6917 29.6583 46.925 31.375 46.625 33.575H60.475ZM64.075 45.45C63.525 46.1167 62.8667 46.7 62.1 47.2C61.3333 47.6833 60.5083 48.0833 59.625 48.4C58.7583 48.7167 57.8583 48.95 56.925 49.1C55.9917 49.2667 55.0667 49.35 54.15 49.35C52.4 49.35 50.7833 49.0583 49.3 48.475C47.8333 47.875 46.5583 47.0083 45.475 45.875C44.4083 44.725 43.575 43.3083 42.975 41.625C42.375 39.9417 42.075 38.0083 42.075 35.825C42.075 34.0583 42.3417 32.4083 42.875 30.875C43.425 29.3417 44.2083 28.0167 45.225 26.9C46.2417 25.7667 47.4833 24.8833 48.95 24.25C50.4167 23.6 52.0667 23.275 53.9 23.275C55.4167 23.275 56.8167 23.5333 58.1 24.05C59.4 24.55 60.5167 25.2833 61.45 26.25C62.4 27.2 63.1417 28.3833 63.675 29.8C64.2083 31.2 64.475 32.8 64.475 34.6C64.475 35.3 64.4 35.7667 64.25 36C64.1 36.2333 63.8167 36.35 63.4 36.35H46.475C46.525 37.95 46.7417 39.3417 47.125 40.525C47.525 41.7083 48.075 42.7 48.775 43.5C49.475 44.2833 50.3083 44.875 51.275 45.275C52.2417 45.6583 53.325 45.85 54.525 45.85C55.6417 45.85 56.6 45.725 57.4 45.475C58.2167 45.2083 58.9167 44.925 59.5 44.625C60.0833 44.325 60.5667 44.05 60.95 43.8C61.35 43.5333 61.6917 43.4 61.975 43.4C62.3417 43.4 62.625 43.5417 62.825 43.825L64.075 45.45ZM74.541 12.175V49H70.091V12.175H74.541ZM99.3824 28.175C99.2491 28.3583 99.1158 28.5 98.9824 28.6C98.8491 28.7 98.6658 28.75 98.4324 28.75C98.1824 28.75 97.9074 28.65 97.6074 28.45C97.3074 28.2333 96.9324 28 96.4824 27.75C96.0491 27.5 95.5074 27.275 94.8574 27.075C94.2241 26.8583 93.4408 26.75 92.5074 26.75C91.2574 26.75 90.1574 26.975 89.2074 27.425C88.2574 27.8583 87.4574 28.4917 86.8074 29.325C86.1741 30.1583 85.6908 31.1667 85.3574 32.35C85.0408 33.5333 84.8824 34.8583 84.8824 36.325C84.8824 37.8583 85.0574 39.225 85.4074 40.425C85.7574 41.6083 86.2491 42.6083 86.8824 43.425C87.5324 44.225 88.3074 44.8417 89.2074 45.275C90.1241 45.6917 91.1491 45.9 92.2824 45.9C93.3658 45.9 94.2574 45.775 94.9574 45.525C95.6574 45.2583 96.2324 44.9667 96.6824 44.65C97.1491 44.3333 97.5324 44.05 97.8324 43.8C98.1491 43.5333 98.4574 43.4 98.7574 43.4C99.1241 43.4 99.4074 43.5417 99.6074 43.825L100.857 45.45C100.307 46.1333 99.6824 46.7167 98.9824 47.2C98.2824 47.6833 97.5241 48.0917 96.7074 48.425C95.9074 48.7417 95.0658 48.975 94.1824 49.125C93.2991 49.275 92.3991 49.35 91.4824 49.35C89.8991 49.35 88.4241 49.0583 87.0574 48.475C85.7074 47.8917 84.5324 47.05 83.5324 45.95C82.5324 44.8333 81.7491 43.4667 81.1824 41.85C80.6158 40.2333 80.3324 38.3917 80.3324 36.325C80.3324 34.4417 80.5908 32.7 81.1074 31.1C81.6408 29.5 82.4074 28.125 83.4074 26.975C84.4241 25.8083 85.6658 24.9 87.1324 24.25C88.6158 23.6 90.3158 23.275 92.2324 23.275C94.0158 23.275 95.5824 23.5667 96.9324 24.15C98.2991 24.7167 99.5074 25.525 100.557 26.575L99.3824 28.175ZM115.87 23.275C117.72 23.275 119.387 23.5833 120.87 24.2C122.353 24.8167 123.62 25.6917 124.67 26.825C125.72 27.9583 126.52 29.3333 127.07 30.95C127.637 32.55 127.92 34.3417 127.92 36.325C127.92 38.325 127.637 40.125 127.07 41.725C126.52 43.325 125.72 44.6917 124.67 45.825C123.62 46.9583 122.353 47.8333 120.87 48.45C119.387 49.05 117.72 49.35 115.87 49.35C114.003 49.35 112.32 49.05 110.82 48.45C109.337 47.8333 108.07 46.9583 107.02 45.825C105.97 44.6917 105.162 43.325 104.595 41.725C104.045 40.125 103.77 38.325 103.77 36.325C103.77 34.3417 104.045 32.55 104.595 30.95C105.162 29.3333 105.97 27.9583 107.02 26.825C108.07 25.6917 109.337 24.8167 110.82 24.2C112.32 23.5833 114.003 23.275 115.87 23.275ZM115.87 45.875C118.37 45.875 120.237 45.0417 121.47 43.375C122.703 41.6917 123.32 39.35 123.32 36.35C123.32 33.3333 122.703 30.9833 121.47 29.3C120.237 27.6167 118.37 26.775 115.87 26.775C114.603 26.775 113.495 26.9917 112.545 27.425C111.612 27.8583 110.828 28.4833 110.195 29.3C109.578 30.1167 109.112 31.125 108.795 32.325C108.495 33.5083 108.345 34.85 108.345 36.35C108.345 39.35 108.962 41.6917 110.195 43.375C111.445 45.0417 113.337 45.875 115.87 45.875Z" fill="#00B0F0"/>
<path d="M125.2 80.275C127.05 80.275 128.717 80.5833 130.2 81.2C131.683 81.8167 132.95 82.6917 134 83.825C135.05 84.9583 135.85 86.3333 136.4 87.95C136.967 89.55 137.25 91.3417 137.25 93.325C137.25 95.325 136.967 97.125 136.4 98.725C135.85 100.325 135.05 101.692 134 102.825C132.95 103.958 131.683 104.833 130.2 105.45C128.717 106.05 127.05 106.35 125.2 106.35C123.333 106.35 121.65 106.05 120.15 105.45C118.667 104.833 117.4 103.958 116.35 102.825C115.3 101.692 114.492 100.325 113.925 98.725C113.375 97.125 113.1 95.325 113.1 93.325C113.1 91.3417 113.375 89.55 113.925 87.95C114.492 86.3333 115.3 84.9583 116.35 83.825C117.4 82.6917 118.667 81.8167 120.15 81.2C121.65 80.5833 123.333 80.275 125.2 80.275ZM125.2 102.875C127.7 102.875 129.567 102.042 130.8 100.375C132.033 98.6917 132.65 96.35 132.65 93.35C132.65 90.3333 132.033 87.9833 130.8 86.3C129.567 84.6167 127.7 83.775 125.2 83.775C123.933 83.775 122.825 83.9917 121.875 84.425C120.942 84.8583 120.158 85.4833 119.525 86.3C118.908 87.1167 118.442 88.125 118.125 89.325C117.825 90.5083 117.675 91.85 117.675 93.35C117.675 96.35 118.292 98.6917 119.525 100.375C120.775 102.042 122.667 102.875 125.2 102.875ZM165.955 106H161.505V84.4H148.455V99.6C148.455 100.667 148.713 101.458 149.23 101.975C149.746 102.492 150.413 102.75 151.23 102.75C151.696 102.75 152.096 102.692 152.43 102.575C152.78 102.442 153.08 102.3 153.33 102.15C153.58 102 153.788 101.867 153.955 101.75C154.138 101.617 154.296 101.55 154.43 101.55C154.663 101.55 154.871 101.692 155.055 101.975L156.355 104.1C155.588 104.817 154.663 105.383 153.58 105.8C152.496 106.2 151.38 106.4 150.23 106.4C148.23 106.4 146.688 105.842 145.605 104.725C144.538 103.608 144.005 102 144.005 99.9V84.4H140.955C140.688 84.4 140.463 84.325 140.28 84.175C140.096 84.0083 140.005 83.7583 140.005 83.425V81.65L144.155 81.1L145.18 73.3C145.23 73.05 145.338 72.85 145.505 72.7C145.688 72.5333 145.921 72.45 146.205 72.45H148.455V81.175H165.955V106ZM167.055 72.55C167.055 72.9833 166.963 73.3917 166.78 73.775C166.613 74.1417 166.38 74.4667 166.08 74.75C165.796 75.0333 165.463 75.2583 165.08 75.425C164.696 75.5917 164.288 75.675 163.855 75.675C163.421 75.675 163.013 75.5917 162.63 75.425C162.263 75.2583 161.938 75.0333 161.655 74.75C161.371 74.4667 161.146 74.1417 160.98 73.775C160.813 73.3917 160.73 72.9833 160.73 72.55C160.73 72.1167 160.813 71.7083 160.98 71.325C161.146 70.925 161.371 70.5833 161.655 70.3C161.938 70 162.263 69.7667 162.63 69.6C163.013 69.4333 163.421 69.35 163.855 69.35C164.288 69.35 164.696 69.4333 165.08 69.6C165.463 69.7667 165.796 70 166.08 70.3C166.38 70.5833 166.613 70.925 166.78 71.325C166.963 71.7083 167.055 72.1167 167.055 72.55ZM183.94 80.275C185.79 80.275 187.457 80.5833 188.94 81.2C190.424 81.8167 191.69 82.6917 192.74 83.825C193.79 84.9583 194.59 86.3333 195.14 87.95C195.707 89.55 195.99 91.3417 195.99 93.325C195.99 95.325 195.707 97.125 195.14 98.725C194.59 100.325 193.79 101.692 192.74 102.825C191.69 103.958 190.424 104.833 188.94 105.45C187.457 106.05 185.79 106.35 183.94 106.35C182.074 106.35 180.39 106.05 178.89 105.45C177.407 104.833 176.14 103.958 175.09 102.825C174.04 101.692 173.232 100.325 172.665 98.725C172.115 97.125 171.84 95.325 171.84 93.325C171.84 91.3417 172.115 89.55 172.665 87.95C173.232 86.3333 174.04 84.9583 175.09 83.825C176.14 82.6917 177.407 81.8167 178.89 81.2C180.39 80.5833 182.074 80.275 183.94 80.275ZM183.94 102.875C186.44 102.875 188.307 102.042 189.54 100.375C190.774 98.6917 191.39 96.35 191.39 93.35C191.39 90.3333 190.774 87.9833 189.54 86.3C188.307 84.6167 186.44 83.775 183.94 83.775C182.674 83.775 181.565 83.9917 180.615 84.425C179.682 84.8583 178.899 85.4833 178.265 86.3C177.649 87.1167 177.182 88.125 176.865 89.325C176.565 90.5083 176.415 91.85 176.415 93.35C176.415 96.35 177.032 98.6917 178.265 100.375C179.515 102.042 181.407 102.875 183.94 102.875ZM205.834 84.35C206.384 83.7333 206.968 83.175 207.584 82.675C208.201 82.175 208.851 81.75 209.534 81.4C210.234 81.0333 210.968 80.7583 211.734 80.575C212.518 80.375 213.359 80.275 214.259 80.275C215.643 80.275 216.859 80.5083 217.909 80.975C218.976 81.425 219.859 82.075 220.559 82.925C221.276 83.7583 221.818 84.7667 222.184 85.95C222.551 87.1333 222.734 88.4417 222.734 89.875V106H218.259V89.875C218.259 87.9583 217.818 86.475 216.934 85.425C216.068 84.3583 214.743 83.825 212.959 83.825C211.643 83.825 210.409 84.1417 209.259 84.775C208.126 85.4083 207.076 86.2667 206.109 87.35V106H201.634V80.675H204.309C204.943 80.675 205.334 80.9833 205.484 81.6L205.834 84.35Z" fill="#00B0F0"/>
<path d="M47.2 80.275C49.05 80.275 50.7167 80.5833 52.2 81.2C53.6833 81.8167 54.95 82.6917 56 83.825C57.05 84.9583 57.85 86.3333 58.4 87.95C58.9667 89.55 59.25 91.3417 59.25 93.325C59.25 95.325 58.9667 97.125 58.4 98.725C57.85 100.325 57.05 101.692 56 102.825C54.95 103.958 53.6833 104.833 52.2 105.45C50.7167 106.05 49.05 106.35 47.2 106.35C45.3333 106.35 43.65 106.05 42.15 105.45C40.6667 104.833 39.4 103.958 38.35 102.825C37.3 101.692 36.4917 100.325 35.925 98.725C35.375 97.125 35.1 95.325 35.1 93.325C35.1 91.3417 35.375 89.55 35.925 87.95C36.4917 86.3333 37.3 84.9583 38.35 83.825C39.4 82.6917 40.6667 81.8167 42.15 81.2C43.65 80.5833 45.3333 80.275 47.2 80.275ZM47.2 102.875C49.7 102.875 51.5667 102.042 52.8 100.375C54.0333 98.6917 54.65 96.35 54.65 93.35C54.65 90.3333 54.0333 87.9833 52.8 86.3C51.5667 84.6167 49.7 83.775 47.2 83.775C45.9333 83.775 44.825 83.9917 43.875 84.425C42.9417 84.8583 42.1583 85.4833 41.525 86.3C40.9083 87.1167 40.4417 88.125 40.125 89.325C39.825 90.5083 39.675 91.85 39.675 93.35C39.675 96.35 40.2917 98.6917 41.525 100.375C42.775 102.042 44.6667 102.875 47.2 102.875Z" fill="#00B0F0"/>
<path d="M31.0979 17.4408C31.0979 12.1635 38.213 12.1635 38.213 17.4408L38.213 37.8903C38.213 39.3503 38.7868 48.3108 30.1981 48.6023C30.0333 48.6079 29.9394 48.4143 30.0497 48.2917C30.0568 48.2838 30.0647 48.2764 30.073 48.2698C31.0979 47.4459 31.0979 46.2949 31.098 44.8168L31.098 44.8167L31.0979 17.4408Z" fill="#00B0F0"/>
<path d="M24.2199 29.6858C21.9166 29.8178 16.3084 41.3028 11.9598 48.4716C11.9071 48.5585 11.8139 48.6096 11.7123 48.6096C8.60266 48.6096 10.0756 40.5161 9.7483 34.9129C9.7483 34.7767 9.78369 34.641 9.84984 34.522C14.3963 26.3436 18.791 22.3074 24.3145 29.5172C24.3599 29.5747 24.293 29.6816 24.2199 29.6858Z" fill="#00B0F0"/>
<path d="M20.5784 36.903C21.6967 35.0461 25.3295 29.2275 26.1878 30.5261L29.5546 35.0739C29.6821 35.2461 29.7508 35.4599 29.751 35.6742C29.7577 43.932 29.9968 46.1089 28.0695 47.1626C27.676 47.3777 27.1957 47.215 26.9357 46.8496L20.6231 37.9817C20.3956 37.662 20.376 37.2391 20.5784 36.903Z" fill="#00B0F0"/>
<path d="M8.34407 16.666C8.34407 11.2575 1.22898 11.2575 1.22898 16.666V37.6238C1.22898 39.1198 0.655445 48.2994 9.23835 48.602C9.40693 48.6079 9.50376 48.4108 9.39251 48.284C9.3853 48.2758 9.37725 48.2681 9.36881 48.2611C8.34408 47.4168 8.34407 46.2373 8.34405 44.7225V44.7224L8.34407 16.666Z" fill="#00B0F0"/>
<path d="M160.199 46.1831C160.199 49.939 166.992 49.939 166.992 46.1831L166.992 31.629C166.992 30.5878 167.543 24.1865 159.289 24.004C159.168 24.0013 159.107 24.1511 159.2 24.2282C159.205 24.2325 159.211 24.2365 159.217 24.24C160.198 24.8265 160.199 25.6463 160.199 26.6994L160.199 26.6995L160.199 46.1831Z" fill="#00B0F0"/>
<path d="M154.154 38.7973C152.051 38.7496 146.885 29.7446 142.877 24.1209C142.823 24.044 142.735 24 142.641 24C139.783 24 141.137 30.3283 140.836 34.7095C140.836 34.8154 140.867 34.9203 140.925 35.009C145.104 41.4078 149.144 44.5675 154.221 38.9284C154.261 38.8853 154.213 38.7986 154.154 38.7973Z" fill="#00B0F0"/>
<path d="M150.92 33.3388C152.075 34.9551 155.185 39.1147 155.943 38.1393L158.971 34.6584C159.13 34.4764 159.217 34.2389 159.217 33.9977C159.226 27.6174 159.433 25.9399 157.656 25.1238C157.29 24.9561 156.866 25.0933 156.608 25.4016L150.971 32.1399C150.684 32.4832 150.66 32.9746 150.92 33.3388Z" fill="#00B0F0"/>
<path d="M139.801 46.1831C139.801 49.939 133.008 49.939 133.008 46.1831V31.629C133.008 30.5878 132.457 24.1865 140.711 24.004C140.832 24.0013 140.893 24.1511 140.8 24.2282C140.795 24.2325 140.789 24.2365 140.783 24.24C139.802 24.8265 139.801 25.6463 139.801 26.6994V26.6995L139.801 46.1831Z" fill="#00B0F0"/>
<path d="M189.475 33.575C189.475 32.5417 189.325 31.6 189.025 30.75C188.742 29.8833 188.317 29.1417 187.75 28.525C187.2 27.8917 186.525 27.4083 185.725 27.075C184.925 26.725 184.017 26.55 183 26.55C180.867 26.55 179.175 27.175 177.925 28.425C176.692 29.6583 175.925 31.375 175.625 33.575H189.475ZM193.075 45.45C192.525 46.1167 191.867 46.7 191.1 47.2C190.333 47.6833 189.508 48.0833 188.625 48.4C187.758 48.7167 186.858 48.95 185.925 49.1C184.992 49.2667 184.067 49.35 183.15 49.35C181.4 49.35 179.783 49.0583 178.3 48.475C176.833 47.875 175.558 47.0083 174.475 45.875C173.408 44.725 172.575 43.3083 171.975 41.625C171.375 39.9417 171.075 38.0083 171.075 35.825C171.075 34.0583 171.342 32.4083 171.875 30.875C172.425 29.3417 173.208 28.0167 174.225 26.9C175.242 25.7667 176.483 24.8833 177.95 24.25C179.417 23.6 181.067 23.275 182.9 23.275C184.417 23.275 185.817 23.5333 187.1 24.05C188.4 24.55 189.517 25.2833 190.45 26.25C191.4 27.2 192.142 28.3833 192.675 29.8C193.208 31.2 193.475 32.8 193.475 34.6C193.475 35.3 193.4 35.7667 193.25 36C193.1 36.2333 192.817 36.35 192.4 36.35H175.475C175.525 37.95 175.742 39.3417 176.125 40.525C176.525 41.7083 177.075 42.7 177.775 43.5C178.475 44.2833 179.308 44.875 180.275 45.275C181.242 45.6583 182.325 45.85 183.525 45.85C184.642 45.85 185.6 45.725 186.4 45.475C187.217 45.2083 187.917 44.925 188.5 44.625C189.083 44.325 189.567 44.05 189.95 43.8C190.35 43.5333 190.692 43.4 190.975 43.4C191.342 43.4 191.625 43.5417 191.825 43.825L193.075 45.45Z" fill="#00B0F0"/>
<path d="M100.262 101.944C100.262 107.352 106.992 107.352 106.992 101.944L106.992 80.9858C106.992 79.4906 107.534 70.3198 99.4288 70.0081C99.2609 70.0017 99.1625 70.1958 99.2698 70.3251C99.2769 70.3337 99.2848 70.3417 99.2932 70.349C100.262 71.1933 100.262 72.3726 100.262 73.8871L100.262 73.8872L100.262 101.944Z" fill="#00B0F0"/>
<path d="M92.9989 88.9238C90.6956 88.7918 85.0874 77.3068 80.7388 70.138C80.6861 70.0511 80.5929 70 80.4913 70C77.3817 70 78.8546 78.0935 78.5273 83.6968C78.5273 83.8329 78.5627 83.9686 78.6288 84.0876C83.1753 92.2661 87.57 96.3022 93.0935 89.0925C93.1388 89.0349 93.072 88.928 92.9989 88.9238Z" fill="#00B0F0"/>
<path d="M89.3574 81.7066C90.4757 83.5635 94.1085 89.3821 94.9668 88.0835L98.3336 83.5357C98.461 83.3636 98.5298 83.1497 98.53 82.9355C98.5366 74.6776 98.7758 72.5007 96.8485 71.4471C96.455 71.2319 95.9747 71.3947 95.7146 71.76L89.4021 80.628C89.1746 80.9476 89.155 81.3705 89.3574 81.7066Z" fill="#00B0F0"/>
<path d="M77.1231 101.944C77.1231 107.352 70.008 107.352 70.008 101.944L70.008 80.9858C70.008 79.4898 69.4344 70.3102 78.0173 70.0077C78.1859 70.0017 78.2828 70.1988 78.1715 70.3256C78.1643 70.3338 78.1562 70.3415 78.1478 70.3485C77.1231 71.1928 77.1231 72.3724 77.123 73.8871V73.8872L77.1231 101.944Z" fill="#00B0F0"/>
<path d="M20.6427 101.944C20.6427 107.352 13.228 107.352 13.228 101.944L13.228 80.9859C13.228 79.4894 12.6299 70.3037 21.5843 70.0075C21.7534 70.0019 21.8491 70.2012 21.7349 70.3261C21.7276 70.3341 21.7195 70.3415 21.711 70.3482C20.6427 71.1926 20.6427 72.3723 20.6426 73.8872L20.6426 73.8874L20.6427 101.944Z" fill="#00B0F0"/>
<path d="M20.4746 69.2172C17.9932 68.7688 9.00674 78.6345 2.48718 84.5949C2.40281 84.6721 2.28788 84.7023 2.17841 84.6784C-1.15179 83.9492 2.51635 76.4267 3.61317 70.9029C3.64825 70.7709 3.72034 70.6479 3.81947 70.5502C10.8025 63.6633 16.5528 60.7679 20.6064 69.0731C20.6394 69.1383 20.5483 69.2305 20.4746 69.2172Z" fill="#00B0F0"/>
<path d="M32.1271 80.6018C30.8672 82.498 26.9117 88.2314 25.9723 86.9414L22.2721 82.4045C22.1266 82.226 22.0471 81.9973 22.0469 81.767C22.0389 73.3911 21.7695 71.2855 24.0094 70.2523C24.3911 70.0763 24.8366 70.2202 25.096 70.551L32.0764 79.4525C32.3387 79.7869 32.3623 80.2479 32.1271 80.6018Z" fill="#00B0F0"/>
</svg>
